<?xml version="1.0" encoding="utf-8"?><svg viewBox="0 0 1920 574" xmlns="http://www.w3.org/2000/svg" xmlns:xlink="http://www.w3.org/1999/xlink"><style>:root>svg{display:none}:root>svg:target{display:block}</style><svg fill="none" viewBox="0 0 49 48" id="btn-arrow" xmlns="http://www.w3.org/2000/svg"><path d="m20.667 11 13 13-13 13" stroke="#000" stroke-width="2"/></svg><svg viewBox="0 0 32 32" fill="none" id="btn-arrow-right" xmlns="http://www.w3.org/2000/svg"><path d="M4.001 17h23.5m0 0-8.5 8.5m8.5-8.5-8.5-8.5"/></svg><svg fill="none" viewBox="0 0 176 230" id="disk-star" xmlns="http://www.w3.org/2000/svg"><path d="M2 29.914C10.972 25.43 16.58 16.457 22.186 3c3.364 11.214 7.85 22.429 17.943 29.157-10.093 6.729-14.579 11.215-21.307 28.036 0-7.85-6.729-23.55-16.822-30.279Z" stroke="#000" stroke-width="1.5"/><circle cx="171.942" cy="208.786" r="2.243" transform="rotate(-24.489 171.942 208.786)" stroke="#000" stroke-width="1.5"/><circle cx="169.686" cy="85.284" r="4.486" transform="rotate(-24.489 169.686 85.284)" stroke="#000" stroke-width="1.5"/><mask id="aca" fill="#fff"><path d="M42.585 197.29c-22.689-17.538-26.864-50.147-9.327-72.835 17.537-22.689 50.146-26.865 72.835-9.327 22.688 17.537 26.864 50.146 9.327 72.835-17.538 22.688-50.147 26.864-72.835 9.327Zm44.198-57.18c-8.892-6.873-21.67-5.237-28.543 3.655-6.873 8.891-5.237 21.67 3.655 28.543 8.891 6.873 21.67 5.236 28.543-3.655 6.873-8.892 5.236-21.671-3.655-28.543Z"/></mask><path d="M42.585 197.29c-22.689-17.538-26.864-50.147-9.327-72.835 17.537-22.689 50.146-26.865 72.835-9.327 22.688 17.537 26.864 50.146 9.327 72.835-17.538 22.688-50.147 26.864-72.835 9.327Zm44.198-57.18c-8.892-6.873-21.67-5.237-28.543 3.655-6.873 8.891-5.237 21.67 3.655 28.543 8.891 6.873 21.67 5.236 28.543-3.655 6.873-8.892 5.236-21.671-3.655-28.543Z" fill="#fff" stroke="#000" stroke-width="3" mask="url(#aca)"/><mask id="acb" fill="#fff"><path d="M42.093 115.512a51.923 51.923 0 0 0-18.095 53.418l30.624-7.739a20.337 20.337 0 0 1 7.087-20.922l-19.616-24.757Z"/></mask><path d="M42.093 115.512a51.923 51.923 0 0 0-18.095 53.418l30.624-7.739a20.337 20.337 0 0 1 7.087-20.922l-19.616-24.757Z" fill="#EBF3FF" stroke="#000" stroke-width="3" mask="url(#acb)"/><path d="M22.837 162.804a51.92 51.92 0 0 0 37.886 43.51 51.927 51.927 0 0 0 54.697-18.351l-24.398-18.858a21.086 21.086 0 0 1-37.6-10.218l-30.585 3.917Z" fill="#000"/></svg><svg fill="none" viewBox="0 0 654 450" id="doc_line_mission" xmlns="http://www.w3.org/2000/svg"><path d="M924.861 60.857c-163.733-44.764-196.661 90.442-217 173s-105.894-40.174-138.5-60C549.223 163.935 435 363.001 32.5 334.501" stroke="#000" stroke-width="1.5"/><circle cx="26" cy="334" r="7" stroke="#000" stroke-width="1.5"/><rect x="210.64" y="254.661" width="152.646" height="152.646" rx="10" transform="rotate(-12.262 210.64 254.661)" fill="#F6F6F6" stroke="#000" stroke-width="1.5"/><rect x="512.147" y="90.856" width="152.646" height="152.646" rx="10" transform="rotate(22.042 512.147 90.856)" fill="#EBF3FF" stroke="#000" stroke-width="1.5"/><path d="m386.769 268.991-99.725-23.033c-8.184 59.542-40.721 117.09-55.966 138.421 25.071 7.747 80.756 24.817 102.921 31.121 33.485-58.269 49.132-121.952 52.77-146.509Z" fill="#fff" stroke="#000" stroke-width="1.5"/><path d="m335.672 353.612-19.839 36.238-10.655-3.05-7.104-2.033-9.945-2.846-7.104-2.034-9.59-2.745 10.649-18.3 9.236 2.627-10.295 18.418 7.104 2.034 16.527-27.708 9.235 2.627-15.817 27.927 7.104 2.033 19.82-35.887 10.674 2.699Z" fill="#000"/><path d="M278.567 342.812c-3.396 10.206-12.563 25.309-16.722 31.586l9.59 2.744m51.502 14.742-7.104-2.034m0 0 19.839-36.238-10.674-2.699-19.82 35.887m10.655 3.05-10.655-3.05m0 0-7.104-2.033m0 0 15.817-27.927-9.235-2.627-16.527 27.708m9.945 2.846-9.945-2.846m0 0-7.104-2.034m0 0 10.295-18.418-9.236-2.627-10.649 18.3m9.59 2.745-9.59-2.745M293.649 272.233l71.191 17.274M288.252 293.578l69.789 16.483M282.924 313.487l69.034 17.165" stroke="#000" stroke-width="1.5"/><path d="m533.518 238.31-25.82-48.572s15.731-26.351 50.177-40.169c33.553-13.458 31.394 7.412 92.834-25.68l21.473 53.475c-56.008 25.648-53.667 13.131-85.753 24.963-25.669 9.466-45.969 27.933-52.911 35.983Z" fill="#fff" stroke="#000" stroke-width="1.5"/><path d="m541.105 215.266-25.82-48.572s15.731-26.351 50.177-40.169c33.553-13.458 31.394 7.412 92.834-25.68l21.473 53.475c-56.008 25.649-53.667 13.131-85.753 24.963-25.669 9.466-45.97 27.933-52.911 35.983Z" fill="#fff" stroke="#000" stroke-width="1.5"/><ellipse cx="594.329" cy="148.614" rx="20.511" ry="12.697" transform="rotate(-21.879 594.329 148.614)" fill="#000" stroke="#000" stroke-width="1.5"/><path d="M639.075 110.647c3.216 8.009 13.128 11.569 22.138 7.951a19.838 19.838 0 0 0 3.481-1.815M527.287 152.025c1.958 1.527 3.521 3.526 4.483 5.923 3.168 7.887-1.34 17.149-10.085 20.884M532.491 199.058c1.996-3.002 5.002-5.518 8.756-7.026 7.794-3.13 16.262-.889 20.488 4.957M673.72 139.253a19.696 19.696 0 0 0-3.77 1.097c-9.01 3.618-13.707 13.043-10.491 21.052.187.466.397.917.628 1.353" stroke="#000" stroke-width="1.5"/></svg><svg fill="none" viewBox="0 0 382 574" id="document_mission" xmlns="http://www.w3.org/2000/svg"><path d="M25.585 233.277-72.67 271.87l26.043 70.702L54.599 305.09l-29.013-71.813Z" fill="#F6F6F6" stroke="#000" stroke-width="1.5"/><path d="m-43.67 330.131 9.073-28.778 27.667 12.044 12.77-47.715 14.299 7.042 19.386-138.291m0 0 8.549 13.358m-8.55-13.358-13.357 8.549m46.299-12.391 11.306-21.17m-79.785 41.27-21.17-11.306" stroke="#000" stroke-width="1.5"/><path d="M67.404 149.237 194.49 100.89l8.231 22.129M13.84 169.615l-131.287 49.945 8.333 22.083m0 0 69.046 182.968 311.381-117.185-68.592-184.407m-311.835 118.624L9.99 196.335m192.731-73.316L56.204 178.755M123.644 61.686c6.305-7.801 7.689-18.29 7.213-32.86 7.71 8.81 16.441 17.156 28.415 19.096-6.396 10.307-8.618 16.249-7.769 34.346-3.254-7.144-15.885-18.642-27.859-20.582ZM59.372 525.305c6.305-7.801 7.69-18.29 7.214-32.861 7.71 8.811 16.44 17.158 28.415 19.097-6.396 10.307-8.619 16.249-7.77 34.346-3.253-7.144-15.885-18.642-27.859-20.582ZM52.958 225.737l74.784-27.902M60.68 248.099l75.804-28.367M70.35 272.036l74.783-27.902M78.071 294.398l75.804-28.366" stroke="#000" stroke-width="1.5"/><path d="m-26.357 392.487-9.671-23.937 199.018-77.096 9.115 25.423-198.462 75.61Z" stroke="#000" stroke-width="1.5"/><circle cx="292.567" cy="232.504" r="2.243" transform="rotate(-24.489 292.567 232.504)" stroke="#000" stroke-width="1.5"/><circle cx="78.903" cy="409.853" r="4.486" transform="rotate(-24.489 78.903 409.853)" stroke="#000" stroke-width="1.5"/><mask id="ada" fill="#fff"><path d="M176.211 241.008c-22.688-17.537-26.864-50.146-9.327-72.835 17.537-22.688 50.147-26.864 72.835-9.327 22.688 17.538 26.864 50.147 9.327 72.836-17.537 22.688-50.147 26.864-72.835 9.326Zm44.198-57.18c-8.891-6.872-21.67-5.236-28.543 3.655-6.873 8.892-5.236 21.671 3.655 28.544 8.891 6.872 21.67 5.236 28.543-3.655 6.873-8.892 5.236-21.671-3.655-28.544Z"/></mask><path d="M176.211 241.008c-22.688-17.537-26.864-50.146-9.327-72.835 17.537-22.688 50.147-26.864 72.835-9.327 22.688 17.538 26.864 50.147 9.327 72.836-17.537 22.688-50.147 26.864-72.835 9.326Zm44.198-57.18c-8.891-6.872-21.67-5.236-28.543 3.655-6.873 8.892-5.236 21.671 3.655 28.544 8.891 6.872 21.67 5.236 28.543-3.655 6.873-8.892 5.236-21.671-3.655-28.544Z" fill="#fff" stroke="#000" stroke-width="3" mask="url(#ada)"/><mask id="adb" fill="#fff"><path d="M175.72 159.231a51.918 51.918 0 0 0-18.095 53.417l30.623-7.738a20.34 20.34 0 0 1 7.087-20.922l-19.615-24.757Z"/></mask><path d="M175.72 159.231a51.918 51.918 0 0 0-18.095 53.417l30.623-7.738a20.34 20.34 0 0 1 7.087-20.922l-19.615-24.757Z" fill="#EBF3FF" stroke="#000" stroke-width="3" mask="url(#adb)"/><path d="M156.463 206.523a51.917 51.917 0 0 0 37.886 43.51 51.92 51.92 0 0 0 54.697-18.351l-24.397-18.859a21.092 21.092 0 0 1-22.214 7.453 21.089 21.089 0 0 1-15.386-17.67l-30.586 3.917Z" fill="#000"/></svg><svg viewBox="0 0 412 177" id="hero_body" xmlns="http://www.w3.org/2000/svg"><path d="M.5.5H320c50.534 0 91.5 40.966 91.5 91.5v84.5H.5V.5Z" stroke="#000"/></svg><svg fill="none" viewBox="0 0 1920 128" id="hr-line1" xmlns="http://www.w3.org/2000/svg"><g filter="url(#aga)"><path d="M0 0h1920v120H0V0Z" fill="#fff"/></g><defs><filter id="aga" x="-4" y="0" width="1928" height="128" filterUnits="userSpaceOnUse" color-interpolation-filters="sRGB"><feFlood flood-opacity="0" result="BackgroundImageFix"/><feColorMatrix in="SourceAlpha" values="0 0 0 0 0 0 0 0 0 0 0 0 0 0 0 0 0 0 127 0" result="hardAlpha"/><feOffset dy="4"/><feGaussianBlur stdDeviation="2"/><feComposite in2="hardAlpha" operator="out"/><feColorMatrix values="0 0 0 0 0 0 0 0 0 0 0 0 0 0 0 0 0 0 0.25 0"/><feBlend in2="BackgroundImageFix" result="effect1_dropShadow_162_1200"/><feBlend in="SourceGraphic" in2="effect1_dropShadow_162_1200" result="shape"/></filter></defs></svg><svg fill="none" viewBox="0 0 30 30" id="ic-mail" xmlns="http://www.w3.org/2000/svg"><path d="M24.14 25.547H5.86a4.688 4.688 0 0 1-4.688-4.688V9.141a4.687 4.687 0 0 1 4.687-4.688h18.282a4.687 4.687 0 0 1 4.687 4.688v11.718a4.687 4.687 0 0 1-4.687 4.688Z" stroke="#fff" stroke-width="1.5" stroke-miterlimit="10" stroke-linecap="round" stroke-linejoin="round"/><path d="m5.86 9.14 7.483 7.718c.915.916 2.399.916 3.314 0l7.484-7.717M5.86 20.86 11.483 15M18.516 15l5.625 5.86" stroke="#fff" stroke-width="1.5" stroke-miterlimit="10" stroke-linecap="round" stroke-linejoin="round"/></svg><svg fill="none" viewBox="0 0 36 36" id="ic-telegram" xmlns="http://www.w3.org/2000/svg"><mask id="aia" style="mask-type:luminance" maskUnits="userSpaceOnUse" x="3" y="3" width="30" height="30"><path d="M3 3h30v30H3V3Z" fill="#fff"/></mask><g mask="url(#aia)" stroke="#fff" stroke-width="1.5" stroke-miterlimit="10" stroke-linecap="round" stroke-linejoin="round"><path d="M30.225 6.345 4.831 16.04c-1.288.492-1.267 1.236.047 1.654l5.705 1.632 2.999 8.576c.455 1.301 1.657 1.602 2.671.668l3.816-3.513 5.361 4.317c1.09.845 2.205.43 2.478-.92L32.07 7.908c.274-1.35-.556-2.054-1.844-1.563Z"/><path d="m10.66 19.286 15.282-7.808-9.801 10.415-1.734 7.023M16.188 21.93l9.196 7.406"/></g></svg><svg fill="none" viewBox="0 0 36 36" id="ic-whatsapp" xmlns="http://www.w3.org/2000/svg"><path d="M20.385 1.666c6.397.876 11.832 5.681 13.542 11.984.73 2.687.764 5.69.095 8.35-1.371 5.445-5.46 9.866-10.773 11.643-4.54 1.523-9.575.998-13.612-1.427-.373-.219-.711-.403-.746-.403-.027 0-1.45.447-3.16.998-1.702.543-3.1.963-3.1.92 0-.035.452-1.41 1.008-3.047l1.006-2.976-.451-.683c-.564-.857-1.476-2.722-1.814-3.711-2.647-7.738.851-16.3 8.195-20.046 3.03-1.54 6.32-2.074 9.81-1.602Z" stroke="#fff" stroke-width="1.5"/><path d="M11.004 9.182c-.633.338-1.506 1.654-1.827 2.754-.064.216-.144.788-.168 1.264-.056 1.108.144 2.07.697 3.317.408.917 1.354 2.459 2.29 3.723 1.643 2.225 3.67 4.044 5.591 5.04 1.498.77 3.805 1.592 4.782 1.705 1.338.147 3.372-.814 4.085-1.94.465-.727.721-2.51.409-2.822-.16-.156-3.196-1.758-3.797-2.009-.208-.086-.465-.13-.569-.095-.12.026-.432.373-.785.849-.865 1.176-1.29 1.626-1.522 1.626-.312 0-1.866-.813-2.739-1.437-1.113-.797-2.547-2.355-3.324-3.61-.32-.512-.576-1.03-.576-1.143 0-.122.208-.46.56-.9.512-.65.961-1.42.961-1.663 0-.052-.368-1.057-.817-2.234-.529-1.369-.897-2.217-1.033-2.373-.208-.225-.248-.234-1.05-.234-.68 0-.888.035-1.168.182Z" stroke="#fff" stroke-width="1.5"/></svg><svg fill="none" viewBox="0 0 225 183" id="ic1-achievements" xmlns="http://www.w3.org/2000/svg"><circle cx="109" cy="83.061" r="75" fill="#EBF3FF"/><path d="m35.814 76.806.692.29.436-1.04h-1.128v.75Zm-7.21 17.213-.692-.29-.891 2.127 1.971-1.196-.389-.641Zm28.378-17.213v-.75h-.21l-.18.108.39.642ZM9.75 21.04c0-7.34 5.95-13.29 13.29-13.29v-1.5c-8.168 0-14.79 6.622-14.79 14.79h1.5Zm0 41.726V21.04h-1.5v41.726h1.5Zm13.29 13.29c-7.34 0-13.29-5.95-13.29-13.29h-1.5c0 8.168 6.622 14.79 14.79 14.79v-1.5Zm12.774 0H23.04v1.5h12.774v-1.5Zm-6.519 18.252 7.211-17.213-1.383-.58-7.211 17.214 1.383.58Zm27.298-18.144L28.215 93.377l.777 1.283 28.379-17.213-.778-1.283Zm47.857-.108H56.982v1.5h47.468v-1.5Zm13.29-13.29c0 7.34-5.95 13.29-13.29 13.29v1.5c8.168 0 14.79-6.622 14.79-14.79h-1.5Zm0-41.726v41.726h1.5V21.04h-1.5ZM104.45 7.75c7.34 0 13.29 5.95 13.29 13.29h1.5c0-8.168-6.622-14.79-14.79-14.79v1.5Zm-81.41 0h81.41v-1.5H23.04v1.5ZM39.332 44.982c-9.091 6.709-6.847 16.965-4.588 21.255l59.866-4.493c-.535-12.42-7.502-13.077-9.66-18.727-2.158-5.65 3.266-13.061 3.153-15.689-.114-2.627.628-13.187-13.017-13.317-13.644-.13-14.966 8.062-19.352 17.344-4.386 9.281-5.039 5.242-16.402 13.627Z" fill="#000"/><path fill-rule="evenodd" clip-rule="evenodd" d="m99.927 76.792-2.992-11.026c-1.207-4.449-3.987-8.344-8.175-10.27-4.93-2.27-12.342-4.953-20.74-5.542a54.08 54.08 0 0 0-16.25 1.298c-8.681 2.054-14.566 9.33-18.122 17.51l-2.606 5.995-.848 2.035h5.62l-7.211 17.212L56.98 76.792h42.947Z" fill="#EBF3FF"/><path d="M99.927 76.792v.75h.98l-.257-.946-.724.196Zm-2.992-11.026-.724.197.724-.197Zm-8.175-10.27.314-.682-.314.681Zm-20.74-5.542-.052.748.052-.748Zm-16.25 1.298-.173-.73.173.73Zm-18.122 17.51.688.3-.688-.3Zm-2.606 5.995-.688-.299-.004.01.692.29Zm-.848 2.035-.692-.289-.433 1.039h1.125v-.75Zm5.62 0 .691.29.436-1.04h-1.127v.75Zm-7.211 17.212-.692-.29-.89 2.128 1.971-1.196-.389-.642ZM56.98 76.792v-.75h-.21l-.179.109.39.641Zm43.67-.196L97.659 65.57l-1.448.393 2.992 11.025 1.447-.392ZM97.659 65.57c-1.252-4.614-4.154-8.717-8.585-10.756l-.627 1.362c3.943 1.815 6.602 5.503 7.764 9.787l1.448-.393Zm-8.585-10.756c-4.979-2.292-12.482-5.01-21.002-5.608l-.105 1.496c8.278.58 15.598 3.228 20.48 5.474l.627-1.362Zm-21.002-5.608a54.825 54.825 0 0 0-16.475 1.316l.345 1.46a53.328 53.328 0 0 1 16.026-1.28l.104-1.496Zm-16.475 1.316c-9.013 2.132-15.038 9.662-18.637 17.942l1.376.598c3.513-8.083 9.257-15.105 17.606-17.08l-.345-1.46ZM32.96 68.464l-2.605 5.994 1.375.598 2.606-5.994-1.376-.598Zm-2.61 6.004-.848 2.035 1.384.578.849-2.035-1.385-.578Zm-.156 3.074h5.62v-1.5h-5.62v1.5Zm4.928-1.04-7.21 17.213 1.383.58 7.21-17.213-1.383-.58Zm-6.13 18.144 28.377-17.213-.778-1.282-28.377 17.212.778 1.283ZM56.98 77.542h42.947v-1.5H56.98v1.5Z" fill="#000"/><path d="M88.103 27.328c.466-2.51-.275-4.535-.704-5.234-.229.249-1.35 1.972-4.435 2.583-1.427.283-4.756.684-6.056 3.85-.266.65-.556 1.146-.85 1.522-1.017 1.303-2.612.22-3.902-.814-1.403-1.127-3.176-1.708-4.77.42-1.858 2.481.699 5.767 1.738 7.027.163.198.25.447.245.703l-.067 3.434c-.937 6.023-6.587 8.18-9.412 9.26 1.097 1.388 4.588 4.3 9.78 4.842 5.192.542 6.574-1.08 6.616-1.96l-.36-8.36c7.715 1.343 8.613-3.72 8.89-4.69.416-1.453.375-2.408 1.798-2.709 1.423-.3 2.596-.83 2.555-1.785-.04-.955-1.649-4.954-1.066-8.09Z" fill="#fff" stroke="#000" stroke-width="1.5"/><path fill-rule="evenodd" clip-rule="evenodd" d="M198.729 89.043c7.755 0 14.04 6.286 14.04 14.04v41.726c0 7.754-6.285 14.04-14.04 14.04h-12.774l7.211 17.213-28.378-17.213H117.32c-7.754 0-14.04-6.286-14.04-14.04v-41.726c0-7.754 6.286-14.04 14.04-14.04h81.409Z" fill="#F6F6F6"/><mask id="aka" style="mask-type:alpha" maskUnits="userSpaceOnUse" x="103" y="89" width="110" height="88"><path fill-rule="evenodd" clip-rule="evenodd" d="M198.73 89.043c7.754 0 14.04 6.286 14.04 14.04v41.726c0 7.754-6.286 14.04-14.04 14.04h-12.775l7.211 17.213-28.378-17.213H117.32c-7.754 0-14.04-6.286-14.04-14.04v-41.726c0-7.754 6.286-14.04 14.04-14.04h81.41Z" fill="#F6F6F6"/></mask><g mask="url(#aka)"><path d="m146.071 131.834-13.387 27.253v15.3h63.351v-15.3l-.438-14.736a30.124 30.124 0 0 0-13.376-23.559l-10.331-6.888-9.085.478-6.62 5.658c-4.316 3.688-7.386 6.815-10.114 11.794Z" fill="#F6F6F6" stroke="#000" stroke-width="1.5"/><path fill-rule="evenodd" clip-rule="evenodd" d="M146.593 130.911h45.073a30.175 30.175 0 0 0-.916-1.5h-43.233c-.313.482-.621.981-.924 1.5Zm5.115-6.729h34.724a30.245 30.245 0 0 0-1.675-1.5h-31.53a47.94 47.94 0 0 0-1.519 1.5Zm42.614 12.879h-50.819l-.736 1.5h51.971a29.135 29.135 0 0 0-.416-1.5Zm1.285 7.65h-55.861l-.737 1.5h56.643l-.045-1.5Zm.228 7.65h-59.847l-.737 1.5h60.628l-.044-1.5Zm.2 7.65h-63.351v1.5h63.351v-1.5Zm0 7.65h-63.351v1.5h63.351v-1.5Z" fill="#000"/><path d="m144.875 160.521.407-7.171-7.34-4.782-6.215 11.953h13.148ZM181.451 179.167v-26.058h14.583v26.058h-14.583Z" fill="#fff" stroke="#000" stroke-width="1.5"/></g><path d="M174.683 104.981c-.961 1.137-1.521 2.527-1.681 3.08-5.57-.379-6.962-7.107-6.962-10.423-4.322-3.948-12.533-12.27-10.804-13.975 2.16-2.132 6.482-3.08 12.484-2.37 6.002.711 11.765 3.317 12.245 10.66.48 7.343-4.082 11.607-5.282 13.028Z" fill="#000" stroke="#000" stroke-width="1.5"/><path d="M157.793 118.867v-8.882c-1.664 0-4.99.24-6.653-1.92-1.663-2.16-.239-6.832-.476-7.312-.063-.129-3.089-1.2-2.613-2.4.295-.746 1.993-3.112 3.405-5.069.723-1.002 1.063-2.216 1.278-3.433.523-2.962 2.131-5.259 2.92-5.79 1.188 2.4 5.941 4.56 12.356 5.28l-1.426 5.762c2.614-1.68 4.99-1.44 5.228 1.68.201 2.644-4.256 3.601-4.039 6.001.288 3.206 3.801 5.361 5.227 6.001v6.481c-.871.72-3.159 3.501-7.128 4.801-4.832 1.583-7.85.969-9.672.249l1.593-1.449Z" fill="#fff" stroke="#000" stroke-width="1.5" stroke-linejoin="round"/><path d="M179.376 89.06h21.135c6.897 0 12.489 5.565 12.489 12.429v44.934c0 6.864-5.592 12.429-12.489 12.429h-14.45l7.245 17.209-28.51-17.209h-49.307c-6.897 0-12.489-5.565-12.489-12.429v-44.934c0-6.864 5.592-12.428 12.489-12.428h37.467" stroke="#000" stroke-width="1.5"/><circle cx="38" cy="112.061" r="5" fill="#000"/><circle cx="58" cy="112.061" r="5" fill="#000"/><circle cx="79" cy="112.061" r="5" fill="#000"/><path d="M142.024 48.524a.5.5 0 0 1 .952 0l1.096 3.373a.5.5 0 0 0 .475.346h3.547a.5.5 0 0 1 .294.904l-2.87 2.085a.5.5 0 0 0-.181.56l1.096 3.373a.5.5 0 0 1-.77.559l-2.869-2.085a.5.5 0 0 0-.588 0l-2.869 2.085a.5.5 0 0 1-.77-.56l1.096-3.373a.5.5 0 0 0-.181-.559l-2.87-2.085a.5.5 0 0 1 .294-.904h3.547a.5.5 0 0 0 .475-.346l1.096-3.373ZM159.024 48.524a.5.5 0 0 1 .952 0l1.096 3.373a.5.5 0 0 0 .475.346h3.547a.5.5 0 0 1 .294.904l-2.87 2.085a.5.5 0 0 0-.181.56l1.096 3.373a.5.5 0 0 1-.77.559l-2.869-2.085a.5.5 0 0 0-.588 0l-2.869 2.085a.5.5 0 0 1-.77-.56l1.096-3.373a.5.5 0 0 0-.181-.559l-2.87-2.085a.5.5 0 0 1 .294-.904h3.547a.5.5 0 0 0 .475-.346l1.096-3.373ZM175.528 48.424a.5.5 0 0 1 .944 0l1.208 3.483a.499.499 0 0 0 .472.336h3.834a.5.5 0 0 1 .282.913l-3.046 2.074a.502.502 0 0 0-.191.577l1.177 3.394a.5.5 0 0 1-.754.577l-3.173-2.161a.498.498 0 0 0-.562 0l-3.173 2.16a.5.5 0 0 1-.754-.576l1.177-3.394a.502.502 0 0 0-.191-.577l-3.046-2.074a.5.5 0 0 1 .282-.913h3.834a.499.499 0 0 0 .472-.336l1.208-3.483ZM192.024 48.524a.5.5 0 0 1 .952 0l1.096 3.373a.5.5 0 0 0 .475.346h3.547a.5.5 0 0 1 .294.904l-2.87 2.085a.5.5 0 0 0-.181.56l1.096 3.373a.5.5 0 0 1-.77.559l-2.869-2.085a.5.5 0 0 0-.588 0l-2.869 2.085a.5.5 0 0 1-.77-.56l1.096-3.373a.5.5 0 0 0-.181-.559l-2.87-2.085a.5.5 0 0 1 .294-.904h3.547a.5.5 0 0 0 .475-.346l1.096-3.373ZM208.024 48.524a.5.5 0 0 1 .952 0l1.096 3.373a.5.5 0 0 0 .475.346h3.547a.5.5 0 0 1 .294.904l-2.87 2.085a.5.5 0 0 0-.181.56l1.096 3.373a.5.5 0 0 1-.77.559l-2.869-2.085a.5.5 0 0 0-.588 0l-2.869 2.085a.5.5 0 0 1-.77-.56l1.096-3.373a.5.5 0 0 0-.181-.559l-2.87-2.085a.5.5 0 0 1 .294-.904h3.547a.5.5 0 0 0 .475-.346l1.096-3.373Z" fill="#000" stroke="#000" stroke-width=".5"/></svg><svg fill="none" viewBox="0 0 703 532" id="ic1-services" xmlns="http://www.w3.org/2000/svg"><rect x="102" y="16" width="500" height="500" rx="250" fill="#CBFF96"/><rect width="150.81" height="174.987" rx="12.481" transform="scale(-1 1) rotate(29.756 -219.457 -346.873)" fill="#000"/><rect x="-.372" y="1.364" width="140.799" height="161.321" rx="11.481" transform="scale(-1 1) rotate(29.756 -221.82 -325.102)" fill="#fff" stroke="#000" stroke-width="2"/><path fill="#000" d="m188.365 91.573-94.278 53.896 16.55 28.951 94.279-53.896z"/><rect x="-.372" y="1.364" width="33.059" height="31.348" rx="3.884" transform="scale(-1 1) rotate(29.756 -359.87 -330.764)" fill="#F6F6F6" stroke="#000" stroke-width="2"/><rect x="-.372" y="1.364" width="33.059" height="31.348" rx="3.884" transform="scale(-1 1) rotate(29.756 -433.9 -350.43)" fill="#EBF3FF" stroke="#000" stroke-width="2"/><rect x="-.372" y="1.364" width="33.059" height="31.348" rx="3.884" transform="scale(-1 1) rotate(29.756 -380.393 -253.517)" fill="#EBF3FF" stroke="#000" stroke-width="2"/><rect x="-.372" y="1.364" width="33.059" height="31.348" rx="3.884" transform="scale(-1 1) rotate(29.756 -454.423 -273.183)" fill="#F6F6F6" stroke="#000" stroke-width="2"/><rect x="-.372" y="1.364" width="33.059" height="70.682" rx="3.884" transform="scale(-1 1) rotate(29.756 -400.915 -176.27)" fill="#F6F6F6" stroke="#000" stroke-width="2"/><path fill="#000" d="M251.155 112.182h241.184v318.061H251.155z"/><path fill="#CBFF96" stroke="#000" stroke-width="2" d="M238.589 95.094h239.184v316.061H238.589z"/><path d="M367.184 124.101a65.25 65.25 0 0 0-30.83-6.08l4.16 65.112.037.585-.493.318-53.563 34.621 5.92 9.698a65.244 65.244 0 0 0 59.762 18.853 65.26 65.26 0 0 0 52.044-72.441 65.26 65.26 0 0 0-37.037-50.666Z" fill="#000" stroke="#000" stroke-width="2"/><mask id="ala" fill="#fff"><path d="M284.964 217.662a66.23 66.23 0 0 0 27.909 17.314 66.506 66.506 0 0 0 32.838 1.81 66.404 66.404 0 0 0 29.674-14.14 66.023 66.023 0 0 0 19.197-26.607 65.729 65.729 0 0 0-8.214-62.924 66.127 66.127 0 0 0-25.387-20.81 66.462 66.462 0 0 0-32.314-6.082l4.206 65.843-47.909 45.596Z"/></mask><path d="M284.964 217.662a66.23 66.23 0 0 0 27.909 17.314 66.506 66.506 0 0 0 32.838 1.81 66.404 66.404 0 0 0 29.674-14.14 66.023 66.023 0 0 0 19.197-26.607 65.729 65.729 0 0 0-8.214-62.924 66.127 66.127 0 0 0-25.387-20.81 66.462 66.462 0 0 0-32.314-6.082l4.206 65.843-47.909 45.596Z" fill="#fff" stroke="#000" stroke-width="4" mask="url(#ala)"/><path d="m319.456 160.252-2.994-15.514c-18.891-8.575-57.587-20.465-62.519-.195-4.933 20.27 10.437 43.233 17.989 53.948l47.524-38.239Z" fill="#000" stroke="#000" stroke-width="2"/><path d="m315.394 144.324-49.061 39.342a63.466 63.466 0 0 1 11.011-88.888 63.463 63.463 0 0 1 29.484-12.755l8.566 62.301Z" fill="#fff" stroke="#000" stroke-width="2"/><path d="M427.382 328.171a1 1 0 1 0 2 0h-2Zm2 40.978a1 1 0 0 0-2 0h2Zm-2-48.946v7.968h2v-7.968h-2Zm0 48.946v7.968h2v-7.968h-2Z" fill="#000"/><path d="M441.663 328.171h-19.92c-2.465 0-4.83 1.079-6.573 3-1.744 1.922-2.723 4.527-2.723 7.244 0 2.717.979 5.323 2.723 7.244 1.743 1.922 4.108 3.001 6.573 3.001h13.28c2.465 0 4.83 1.079 6.573 3 1.743 1.922 2.723 4.527 2.723 7.244 0 2.717-.98 5.323-2.723 7.244-1.743 1.922-4.108 3.001-6.573 3.001h-20.299" stroke="#000" stroke-width="2" stroke-linecap="square"/><path d="M276.781 277.996h165.814M276.781 311.159h165.814M276.781 344.322h99.488M276.781 377.484h99.488" stroke="#000" stroke-width="2"/><rect x="420.984" y="132.779" width="23.626" height="23.626" rx="3" fill="#fff" stroke="#000" stroke-width="2"/><rect x="420.984" y="173.478" width="23.626" height="23.626" rx="3" fill="#fff" stroke="#000" stroke-width="2"/><rect x="420.984" y="214.178" width="23.626" height="23.626" rx="3" fill="#fff" stroke="#000" stroke-width="2"/><path d="M635.005 460.067h-56.007c13.302-18.202 23.628-114.346 27.128-160.143h7.001l21.878 160.143Z" fill="#000" stroke="#000" stroke-width="2"/><path d="M398.728 392.685c7-26.603 9.917-72.925 10.501-92.761h196.897c.7 77.709-19.544 144.975-29.753 168.894H374.225c5.25-14.293 17.502-49.53 24.503-76.133Z" fill="#fff" stroke="#000" stroke-width="2"/><path fill="#F6F6F6" stroke="#000" stroke-width="2" d="M425.105 331.553h157.268v17.252H425.105z"/><path d="M484.487 437.315h41.129c4.619-8.882 8.231-23.7 10.859-38.504h-41.129c-2.628 14.804-6.241 29.622-10.859 38.504Z" fill="#EBF3FF"/><path d="M541.368 361.182c-.718 8.907-2.342 23.262-4.893 37.629m-36.236-37.629c-.719 8.907-2.343 23.262-4.893 37.629m-33.612-37.629c-1.458 18.085-6.651 58.631-15.752 76.133m129.873-38.504h-39.38m-118.138 0h77.009m41.129 0c-2.628 14.804-6.24 29.622-10.859 38.504h-41.129c4.618-8.882 8.231-23.7 10.859-38.504m41.129 0h-41.129m85.402-37.629c-1.459 18.085-6.651 58.631-15.752 76.133H407.478c9.101-17.502 14.293-58.048 15.752-76.133h157.518ZM431.107 288.548v21.003M453.859 288.548v21.003M476.612 288.548v21.003M499.364 288.548v21.003M522.116 288.548v21.003M543.118 288.548v21.003M565.871 288.548v21.003M586.874 288.548v21.003" stroke="#000" stroke-width="2"/></svg><svg fill="none" viewBox="0 0 190 155" id="ic1_benefits" xmlns="http://www.w3.org/2000/svg"><g clip-path="url(#ama)"><path d="M70.622 97.168c20-4 16.5-13 16.5-28.5s-10-59.5 35.5-41.5" stroke="#000" stroke-width="1.5"/><rect x="9.146" y="89.392" width="66.668" height="66.668" rx="10" transform="rotate(-15.14 9.146 89.392)" fill="#000"/><rect x="2.462" y="85.555" width="66.668" height="66.668" rx="10" transform="rotate(-15.14 2.462 85.555)" fill="#fff" stroke="#000" stroke-width="1.5"/><path d="M21.96 122.908c-4.35 8.411 1.136 15.292 4.423 17.681l43.349-25.551c-5.002-9.14-10.484-7.054-14.2-10.503-3.714-3.449-2.381-11.03-3.44-12.964-1.058-1.933-4.411-10.148-14.719-5.192-10.307 4.955-8.267 11.605-8.127 20.208.14 8.603-1.847 5.807-7.285 16.321Z" fill="#000" stroke="#000" stroke-width="1.5"/><path fill-rule="evenodd" clip-rule="evenodd" d="M81.521 128.399a9.991 9.991 0 0 1-6.946 6.709l-45.048 12.189a9.983 9.983 0 0 1-3.054.34l-.183-6.699c-.177-6.501 1.297-13.048 5.89-17.343a43.46 43.46 0 0 1 13.047-8.389c6.481-2.69 13.484-3.491 18.435-3.671 4.19-.153 8.032 2.21 10.46 5.83l7.4 11.034Z" fill="#EBF3FF"/><path d="m81.521 128.399.717.221.106-.342-.2-.297-.623.418Zm-55.048 19.238-.75.02.02.699.697.03.033-.749Zm-.183-6.699-.75.02.75-.02Zm5.89-17.343-.512-.548.512.548Zm13.047-8.389-.288-.693.288.693Zm18.435-3.671-.027-.75.027.75Zm10.46 5.83-.623.417.623-.417Zm6.683 10.812a9.241 9.241 0 0 1-6.426 6.207l.392 1.448a10.74 10.74 0 0 0 7.467-7.212l-1.433-.443Zm-6.426 6.207L29.33 146.573l.392 1.448 45.048-12.189-.392-1.448ZM29.33 146.573a9.243 9.243 0 0 1-2.825.315l-.066 1.498c1.08.048 2.185-.068 3.283-.365l-.392-1.448Zm-3.79-5.615.182 6.699 1.5-.04-.183-6.7-1.5.041Zm6.127-17.911c-4.82 4.507-6.307 11.313-6.127 17.911l1.5-.041c-.175-6.403 1.284-12.69 5.652-16.775l-1.025-1.095Zm13.271-8.534a44.204 44.204 0 0 0-13.27 8.534l1.024 1.095a42.717 42.717 0 0 1 12.821-8.243l-.575-1.386Zm18.696-3.728c-4.994.182-12.097.989-18.696 3.728l.575 1.386c6.365-2.642 13.268-3.436 18.175-3.615l-.054-1.499Zm11.11 6.162c-2.54-3.788-6.608-6.326-11.11-6.162l.054 1.499c3.878-.141 7.494 2.046 9.81 5.498l1.245-.835Zm7.4 11.034-7.4-11.034-1.246.835 7.4 11.035 1.245-.836Z" fill="#000"/><path d="M52.093 91.571c-.58-2.059-1.887-3.308-2.468-3.675-.08.272-.285 1.984-2.378 3.586-.968.74-3.323 2.275-3.127 5.137.16 2.34-2.444 1.872-4.765 2.2-.925.13-1.704.715-1.977 2.175-.437 2.331 2.141 3.804 3.543 4.471.43.204.78.542.982.972l1.05 2.242c1.526 4.875-1.923 8.59-3.647 10.447 1.339.638 5.043 1.535 9.147.019 4.104-1.515 4.542-3.247 4.248-3.924l-3.367-6.152c6.298-1.847 5.099-5.987 4.948-6.819-.225-1.247-.61-1.95.348-2.703.959-.753 1.645-1.585 1.26-2.288-.384-.704-3.074-3.114-3.797-5.688Z" fill="#fff" stroke="#000" stroke-width="1.5"/><rect x="125.968" y="6.244" width="66.668" height="66.668" rx="10" transform="rotate(19.16 125.968 6.244)" fill="#000"/><rect x="122.944" width="66.668" height="66.668" rx="10" transform="rotate(19.16 122.944 0)" fill="#EBF3FF" stroke="#000" stroke-width="1.5"/><path fill-rule="evenodd" clip-rule="evenodd" d="M160.678 81.727a9.956 9.956 0 0 1-6.086-.153L111.785 66.7l12.577-11.393a40.107 40.107 0 0 1 12.289-7.617l6.937-2.72 7.471 2.162 6.407 8.472a25.811 25.811 0 0 1 4.179 22.816l-.967 3.307Z" fill="#F6F6F6"/><path d="m160.678 81.727.211.72a.751.751 0 0 0 .509-.509l-.72-.21Zm-6.086-.153.247-.709-.247.709ZM111.785 66.7l-.504-.556a.75.75 0 0 0 .257 1.264l.247-.708Zm12.577-11.393-.504-.556.504.556Zm12.289-7.617-.274-.699.274.699Zm6.937-2.72.209-.72a.753.753 0 0 0-.483.022l.274.698Zm7.471 2.162.598-.452a.747.747 0 0 0-.389-.268l-.209.72Zm6.407 8.472-.598.453.598-.453Zm4.179 22.816.72.21-.72-.21Zm-1.178 2.588a9.203 9.203 0 0 1-5.628-.143l-.493 1.417c2.195.763 4.47.772 6.543.165l-.422-1.44Zm-5.628-.143-42.808-14.874-.493 1.417 42.808 14.874.493-1.417Zm-30.981-26.113-12.577 11.392 1.007 1.112 12.577-11.393-1.007-1.111Zm12.519-7.76a40.874 40.874 0 0 0-12.519 7.76l1.007 1.111a39.38 39.38 0 0 1 12.06-7.475l-.548-1.397Zm6.937-2.72-6.937 2.72.548 1.396 6.937-2.72-.548-1.396Zm7.954 2.14-7.471-2.163-.417 1.441 7.471 2.162.417-1.44Zm6.797 8.74-6.408-8.472-1.196.904 6.407 8.473 1.197-.905Zm4.3 23.478a26.56 26.56 0 0 0-4.3-23.478l-1.197.905a25.062 25.062 0 0 1 4.058 22.152l1.439.421Zm-.967 3.308.967-3.308-1.439-.421-.968 3.308 1.44.421Z" fill="#000"/><path d="M155.785 40.497c-1.103.654-2.324 2.82-2.61 3.224-4.424-1.883-3.282-8.942-2.345-11.64-2.4-4.432-6.491-13.166-4.603-14.065 2.36-1.123 5.908-1.029 10.589 1.246 4.682 2.274 8.632 6.022 6.947 12.13-1.684 6.11-6.6 8.288-7.978 9.105Z" fill="#000" stroke="#000" stroke-width="1.5" stroke-linejoin="round"/><path d="m138.205 46.78 2.489-7.164c-1.353-.47-4.126-1.216-4.873-3.429-.748-2.212 1.72-5.578 1.662-6.032-.015-.122-2.176-1.841-1.453-2.675.348-.402 1.659-1.353 3.022-2.31 1.623-1.14 2.751-2.838 3.954-4.415 1.176-1.54 2.574-2.486 3.214-2.653.293 2.272 3.553 5.358 8.57 7.752l-2.774 4.243c2.597-.616 4.462.249 3.781 2.833-.577 2.189-4.47 1.701-4.967 3.699-.664 2.667 1.59 5.398 2.57 6.317l-1.816 5.227c-.911.335-2.859 2.262-6.785 2.695-4.625.51-9.068-.912-10.348-2.008l3.754-2.08Z" fill="#fff" stroke="#000" stroke-width="1.5" stroke-linejoin="round"/><circle cx="108" cy="107" r="4" fill="#000"/><circle cx="123" cy="107" r="4" fill="#000"/><circle cx="139" cy="107" r="4" fill="#000"/><path d="M20 44h46M20 52h46M20 59h23" stroke="#000" stroke-width="1.5"/></g><defs><clipPath id="ama"><path fill="#fff" d="M0 0h190v155H0z"/></clipPath></defs></svg><svg fill="none" viewBox="0 0 150 150" id="ic1_experience" xmlns="http://www.w3.org/2000/svg"><circle cx="75" cy="75" r="75" fill="#EBF3FF"/><path d="m63.324 33.288.438 16.492-5.252.733-1.313-31.519C64.2 21.926 79.663 40.251 86.52 49.047l-5.69-1.1c-3.939-5.497-8.753-11.36-13.13-15.026l-4.376.367Z" fill="#000" stroke="#000" stroke-width="1.5"/><path fill-rule="evenodd" clip-rule="evenodd" d="m77.768 47.215-17.944 2.932v89.363a39.422 39.422 0 0 1 4.376 0c10.749.604 13.998 1.839 16.16 2.661l.47.178c2.66-.997 6.694-1.94 11.167-2.229 2.7-11.197 3.688-30 1.526-45.993-2.626-19.424-9.628-35.184-15.755-46.912Z" fill="#EBF3FF"/><path d="m59.824 50.147-.12-.74a.75.75 0 0 0-.63.74h.75Zm17.944-2.932.665-.347a.75.75 0 0 0-.786-.393l.12.74ZM59.824 139.51h-.75a.748.748 0 0 0 .791.749l-.04-.749Zm4.376 0-.042.749.042-.749Zm16.16 2.661.267-.701-.267.701Zm.47.178-.26.703a.75.75 0 0 0 .524-.001l-.263-.702Zm11.167-2.229.049.748a.75.75 0 0 0 .68-.572l-.729-.176Zm1.526-45.993.743-.1-.743.1Zm-33.578-43.24 17.944-2.932-.242-1.48-17.944 2.932.242 1.48Zm.63 88.623V50.147h-1.5v89.363h1.5Zm3.667-.749a40.187 40.187 0 0 0-4.459 0l.082 1.498a38.655 38.655 0 0 1 4.293 0l.084-1.498Zm16.385 2.709c-2.245-.853-5.572-2.102-16.385-2.709l-.084 1.498c10.684.6 13.856 1.822 15.936 2.613l.533-1.402Zm.464.176-.464-.176-.533 1.402c.161.062.32.122.476.18l.521-1.406Zm10.858-2.275c-4.54.294-8.648 1.251-11.382 2.275l.527 1.405c2.585-.968 6.546-1.898 10.952-2.183l-.097-1.497Zm.83-45.143c2.152 15.913 1.165 34.621-1.51 45.716l1.457.352c2.725-11.299 3.713-30.198 1.54-46.27l-1.486.202ZM77.104 47.562c6.108 11.692 13.068 27.363 15.677 46.666l1.486-.201c-2.642-19.547-9.687-35.395-15.834-47.16l-1.329.695Z" fill="#000"/><path d="M39.254 146.001c3.501-2.434 13.392-7.138 24.946-6.489 11.554.649 14.442 2.028 16.63 2.839 6.857-2.569 22.846-4.786 31.949 3.65" stroke="#000" stroke-width="1.5"/><path d="M27 85.68c2.084-1.045 6.676-2.365 8.374.707.63-1.415 3.161-4.002 8.257-3.032M36.629 93.22c1.33-.173 4.133 0 4.697 2.088.743-1.183 2.77-3.256 4.931-2.087" stroke="#000" stroke-width="1.5" stroke-linejoin="round"/><path d="M114.016 41.213c4.839-.761 6.624 3.491 6.912 5.713 5.875-1.523 7.344 2.856 7.344 5.237H98.465c0-3.047 2.592-3.174 3.888-2.857 0-.476.086-2.094 2.16-2.856 2.073-.762 3.168 1.11 3.456 1.904 0-2.063 1.209-6.38 6.047-7.14Z" fill="#EBF3FF" stroke="#000" stroke-width="1.5" stroke-linejoin="round"/><path d="M119.982 58.074h18.819" stroke="#000" stroke-width="1.5" stroke-linejoin="round"/><path fill-rule="evenodd" clip-rule="evenodd" d="M92.116 140.112c2.842-10.643 5.206-32.246-1.219-57.713-6.565-26.022-13.13-35.184-13.13-35.184l8.754 1.832c5.105 6.109 16.28 23.457 20.131 43.98 3.5 18.649.279 38.507-2.309 48.304-3.983-1.195-8.273-1.464-12.227-1.219Z" fill="#000"/><path d="m90.897 82.399-.727.183.727-.183Zm1.219 57.713-.725-.193a.749.749 0 0 0 .771.942l-.046-.749ZM77.768 47.215l.153-.734a.75.75 0 0 0-.763 1.17l.61-.436Zm8.752 1.832.576-.48a.75.75 0 0 0-.422-.254l-.154.734Zm20.132 43.98.737-.138-.737.139Zm-2.309 48.304-.215.719a.754.754 0 0 0 .582-.064.754.754 0 0 0 .358-.463l-.725-.192ZM90.17 82.583c6.391 25.335 4.032 46.808 1.221 57.336l1.45.387c2.872-10.759 5.241-32.492-1.217-58.09l-1.454.367ZM77.768 47.214l-.61.436s0 .002.002.003l.011.016.05.074c.047.068.117.174.21.319.184.29.46.738.813 1.36.705 1.243 1.72 3.18 2.941 5.93 2.443 5.5 5.712 14.256 8.985 27.23l1.454-.367c-3.291-13.048-6.587-21.885-9.068-27.472-1.24-2.793-2.277-4.773-3.008-6.061a32.332 32.332 0 0 0-.853-1.427 15.915 15.915 0 0 0-.293-.443l-.017-.024-.005-.007-.002-.002v-.001l-.61.436Zm8.906 1.098-8.753-1.832-.307 1.468 8.753 1.832.307-1.468ZM107.39 92.89c-3.88-20.68-15.127-38.142-20.293-44.323l-1.15.962c5.044 6.036 16.147 23.27 19.969 43.638l1.474-.277Zm-2.321 48.634c2.604-9.857 5.849-29.836 2.321-48.634l-1.474.277c3.471 18.498.275 38.235-2.297 47.974l1.45.383Zm-.509-.91c-4.091-1.228-8.474-1.498-12.49-1.249l.093 1.497c3.893-.241 8.09.025 11.966 1.189l.431-1.437Z" fill="#000"/><path fill-rule="evenodd" clip-rule="evenodd" d="m59.386 26.692.946 31.682 15.086-3.24c-5.587-12.462-11.957-22.818-16.032-28.442Zm1.853 62.072-.814-27.289 16.277-3.408c3.56 8.348 6.686 17.508 8.516 26.747l-23.979 3.95Zm.092 3.067.966 32.381 25.196-2.519c.33-7.744.164-17.232-.973-28.298a89.657 89.657 0 0 0-.722-5.384l-24.467 3.82Zm1.422 47.627-.365-12.231 24.942-2.458c-.457 7.268-1.347 12.767-2.196 16.332a44.92 44.92 0 0 1 6.106-.924c2.493-12.266 2.886-31.03.97-47.881-2.626-23.09-16.484-58.348-32.824-71.469V8l-4.376 2.204v129.851a41.638 41.638 0 0 1 7.743-.597Z" fill="#fff"/><path d="m60.332 58.374-.75.023a.75.75 0 0 0 .907.71l-.157-.733Zm-.946-31.682.608-.44a.75.75 0 0 0-1.357.462l.75-.022Zm16.032 28.443.158.733a.75.75 0 0 0 .527-1.04l-.684.307Zm-14.993 6.34-.154-.734a.75.75 0 0 0-.596.757l.75-.023Zm.814 27.29-.75.022a.75.75 0 0 0 .872.717l-.122-.74Zm15.463-30.698.69-.294a.75.75 0 0 0-.844-.44l.154.734Zm8.516 26.747.122.74a.75.75 0 0 0 .614-.886l-.736.146Zm-22.92 39.398-.75.023a.75.75 0 0 0 .824.724l-.075-.747Zm-.967-32.381-.116-.741a.75.75 0 0 0-.634.763l.75-.022Zm26.162 29.862.074.746a.75.75 0 0 0 .675-.714l-.75-.032Zm-.973-28.298-.746.077.746-.077Zm-.722-5.384.74-.122a.75.75 0 0 0-.855-.62l.115.742Zm-23.41 39.216-.074-.747a.75.75 0 0 0-.676.769l.75-.022Zm.365 12.231-.014.75a.75.75 0 0 0 .763-.772l-.75.022Zm24.577-14.689.749.047a.748.748 0 0 0-.822-.793l.073.746Zm-2.196 16.332-.73-.174a.751.751 0 0 0 .894.906l-.164-.732Zm6.106-.924.06.748a.75.75 0 0 0 .674-.598l-.734-.15Zm.97-47.881.745-.085-.745.085ZM59.386 20.827h-.75a.75.75 0 0 0 .28.585l.47-.584Zm0-12.827h.75a.75.75 0 0 0-1.087-.67l.337.67Zm-4.376 2.204-.337-.67a.75.75 0 0 0-.413.67h.75Zm0 129.851h-.75a.749.749 0 0 0 .876.74l-.126-.74Zm6.072-81.703-.946-31.683-1.5.045.946 31.683 1.5-.045Zm14.18-3.95L60.174 57.64l.315 1.466 15.086-3.24-.315-1.466Zm-16.483-27.27c4.044 5.581 10.388 15.893 15.955 28.31l1.369-.614c-5.609-12.509-12.004-22.91-16.11-28.576l-1.214.88Zm.896 34.365.815 27.29 1.499-.045-.815-27.29-1.499.046Zm16.873-4.164L60.27 60.741l.307 1.468 16.277-3.408-.307-1.468Zm9.406 27.335c-1.843-9.303-4.987-18.513-8.563-26.895l-1.38.589c3.547 8.313 6.654 17.423 8.471 26.598l1.472-.292ZM61.36 89.504l23.979-3.95-.244-1.48-23.979 3.95.244 1.48Zm1.686 34.686-.966-32.381-1.5.044.967 32.382 1.5-.045Zm24.37-3.243-25.194 2.519.15 1.493 25.194-2.52-.15-1.492Zm-1.643-27.475c1.133 11.029 1.298 20.481.97 28.189l1.498.064c.332-7.781.165-17.305-.976-28.407l-1.492.154Zm-.716-5.34a88.86 88.86 0 0 1 .716 5.34l1.492-.154a90.372 90.372 0 0 0-.728-5.429l-1.48.244Zm-23.611 4.44 24.467-3.82-.231-1.482-24.468 3.82.232 1.482Zm.19 34.677.366 12.231 1.5-.044-.366-12.232-1.5.045Zm25.62-3.226-24.943 2.457.147 1.493 24.943-2.457-.147-1.493Zm-1.393 17.251c.86-3.613 1.755-9.156 2.215-16.458l-1.497-.094c-.456 7.233-1.34 12.689-2.177 16.205l1.459.347Zm5.314-1.844a45.57 45.57 0 0 0-6.207.939l.327 1.464a43.961 43.961 0 0 1 6.003-.908l-.123-1.495Zm.287-47.05c1.91 16.799 1.513 35.48-.96 47.648l1.47.299c2.513-12.365 2.903-31.212.98-48.116l-1.49.17ZM58.917 21.412c8.027 6.446 15.517 18.406 21.337 31.712 5.811 13.286 9.908 27.8 11.21 39.256l1.491-.17c-1.323-11.632-5.468-26.292-11.327-39.688-5.85-13.376-13.46-25.605-21.772-32.28l-.94 1.17ZM58.637 8v12.828h1.5V8h-1.5Zm-3.29 2.873 4.377-2.203-.675-1.34-4.377 2.204.675 1.34Zm.413 129.182V10.203h-1.5v129.852h1.5Zm7.007-1.347a42.3 42.3 0 0 0-7.883.608l.252 1.479a40.72 40.72 0 0 1 7.603-.587l.028-1.5Z" fill="#000"/></svg><svg fill="none" viewBox="0 0 703 524" id="ic2-services" xmlns="http://www.w3.org/2000/svg"><rect x="102" y="12" width="500" height="500" rx="250" fill="#FF9E8D"/><path d="M367.793 92.443 245.767 40.685c-23.801 74.107-78.215 140.206-102.446 163.993 30.239 15.507 97.431 49.775 124.288 62.789 55.786-66.805 90.034-144.518 100.184-175.024Z" fill="#fff" stroke="#000" stroke-width="2"/><path d="m228.685 220.207 26.441-32.071-11.19-5.422-27.297 31.631 12.046 5.862ZM250.195 230.676l33.436-41.769-13.008-5.837-33.334 41.325 12.906 6.281ZM208.035 210.157l17.263-21.182-11.19-5.422-17.689 20.951 11.616 5.653Z" fill="#F6F6F6"/><path d="M213.22 162.317c-6.622 12.255-21.704 29.463-28.417 36.534l11.616 5.653m62.38 30.36-8.604-4.188m0 0 33.436-41.769-13.008-5.837-33.334 41.325m12.906 6.281-12.906-6.281m0 0-8.604-4.188m0 0 26.441-32.071-11.19-5.422-27.297 31.631m12.046 5.862-12.046-5.862m0 0-8.604-4.188m0 0 17.263-21.182-11.19-5.422-17.689 20.951m11.616 5.653-11.616-5.653M248.294 75.679l86.925 38.008M236.619 101.694l85.315 36.684M225.359 125.892l84.199 37.386" stroke="#000" stroke-width="2"/><rect x="310.75" y="131.792" width="256.397" height="337.024" rx="6" fill="#000"/><path d="M550.216 141.064c2.221 0 4.014 1.79 3.984 4.011-.202 14.873-1.213 70.909-5.747 164.847-.095 1.952-.332 3.942-.332 4.832-7.818 104.206-102.331 127.522-113.918 128.857-5.349.445-15.889 2.462-34.162 2.462-22.271.872-56.093 1.317-108.594 1.753-1.492.012-2.526-1.482-1.9-2.837 33.233-71.99 34.325-269.849 34.295-300.04-.002-2.221 1.797-3.885 4.018-3.885h222.356Z" fill="#FF9E8D" stroke="#000" stroke-width="2" stroke-miterlimit="10" stroke-linejoin="round"/><path d="M352.677 242.252h164.077M352.677 273.697h164.077M352.677 305.141h164.077" stroke="#000" stroke-width="2"/><path d="m323.458 214.651 1.177-72.99H441.98v73.783l-118.522-.793Z" fill="#EBF3FF" stroke="#000" stroke-width="2"/><path d="M340.212 195.681a1.92 1.92 0 0 1-.871-.193c-.226-.097-.338-.242-.338-.436 0-.258.112-.467.338-.629.226-.161.548-.274.968-.338 1.225-.258 2.128-.613 2.709-1.065.58-.483.871-1.257.871-2.322v-19.592c0-1.323-.033-2.322-.097-3-.065-.677-.161-1.128-.29-1.354-.097-.258-.258-.403-.484-.436-.323-.129-.726-.209-1.21-.241a20.595 20.595 0 0 0-1.403-.049h-1.499c-.935 0-1.839.226-2.709.677-.871.42-1.548 1-2.032 1.742-.129.193-.339.468-.629.822a6.175 6.175 0 0 1-.871.968c-.29.29-.596.435-.919.435-.226 0-.387-.08-.484-.242a1.427 1.427 0 0 1-.096-.532c0-.387.096-.774.29-1.161.548-1.096.951-2.048 1.209-2.854.29-.839.484-1.822.581-2.951.064-.484.193-.79.387-.919.225-.161.451-.242.677-.242.194 0 .419.21.677.629.291.387.549.709.774.967.291.291.807.516 1.548.678.742.129 1.371.193 1.887.193l17.851-.048c.903 0 1.661-.065 2.274-.194.613-.161 1.096-.322 1.451-.483.484-.291.871-.581 1.161-.871.29-.323.629-.484 1.016-.484.161 0 .274.097.339.29.096.162.145.371.145.629 0 .161-.016.355-.049.581a17.11 17.11 0 0 1-.096.532 32.129 32.129 0 0 1-.387 1.645c-.129.451-.242.887-.339 1.306a8.382 8.382 0 0 0-.097 1.354v.823c0 .451-.064.838-.193 1.161-.129.322-.339.484-.629.484-.258 0-.484-.146-.677-.436-.162-.322-.339-.806-.533-1.451-.29-1.032-.774-1.79-1.451-2.274-.677-.516-1.741-.774-3.193-.774H352.5c-.613 0-1.097.113-1.452.339-.322.226-.564.725-.725 1.499-.129.742-.194 1.903-.194 3.484v19.302c0 1.032.29 1.79.871 2.274.581.451 1.5.838 2.757 1.161.387.096.694.209.92.338a.63.63 0 0 1 .338.581c0 .226-.113.387-.338.484-.194.096-.452.145-.774.145-.774 0-1.548-.016-2.322-.049l-2.323-.096a48.943 48.943 0 0 0-4.402 0c-.742.032-1.516.064-2.322.096-.774.065-1.548.097-2.322.097ZM361.331 195.729c-.387 0-.709-.064-.967-.193-.258-.097-.387-.274-.387-.532 0-.29.113-.516.339-.677.258-.162.58-.307.967-.436.935-.258 1.742-.645 2.419-1.161.709-.548 1.274-1.29 1.693-2.225.806-1.903 1.58-3.725 2.322-5.467a227.572 227.572 0 0 0 2.129-5.273 485.89 485.89 0 0 0 2.032-5.321 182.536 182.536 0 0 0 2.128-5.709c.355-1 .597-1.774.726-2.322s.242-.951.338-1.209c.484-.129.936-.258 1.355-.387.419-.129.887-.291 1.403-.484a3.934 3.934 0 0 0 1.161-.871c.322-.355.564-.629.726-.822a.514.514 0 0 1 .29-.097c.097-.032.193.032.29.194.097.193.177.387.242.58.064.194.129.403.193.629.71 2.29 1.436 4.612 2.177 6.966a866.186 866.186 0 0 1 2.274 6.918c.742 2.258 1.451 4.435 2.129 6.531a689.677 689.677 0 0 1 1.935 5.708c.29.871.645 1.565 1.064 2.081.452.516.935.919 1.451 1.209a9.746 9.746 0 0 0 1.79.629c.42.097.742.226.968.387a.783.783 0 0 1 .338.677c0 .194-.112.339-.338.436-.194.096-.452.145-.774.145a62.99 62.99 0 0 1-2.225-.049c-.871-.032-1.774-.064-2.71-.096a36.6 36.6 0 0 0-2.515-.097c-.645 0-1.371.016-2.177.048-.774.032-1.564.065-2.371.097-.774.032-1.435.048-1.983.048a2.46 2.46 0 0 1-.871-.145c-.226-.129-.338-.306-.338-.532 0-.258.129-.468.387-.629.258-.193.564-.322.919-.387 1.161-.193 1.999-.484 2.515-.871.516-.419.71-1.016.581-1.79a25.078 25.078 0 0 0-.436-1.935 88.123 88.123 0 0 0-.628-2.37 25.353 25.353 0 0 0-.629-2.274c-.065-.258-.162-.435-.291-.532-.129-.129-.371-.193-.725-.193h-8.708a.644.644 0 0 0-.532.241c-.129.129-.226.339-.29.629-.129.42-.291.903-.484 1.452a101.57 101.57 0 0 1-.532 1.644 46.751 46.751 0 0 1-.484 1.548c-.129.484-.226.903-.29 1.258-.162.871-.017 1.564.435 2.08.484.484 1.306.871 2.467 1.161.871.226 1.306.565 1.306 1.016 0 .194-.113.355-.338.484-.194.097-.484.145-.871.145-.742 0-1.516-.032-2.322-.096a65.5 65.5 0 0 0-2.661-.049c-.967 0-1.919.049-2.854.145-.903.097-1.822.145-2.758.145Zm11.514-14.029h6.724c.452 0 .678-.097.678-.29a.53.53 0 0 0-.049-.242c0-.064-.016-.161-.048-.29l-3.386-11.175c-.129-.452-.242-.678-.339-.678-.065 0-.177.21-.339.629l-4.063 11.224c-.065.161-.097.29-.097.387 0 .161.081.274.242.338.193.065.419.097.677.097ZM396.74 195.778c-.387 0-.725-.049-1.016-.145-.29-.097-.435-.274-.435-.532 0-.291.129-.5.387-.629.29-.129.629-.258 1.016-.387a11.973 11.973 0 0 0 1.935-.823c.709-.355 1.435-.838 2.177-1.451a16.913 16.913 0 0 0 2.177-2.322l5.95-7.595c.387-.484.597-.984.629-1.5.064-.516-.129-1.08-.581-1.693l-6.724-9.482c-.516-.742-1.016-1.355-1.5-1.838-.451-.516-.919-.919-1.402-1.21a6.304 6.304 0 0 0-1.645-.677 7.518 7.518 0 0 1-.968-.387.74.74 0 0 1-.338-.629c0-.226.112-.387.338-.484a2.1 2.1 0 0 1 .823-.145c1.225 0 2.58.049 4.063.145 1.484.097 2.919.129 4.306.097a44.75 44.75 0 0 0 2.999-.097 28.005 28.005 0 0 1 2.758-.145c.322 0 .612.065.87.194.291.096.436.258.436.483 0 .258-.145.468-.436.629a6.77 6.77 0 0 1-1.016.387c-.903.226-1.58.452-2.031.678-.452.225-.678.58-.678 1.064 0 .451.355 1.161 1.065 2.129l4.499 6.288c.322.42.596.645.822.678.226 0 .484-.194.774-.581l4.402-5.95c.42-.548.726-1.032.92-1.451.193-.452.29-.839.29-1.161 0-.387-.178-.71-.532-.968-.323-.29-.871-.532-1.645-.726a4.67 4.67 0 0 1-1.016-.338c-.323-.194-.484-.42-.484-.678 0-.225.129-.387.387-.483.29-.097.645-.145 1.064-.145.581 0 1.081.016 1.5.048.419 0 .839.016 1.258.048.419.033.919.049 1.5.049.935 0 1.806-.049 2.612-.145a16.517 16.517 0 0 1 2.516-.194c.387 0 .725.065 1.015.194.323.096.484.274.484.532s-.145.451-.435.58c-.29.129-.645.258-1.064.387-.774.226-1.613.726-2.516 1.5a17.863 17.863 0 0 0-2.467 2.467l-6.289 7.692c-.387.452-.613.839-.677 1.161-.033.29.096.677.387 1.161l7.885 11.224a11.47 11.47 0 0 0 1.935 2.176c.71.581 1.419.984 2.129 1.21.419.064.806.193 1.161.387.354.193.532.435.532.726 0 .193-.129.338-.387.435-.226.129-.532.193-.919.193-.936 0-1.903-.032-2.903-.096a90.962 90.962 0 0 1-2.903-.145 27.857 27.857 0 0 0-2.854-.049c-.967 0-1.919.016-2.854.049a73.84 73.84 0 0 1-2.612.048c-.323 0-.629-.048-.92-.145-.29-.129-.435-.29-.435-.484 0-.258.161-.468.484-.629.355-.193.677-.322.967-.387a8.45 8.45 0 0 0 1.694-.677c.58-.323.87-.774.87-1.355 0-.225-.032-.435-.096-.629-.065-.193-.194-.419-.387-.677l-5.177-7.353c-.322-.516-.613-.806-.871-.871-.258-.064-.564.161-.919.677l-5.224 7.112c-.323.484-.533.903-.629 1.258-.065.354-.081.628-.049.822.033.419.242.79.629 1.113.387.322.919.548 1.597.677.419.064.774.193 1.064.387.29.161.435.371.435.629 0 .226-.145.387-.435.484-.258.096-.581.145-.968.145-.774 0-1.596-.033-2.467-.097a60.098 60.098 0 0 0-2.274-.048c-.999 0-1.951.048-2.854.145-.903.096-1.806.145-2.709.145Z" fill="#000"/><path d="M546.99 312.398c-6.373 108.497-102.731 129.562-114.566 130.896-5.463.444-15.932 1.334-34.595 1.334 49.161-22.233 75.562-62.253 75.107-93.379 23.67 1.779 62.219 1.613 74.054-38.851Z" fill="#000" stroke="#fff" stroke-width="2" stroke-miterlimit="10" stroke-linejoin="round"/><path d="M490.551 129.979v13.807c-1.337 7.571-7.577 13.806-15.599 13.806h-74.426c-8.021 0-14.261-6.235-15.598-13.806v-13.807c0-1.781 1.337-4.008 3.566-4.008h36.544v-1.782c0-7.126 6.239-13.361 13.37-13.361 7.131 0 13.37 6.235 13.37 13.361v1.782h36.544c.892.445 2.229 1.781 2.229 4.008Z" fill="#000" stroke="#000" stroke-width="2" stroke-miterlimit="10" stroke-linejoin="round"/><path d="M363.667 496.42H162.194a7 7 0 0 1-7-7V337.774a7 7 0 0 1 7-7h220.763a7 7 0 0 1 7 7V489.42a7 7 0 0 1-7 7h-19.29Z" fill="#fff" stroke="#000" stroke-width="2"/><path d="M154.929 413.44v-22.059l3.309-47.426 210.293-1.313-10.662 69.328-120.22 15.073-82.72-13.603Z" fill="#000"/><path d="M358.133 341.774c0-6.075 4.925-11 11-11h15.149a9 9 0 0 1 9 9V496.42h-35.149V341.774Z" fill="#E4EEFC" stroke="#000" stroke-width="2" stroke-linejoin="round"/><path d="M248.284 306.18a12.016 12.016 0 0 0-5.385 10.029v14.036h-16.382v-9.065c0-8.285 6.715-15 15-15h6.767ZM288.736 306.18a13.122 13.122 0 0 1 6.163 11.132v12.933h16.382v-9.065c0-8.285-6.716-15-15-15h-7.545Z" fill="#000" stroke="#000" stroke-width="2" stroke-linejoin="round"/><path d="m389.057 330.832-10.609 1.198a24 24 0 0 0-20.457 17.521l-13.745 50.285a8.001 8.001 0 0 1-6.924 5.851L233.147 416.07a8.029 8.029 0 0 1-2.019-.055l-86.131-13.354a8 8 0 0 1-6.708-8.938l7.277-55.923a8 8 0 0 1 7.934-6.968h235.557Z" fill="#fff" stroke="#000" stroke-width="2" stroke-linejoin="round"/><path d="m248.14 385.106-5.029 15.491a3 3 0 0 1-2.854 2.074h-8.295a3 3 0 0 1-2.879-3.845l4.545-15.491a3 3 0 0 1 2.879-2.156h8.78a3 3 0 0 1 2.853 3.927Z" fill="#000" stroke="#000" stroke-width="2"/><path d="M290.222 305.915h-46.323" stroke="#000" stroke-width="2" stroke-linejoin="round"/></svg><svg fill="none" viewBox="0 0 191 155" id="ic2_benefits" xmlns="http://www.w3.org/2000/svg"><g clip-path="url(#apa)"><path d="M47.404 35.297C42.174 17.105 34.69 17.762 26.96 19.359c15.408-13.211 49.62-32.02 95.985-2.604 43.913 27.86 46.757 71.091 39.259 94.888-.295.934-1.688.844-2.031-.073-4.706-12.564-20.336-15.581-27.239-13.295-.591.196-1.262-.127-1.437-.725-5.253-17.9-23.347-18.425-31.457-17.046a1.024 1.024 0 0 1-1.154-.742c-5.16-19.027-18.5-23.593-26.11-22.02C67.8 37.948 55.133 33.7 47.404 35.297Z" fill="#000"/><path d="m43.532 112.622-1.904 3.169a6.338 6.338 0 1 0 10.865 6.528l38.355-63.834" stroke="#000" stroke-width="1.5"/><path d="M45.075 38.908C39.284 22.27 24.641 18.635 17.54 20.515c13.643-13.066 52.328-33.754 96.922-8.79 44.2 24.743 49.13 71.058 44.328 93.661-3.787-14.823-22.67-18.775-28.661-15.373-5.637-18.14-23.463-15.232-30.564-13.351-5.637-18.141-21.25-18.916-28.352-17.035-5.637-18.141-19.036-22.599-26.138-20.719Z" fill="#EBF3FF" stroke="#000" stroke-width="1.5" stroke-linejoin="round"/><path d="m44.814 38.538.115.321c7.114-1.861 20.548 2.62 26.27 20.727l.087.07c.151-.04.305-.077.463-.114 12.884-23.671 36.375-40.18 46.105-45.767l-.012-.007c-24.549-9.246-59.089 12.385-73.028 24.77Z" fill="#fff" stroke="#000" stroke-width="1.5" stroke-linejoin="round"/><path d="M130.613 89.345c-.111.015-.223.03-.336.047-1.725-7.106-12.006-16.835-30.61-13.503l-.102-.045c-.037-.15-.077-.304-.12-.46 14.701-22.238 18.102-50.484 18.411-61.607l.013.007c19.715 17.29 17.035 57.605 12.744 75.56Z" fill="#fff" stroke="#000" stroke-width="1.5"/><path d="m117.778 13.665 4.896-8.15" stroke="#000" stroke-width="1.5"/><rect x="7.88" y="94.472" width="96.757" height="60.334" rx="8" transform="rotate(-4.899 7.88 94.472)" fill="#000"/><rect x="2.677" y="90.568" width="96.757" height="60.334" rx="8" transform="rotate(-4.899 2.677 90.568)" fill="#fff" stroke="#000" stroke-width="1.5"/><path d="m59.076 104.633 32.773-2.573m-32.102 10.402 32.773-2.573m-25.247 11.505c-.91 2.519-1.38 7.554 4.026 7.542 3.23-.008 5.984-2.547 7.67-5.231m0 0c1.845-2.934 2.412-6.043.927-6.21-2.33-.261-2.708 4.6-.926 6.21Zm0 0c.395.356.894.553 1.502.501 3.355-.287 4.825-9.427 11.408-4.921" stroke="#000" stroke-width="1.5"/><path d="M20.539 116.908c-2.08 5.638-3.603 7.182-3.21 11.727l37.183-3.222c-.015-3.433-1.404-6.461-4.471-9.344-3.066-2.883-1.528-7.882-4.783-16.186-3.255-8.305-18.072-7.02-21.444-.432-3.372 6.589-.766 10.657-3.275 17.457Z" fill="#000"/><path d="M30.38 101.031c-.949 2.443-3.836 4.858-5.017 5.748l.415 4.785a9.516 9.516 0 0 0 2.332 5.466l.837.95.355 4.102 10.949-.949-.356-4.101.666-.973a9.509 9.509 0 0 0 1.616-6.187l-.391-4.516c-7.457-.299-10.71-3.008-11.405-4.325Z" fill="#fff" stroke="#000" stroke-width="1.5"/><path fill-rule="evenodd" clip-rule="evenodd" d="M61.926 146.046 15.8 149.999a7.967 7.967 0 0 1-3.709-.563l-.741-8.557a12.641 12.641 0 0 1 8.686-13.114l9.78-3.179-.247-2.86 10.866-.942.247 2.86 9.62 1.434a12.727 12.727 0 0 1 10.803 11.489l.821 9.479Z" fill="#EBF3FF"/><path d="m61.926 146.046.064.747.748-.064-.064-.748-.748.065ZM15.8 149.999l-.064-.747.064.747Zm-3.709-.563-.747.065.04.455.423.174.284-.694Zm-.741-8.557-.748.065.748-.065Zm8.686-13.114-.232-.713.232.713Zm9.78-3.179.232.713.567-.184-.051-.594-.748.065Zm-.247-2.86-.065-.747-.747.065.064.747.747-.065Zm10.866-.942.747-.064-.065-.748-.747.065.065.747Zm.247 2.86-.747.065.051.589.586.088.11-.742Zm9.62 1.434-.111.741.11-.741Zm10.803 11.489-.747.065.747-.065Zm.757 8.732-46.126 3.953.129 1.494 46.126-3.953-.129-1.494Zm-46.126 3.953a7.21 7.21 0 0 1-3.36-.51l-.569 1.388a8.71 8.71 0 0 0 4.058.616l-.129-1.494Zm-5.134-8.308.742 8.557 1.494-.13-.741-8.557-1.495.13Zm9.202-13.892a13.391 13.391 0 0 0-9.201 13.892l1.494-.13a11.892 11.892 0 0 1 8.17-12.336l-.463-1.426Zm9.78-3.18-9.78 3.18.464 1.426 9.78-3.179-.463-1.427Zm-.763-2.081.248 2.859 1.495-.129-.248-2.86-1.495.13Zm11.549-1.754-10.866.942.13 1.494 10.865-.941-.13-1.495Zm1.06 3.542-.248-2.859-1.495.129.248 2.86 1.495-.13Zm8.982.757-9.619-1.434-.221 1.484 9.619 1.433.221-1.483Zm11.44 12.166a13.477 13.477 0 0 0-11.44-12.166l-.221 1.483a11.978 11.978 0 0 1 10.167 10.813l1.494-.13Zm.822 9.479-.822-9.479-1.494.13.821 9.479 1.495-.13Z" fill="#000"/></g><defs><clipPath id="apa"><path fill="#fff" transform="translate(.667)" d="M0 0h190v155H0z"/></clipPath></defs></svg><svg fill="none" viewBox="0 0 151 150" id="ic2_experience" xmlns="http://www.w3.org/2000/svg"><circle cx="75.666" cy="75" r="75" fill="#EBF3FF"/><path d="m95.903 40.438 4.622 2.266-34.324 69.991" stroke="#000" stroke-width="1.5"/><path d="M134.438 32.376c-8.71-1.801-17.306-2.986-25.62 1.44l15.667-14.665c7.592.767 9.63 9.707 9.953 13.225Z" fill="#000" stroke="#000" stroke-width="1.5"/><path d="M106.91 20.056c-6.497 4.11-8.632 17.602-8.632 17.602l6.953 3.41c5.024-7.565 16.692-17.29 21.898-21.206 0 0-13.6-3.994-20.219.194Z" fill="#fff" stroke="#000" stroke-width="1.5" stroke-linejoin="round"/><path d="M71.617 51.22c3.265-.686 16.136-.778 20.549-1.816L80.755 62.26c-5.453-.478-9.236-7.429-9.138-11.04Z" fill="#000" stroke="#000" stroke-width="1.5"/><path d="M79.59 62.252c8.052-4.25 14.55-16.042 17.4-21.017l6.641 2.324c.861 1.402 1.191 3.873 1.259 6.328.102 3.644-2.2 6.818-5.444 8.481l-.696.357a33.877 33.877 0 0 1-19.16 3.527Z" fill="#fff" stroke="#000" stroke-width="1.5" stroke-linejoin="round"/><path d="m108.714 63.365 6.736-13.08c3.909 2.558 11.118 8.178 8.674 10.194-2.444 2.016-11.292 2.764-15.41 2.886ZM92.373 12.237 89.74 33.47c-3.91-2.558-12.101-7.797-10.706-10.642 2.428-4.952 9.22-10.47 13.338-10.592Z" fill="#000" stroke="#000" stroke-width="1.5"/><path d="M123.853 43.245c-5.048-6.407-14.261-5.437-18.249-3.707l-2.944 6.003c11.207 3.203 19.318 10.436 21.65 14.31 2.286-2.155 4.592-10.198-.457-16.606ZM78.772 39.969c3.86 4.749 14.342 3.734 18.33 2.004l2.945-6.003C88.84 32.767 82.441 25.25 80.108 21.376c-2.285 2.155-4.657 14.507-1.336 18.593Z" fill="#fff" stroke="#000" stroke-width="1.5"/><circle cx="100.647" cy="40.459" r="5.148" transform="rotate(26.123 100.647 40.459)" fill="#F6F6F6" stroke="#000" stroke-width="1.5"/><path d="M132.058 40.501c2.197 1.914 5.508 7.78 1.176 15.938m.943-19.878c1.659 1.213 5.064 4.522 5.413 8.059M73.558 42.329c-2.197-1.914-5.508-7.78-1.176-15.938m-.943 19.878c-1.659-1.213-5.064-4.522-5.413-8.059" stroke="#000" stroke-width="1.5"/><path fill-rule="evenodd" clip-rule="evenodd" d="M19.773 126.182a2 2 0 0 1 2.13-1.865l79.09 5.317a2 2 0 0 0 2.129-1.853l3.412-47.772.128-1.797a1.7 1.7 0 0 1 3.39.242l-.422 5.912-3.412 47.772a2 2 0 0 1-2.13 1.853l-82.463-5.543a2 2 0 0 1-1.861-2.126l.009-.14Z" fill="#000"/><path d="m106.534 80.009-.748-.053.748.053Zm3.096 4.357-.748-.053.748.053Zm-88.005 44.082-.05.748.05-.748Zm-1.861-2.126-.749-.049.749.049Zm90.288-47.868.748.054-.748-.054Zm-3.834 53.684-.749-.053.749.053Zm-2.13 1.853-.05.749.05-.749Zm-82.185-9.674.05-.748-.05.748Zm79.09 5.317-.051.748.051-.748Zm2.129-1.853-.748-.053.748.053Zm-2.079 1.105-79.09-5.317-.1 1.496 79.089 5.317.101-1.496Zm4.743-48.93-3.412 47.772 1.496.106 3.412-47.772-1.496-.106Zm.128-1.797-.128 1.796 1.496.107.129-1.796-1.497-.107Zm3.39.242-.422 5.912 1.496.107.422-5.912-1.496-.107Zm-.422 5.912-3.413 47.772 1.497.107 3.412-47.772-1.496-.107Zm-4.743 48.93-82.463-5.544-.101 1.497 82.463 5.544.101-1.497Zm-83.627-6.872.01-.14-1.498-.098-.009.14 1.497.098Zm1.163 1.328a1.25 1.25 0 0 1-1.163-1.328l-1.497-.098a2.75 2.75 0 0 0 2.56 2.923l.1-1.497Zm86.739-50.313a.949.949 0 0 1 .89 1.015l1.496.107a2.45 2.45 0 0 0-2.298-2.62l-.088 1.498Zm-1.003.88a.949.949 0 0 1 1.003-.88l.088-1.498a2.45 2.45 0 0 0-2.588 2.27l1.497.108Zm-1.942 53.819a1.249 1.249 0 0 1-1.33 1.158l-.101 1.497a2.751 2.751 0 0 0 2.928-2.548l-1.497-.107Zm-83.516-8.516a2.75 2.75 0 0 0-2.929 2.564l1.497.098a1.25 1.25 0 0 1 1.331-1.166l.1-1.496Zm78.989 6.813a2.75 2.75 0 0 0 2.928-2.548l-1.496-.106a1.25 1.25 0 0 1-1.331 1.158l-.101 1.496Z" fill="#000"/><path fill-rule="evenodd" clip-rule="evenodd" d="M17.13 123.377a2 2 0 0 0 1.86 2.125l82.139 5.578a2 2 0 0 0 2.13-1.855l3.401-48.086-86.444-5.483-3.087 47.721Z" fill="#EBF3FF"/><path d="M107.06 75.473a2 2 0 0 0-1.868-2.137l-82.479-5.23a2 2 0 0 0-2.122 1.865l-.375 5.685 86.444 5.483.4-5.666Z" fill="#fff"/><path d="m20.216 75.656.375-5.685a2 2 0 0 1 2.122-1.864l82.479 5.229a2 2 0 0 1 1.868 2.137l-.4 5.666m-86.444-5.483-3.087 47.721a2 2 0 0 0 1.86 2.125l82.14 5.578a2 2 0 0 0 2.13-1.855l3.401-48.086m-86.444-5.483 86.444 5.483" stroke="#000" stroke-width="1.5"/><path d="m67.037 86.96-37.353-2.13a2 2 0 0 0-2.108 1.84L25.53 112.55a2 2 0 0 0 1.864 2.154l37.363 2.432a2 2 0 0 0 2.124-1.84l2.037-26.184a2 2 0 0 0-1.88-2.152Z" fill="#fff" stroke="#000" stroke-width="1.5"/><path d="m29.09 108.897 5.56-5.664a1 1 0 0 1 1.427 0l4.813 4.904a1 1 0 0 0 1.457-.032l8.317-9.261a1 1 0 0 1 1.474-.015l2.146 2.294a1 1 0 0 0 1.448.013l9.555-9.837m0 0v4.554m0-4.554-4.72.414M74.655 91.228l25.108.93M73.725 98.668l26.038 1.86M73.725 107.037l26.038 1.86M72.795 114.477l26.968 2.789" stroke="#000" stroke-width="1.5"/></svg><svg fill="none" viewBox="0 0 703 532" id="ic3-services" xmlns="http://www.w3.org/2000/svg"><rect x="102" y="16" width="500" height="500" rx="250" fill="#FFEB7F"/><path d="m367.045 187.59-139.318 1.011-1.363 99.763 142.453 1.774-1.772-102.548Z" fill="#F6F6F6" stroke="#000" stroke-width="2"/><path d="m237.54 271.143 24.662-31.234 28.257 28.024 38.103-52.866 14.218 15.494 86.473-129.907m0 0 4.198 20.562m-4.198-20.562-20.4 4.211m51.147.94 23.821-20.775M383.5 103.804l-20.637-24.026M419.156 229.353H507.4M419.156 256.996H507.4M419.156 284.639H507.4M310.406 430.027l20.201-71.234h69.107l20.2 71.234M313.831 417.95c-31.703 2.177-52.331 6.21-52.331 11.013 0 7.047 46.172 12.759 103.129 12.759 56.957 0 103.129-5.712 103.129-12.759 0-4.695-20.737-8.798-51.269-11.013" stroke="#000" stroke-width="2"/><path fill-rule="evenodd" clip-rule="evenodd" d="M193.95 367.299v8.505h350.852v-240.28h-8.506v231.775H193.95Z" fill="#000"/><path d="M193.95 375.804h-1v1h1v-1Zm0-8.505v-1h-1v1h1Zm350.852 8.505v1h1v-1h-1Zm0-240.28h1v-1h-1v1Zm-8.506 0v-1h-1v1h1Zm0 231.775v1h1v-1h-1Zm-341.346 8.505v-8.505h-2v8.505h2Zm349.852-1H193.95v2h350.852v-2Zm-1-239.28v240.28h2v-240.28h-2Zm-7.506 1h8.506v-2h-8.506v2Zm-1-1v231.775h2V135.524h-2Zm1 230.775H193.95v2h342.346v-2Z" fill="#000"/><path d="M370.873 135.524H193.5V337.53h344.472V135.524h-86.118" stroke="#000" stroke-width="2"/><path fill="#EBF3FF" stroke="#000" stroke-width="2" d="M193.5 318.353h342v51h-342z"/><circle cx="366.186" cy="343.909" r="10.632" fill="#000"/><circle cx="191.359" cy="399.396" r="60.116" fill="#000"/><circle cx="187.065" cy="395.102" r="56.54" fill="#F6F6F6" stroke="#000" stroke-width="2"/><circle cx="187.065" cy="395.102" r="47.952" fill="#F6F6F6" stroke="#000" stroke-width="2"/><path d="m170.469 370.779 4.387 7.271m26.951 44.667-4.387-7.271M186.975 370.739l-18.179 10.969c-2.25 1.357-3.813 3.644-4.346 6.357-.533 2.714.008 5.631 1.504 8.11 1.496 2.48 3.825 4.318 6.473 5.112 2.649.793 5.401.476 7.651-.881l12.119-7.313c2.25-1.357 5.002-1.674 7.651-.881 2.649.793 4.977 2.632 6.473 5.112 1.496 2.479 2.037 5.396 1.504 8.11-.533 2.713-2.096 5-4.346 6.357l-18.525 11.178" stroke="#000" stroke-width="2" stroke-linecap="round"/><circle cx="29.578" cy="29.578" r="29.578" transform="scale(-1 1) rotate(-69.755 142.178 294.519)" fill="#000"/><circle cx="28.31" cy="28.31" r="27.31" transform="scale(-1 1) rotate(-69.755 141.938 290.681)" fill="#F6F6F6" stroke="#000" stroke-width="2"/><circle cx="24.085" cy="24.085" r="23.085" transform="scale(-1 1) rotate(-69.755 142.856 285.538)" fill="#F6F6F6" stroke="#000" stroke-width="2"/><path d="m153.372 294.542-2.601 3.197m-15.977 19.637 2.601-3.197M156.097 302.075l-7.992-6.502c-.989-.805-2.29-1.144-3.616-.942-1.327.202-2.57.928-3.457 2.018-.887 1.09-1.345 2.455-1.273 3.795.073 1.339.669 2.544 1.658 3.349l5.328 4.335c.989.805 1.585 2.01 1.658 3.35.072 1.339-.386 2.704-1.273 3.795-.887 1.09-2.13 1.815-3.457 2.017-1.326.202-2.627-.137-3.616-.942l-8.144-6.626" stroke="#000" stroke-width="2" stroke-linecap="round"/><mask id="ara" fill="#fff"><path d="M442.908 208.861c-17.65-33.464-4.83-74.9 28.634-92.55 33.464-17.65 74.9-4.83 92.55 28.634 17.65 33.464 4.83 74.899-28.634 92.549-33.464 17.65-74.9 4.83-92.55-28.633Zm88.912-46.895c-8.25-15.64-27.616-21.632-43.257-13.383-15.64 8.249-21.632 27.616-13.383 43.256 8.25 15.641 27.616 21.632 43.257 13.383 15.64-8.249 21.632-27.616 13.383-43.256Z"/></mask><path d="M442.908 208.861c-17.65-33.464-4.83-74.9 28.634-92.55 33.464-17.65 74.9-4.83 92.55 28.634 17.65 33.464 4.83 74.899-28.634 92.549-33.464 17.65-74.9 4.83-92.55-28.633Zm88.912-46.895c-8.25-15.64-27.616-21.632-43.257-13.383-15.64 8.249-21.632 27.616-13.383 43.256 8.25 15.641 27.616 21.632 43.257 13.383 15.64-8.249 21.632-27.616 13.383-43.256Z" fill="#fff" stroke="#000" stroke-width="4" mask="url(#ara)"/><mask id="arb" fill="#fff"><path d="M487.041 110.406a68.511 68.511 0 0 0-33.476 19.601 68.512 68.512 0 0 0-17.463 34.639l35.833 6.516a32.084 32.084 0 0 1 23.856-25.403l-8.75-35.353Z"/></mask><path d="M487.041 110.406a68.511 68.511 0 0 0-33.476 19.601 68.512 68.512 0 0 0-17.463 34.639l35.833 6.516a32.084 32.084 0 0 1 23.856-25.403l-8.75-35.353Z" fill="#EBF3FF" stroke="#000" stroke-width="4" mask="url(#arb)"/><path d="M438.058 156.655a68.504 68.504 0 0 0 58.351 88.383 68.505 68.505 0 0 0 39.049-7.544l-16.995-32.223a32.067 32.067 0 0 1-35.446-3.688 32.072 32.072 0 0 1-10.157-34.16l-34.802-10.768Z" fill="#000"/></svg><svg fill="none" viewBox="0 0 191 155" id="ic3_benefits" xmlns="http://www.w3.org/2000/svg"><g clip-path="url(#asa)"><path fill-rule="evenodd" clip-rule="evenodd" d="M28.802 49.37c-9.389 0-17 7.61-17 17v46.798c0 9.389 7.611 17 17 17h6.8l-7.332 17.504 28.857-17.504h46.618c9.388 0 17-7.611 17-17V66.369c0-9.389-7.612-17-17-17H28.802Z" fill="#000"/><path fill-rule="evenodd" clip-rule="evenodd" d="M25.842 45.737c-7.754 0-14.04 6.286-14.04 14.04v52.719c0 7.754 6.286 14.04 14.04 14.04h5.221l-7.332 17.504 28.857-17.504h49.577c7.754 0 14.04-6.286 14.04-14.04V59.777c0-7.754-6.286-14.04-14.04-14.04H25.842Z" fill="#fff"/><path d="m31.063 126.536.692.29.436-1.04h-1.128v.75Zm-7.332 17.504-.692-.29-.891 2.127 1.971-1.196-.389-.641Zm28.857-17.504v-.75h-.21l-.179.109.39.641ZM12.552 59.777c0-7.34 5.95-13.29 13.29-13.29v-1.5c-8.168 0-14.79 6.622-14.79 14.79h1.5Zm0 52.719V59.777h-1.5v52.719h1.5Zm13.29 13.29c-7.34 0-13.29-5.95-13.29-13.29h-1.5c0 8.169 6.622 14.79 14.79 14.79v-1.5Zm5.221 0h-5.221v1.5h5.221v-1.5Zm-6.64 18.544 7.332-17.504-1.383-.579-7.333 17.503 1.383.58Zm27.776-18.435-28.857 17.504.777 1.282 28.858-17.503-.778-1.283Zm49.966-.109H52.588v1.5h49.577v-1.5Zm13.29-13.29c0 7.34-5.95 13.29-13.29 13.29v1.5c8.169 0 14.79-6.621 14.79-14.79h-1.5Zm0-52.719v52.719h1.5V59.777h-1.5Zm-13.29-13.29c7.34 0 13.29 5.95 13.29 13.29h1.5c0-8.168-6.621-14.79-14.79-14.79v1.5Zm-76.323 0h76.323v-1.5H25.842v1.5ZM34.732 93.76c-9.322 6.879-7.02 17.395-4.705 21.793l61.384-4.606c-.548-12.735-7.692-13.409-9.905-19.201-2.212-5.794 3.349-13.394 3.233-16.087-.116-2.694.644-13.522-13.346-13.656-13.991-.133-15.347 8.267-19.844 17.784-4.497 9.517-5.166 5.375-16.817 13.973Z" fill="#000"/><path fill-rule="evenodd" clip-rule="evenodd" d="m96.864 126.393-3.115-11.48c-1.207-4.449-3.99-8.343-8.173-10.282-5.054-2.342-12.724-5.145-21.427-5.756-6.604-.463-12.36.283-16.998 1.412-8.668 2.109-14.552 9.375-18.108 17.556l-2.81 6.464-.87 2.086h5.76l-7.394 17.649 29.096-17.649h44.039Z" fill="#EBF3FF"/><path d="M96.864 126.393v.75h.98l-.256-.946-.724.196Zm-3.115-11.48-.724.197.724-.197Zm-8.173-10.282-.315.681.315-.681ZM64.15 98.875l-.053.748.053-.748Zm-16.998 1.412.177.729-.177-.729Zm-18.108 17.556-.688-.299.688.299Zm-2.81 6.464-.687-.299-.005.01.693.289Zm-.87 2.086-.691-.288-.434 1.038h1.126v-.75Zm5.76 0 .69.29.436-1.04h-1.127v.75Zm-7.394 17.649-.692-.29-.891 2.127 1.972-1.196-.39-.641Zm29.096-17.649v-.75h-.21l-.179.109.39.641Zm44.763-.196-3.115-11.48-1.448.393 3.115 11.48 1.448-.393Zm-3.115-11.48c-1.252-4.615-4.157-8.716-8.582-10.766l-.63 1.361c3.94 1.826 6.602 5.515 7.764 9.798l1.448-.393Zm-8.582-10.766c-5.102-2.365-12.864-5.205-21.69-5.824l-.105 1.496c8.581.602 16.16 3.369 21.165 5.689l.63-1.361Zm-21.69-5.824c-6.69-.47-12.524.287-17.227 1.431l.354 1.458c4.574-1.114 10.252-1.85 16.768-1.393l.105-1.496Zm-17.227 1.431c-8.996 2.189-15.02 9.705-18.618 17.986l1.375.598c3.513-8.082 9.257-15.097 17.597-17.126l-.354-1.458Zm-18.618 17.986-2.81 6.464 1.376.598 2.81-6.464-1.377-.598Zm-2.815 6.474-.87 2.087 1.385.577.87-2.086-1.384-.578Zm-.177 3.125h5.758v-1.5h-5.758v1.5Zm5.066-1.04-7.393 17.649 1.384.58 7.393-17.649-1.384-.58Zm-6.312 18.58 29.096-17.649-.778-1.282-29.096 17.649.778 1.282Zm28.707-17.54h44.039v-1.5H52.825v1.5Z" fill="#000"/><path d="M84.738 75.659c.478-2.572-.282-4.65-.722-5.367-.234.256-1.385 2.023-4.547 2.65-1.463.29-4.877.7-6.21 3.947-.284.696-.596 1.22-.91 1.61-1.037 1.289-2.63.201-3.912-.844-1.447-1.182-3.288-1.817-4.941.39-1.909 2.55.728 5.928 1.788 7.214.164.198.25.446.245.703l-.068 3.53c-.96 6.176-6.754 8.388-9.65 9.494 1.124 1.424 4.704 4.41 10.027 4.966 5.324.556 6.74-1.108 6.784-2.01l-.37-8.571c7.91 1.377 8.832-3.815 9.116-4.809.427-1.49.385-2.47 1.844-2.778 1.458-.308 2.662-.85 2.62-1.83-.043-.98-1.691-5.08-1.094-8.295Z" fill="#fff" stroke="#000" stroke-width="1.5"/><path fill-rule="evenodd" clip-rule="evenodd" d="M105.502 10.329a7.862 7.862 0 0 0-7.861 7.861v37.3a7.862 7.862 0 0 0 7.861 7.86h36.503L159.7 74.197l-2.283-10.845h10.69a7.862 7.862 0 0 0 7.862-7.862V18.19a7.862 7.862 0 0 0-7.862-7.861h-62.605Z" fill="#000"/><path d="m142.005 63.35.392-.639-.18-.11h-.212v.75ZM159.7 74.197l-.392.64 1.484.91-.358-1.705-.734.155Zm-2.283-10.845v-.75h-.925l.191.904.734-.154ZM98.391 18.19a7.112 7.112 0 0 1 7.111-7.112v-1.5a8.611 8.611 0 0 0-8.611 8.611h1.5Zm0 37.298V18.19h-1.5v37.3h1.5Zm7.111 7.112a7.112 7.112 0 0 1-7.111-7.112h-1.5a8.611 8.611 0 0 0 8.611 8.612v-1.5Zm36.503 0h-36.503v1.5h36.503v-1.5Zm18.087 10.956L142.397 62.71l-.784 1.28 17.695 10.844.784-1.278Zm-3.409-10.052 2.283 10.845 1.468-.309-2.284-10.845-1.467.31Zm11.424-.904h-10.69v1.5h10.69v-1.5Zm7.112-7.112a7.112 7.112 0 0 1-7.112 7.112v1.5a8.612 8.612 0 0 0 8.612-8.612h-1.5Zm0-37.299v37.3h1.5v-37.3h-1.5Zm-7.112-7.111a7.112 7.112 0 0 1 7.112 7.111h1.5a8.612 8.612 0 0 0-8.612-8.611v1.5Zm-62.605 0h62.605v-1.5h-62.605v1.5Z" fill="#000"/><path fill-rule="evenodd" clip-rule="evenodd" d="M105.502 10.329a7.862 7.862 0 0 0-7.861 7.861v34.89a7.862 7.862 0 0 0 7.861 7.86h32.89l17.695 10.846-2.283-10.845h11.893a7.862 7.862 0 0 0 7.862-7.862V18.19a7.862 7.862 0 0 0-7.862-7.861h-60.195Z" fill="#EBF3FF"/><path d="m138.392 60.94.392-.639-.181-.11h-.211v.75Zm17.695 10.846-.392.64 1.484.91-.358-1.705-.734.155Zm-2.283-10.845v-.75h-.925l.191.904.734-.154ZM98.391 18.19a7.112 7.112 0 0 1 7.111-7.112v-1.5a8.611 8.611 0 0 0-8.611 8.611h1.5Zm0 34.888V18.19h-1.5v34.89h1.5Zm7.111 7.112a7.112 7.112 0 0 1-7.111-7.112h-1.5a8.611 8.611 0 0 0 8.611 8.612v-1.5Zm32.89 0h-32.89v1.5h32.89v-1.5Zm18.087 10.956L138.784 60.3l-.784 1.28 17.695 10.844.784-1.278Zm-3.409-10.052 2.283 10.845 1.468-.309-2.283-10.845-1.468.31Zm12.627-.904h-11.893v1.5h11.893v-1.5Zm7.112-7.112a7.112 7.112 0 0 1-7.112 7.112v1.5a8.612 8.612 0 0 0 8.612-8.612h-1.5Zm0-34.889v34.89h1.5V18.19h-1.5Zm-7.112-7.111a7.112 7.112 0 0 1 7.112 7.111h1.5a8.612 8.612 0 0 0-8.612-8.611v1.5Zm-60.195 0h60.195v-1.5h-60.195v1.5Z" fill="#000"/><path d="M135.196 92.949H184M135.196 106.808H184" stroke="#000" stroke-width="1.5"/><path d="M7.57 18.23a.5.5 0 0 1 .952 0l1.219 3.752a.5.5 0 0 0 .476.345h3.944a.5.5 0 0 1 .294.905l-3.191 2.318a.5.5 0 0 0-.182.56l1.22 3.751a.5.5 0 0 1-.77.559L8.34 28.101a.5.5 0 0 0-.587 0L4.56 30.42a.5.5 0 0 1-.77-.559l1.22-3.752a.5.5 0 0 0-.182-.559l-3.191-2.318a.5.5 0 0 1 .294-.905h3.944a.5.5 0 0 0 .476-.345L7.57 18.23ZM25.812 18.23a.5.5 0 0 1 .95 0l1.22 3.752a.5.5 0 0 0 .475.345h3.945a.5.5 0 0 1 .294.905l-3.192 2.318a.5.5 0 0 0-.181.56l1.219 3.751a.5.5 0 0 1-.77.559l-3.19-2.319a.5.5 0 0 0-.589 0l-3.191 2.319a.5.5 0 0 1-.77-.559l1.22-3.752a.5.5 0 0 0-.182-.559l-3.191-2.318a.5.5 0 0 1 .293-.905h3.945a.5.5 0 0 0 .476-.345l1.219-3.752ZM43.52 18.13a.5.5 0 0 1 .944 0l1.338 3.861a.5.5 0 0 0 .473.336h4.258a.5.5 0 0 1 .282.913l-3.389 2.309a.5.5 0 0 0-.19.576l1.306 3.772a.5.5 0 0 1-.754.577l-3.515-2.394a.5.5 0 0 0-.563 0l-3.515 2.394a.5.5 0 0 1-.754-.577l1.307-3.772a.5.5 0 0 0-.19-.576l-3.39-2.308a.5.5 0 0 1 .282-.914h4.258a.5.5 0 0 0 .473-.336l1.338-3.861ZM61.22 18.23a.5.5 0 0 1 .951 0l1.22 3.752a.5.5 0 0 0 .475.345h3.945a.5.5 0 0 1 .293.905l-3.19 2.318a.5.5 0 0 0-.183.56l1.22 3.751a.5.5 0 0 1-.77.559l-3.191-2.319a.5.5 0 0 0-.588 0l-3.191 2.319a.5.5 0 0 1-.77-.559l1.22-3.752a.5.5 0 0 0-.182-.559l-3.192-2.318a.5.5 0 0 1 .294-.905h3.945a.5.5 0 0 0 .475-.345l1.22-3.752ZM78.388 18.23a.5.5 0 0 1 .951 0l1.22 3.752a.5.5 0 0 0 .475.345h3.944a.5.5 0 0 1 .294.905l-3.191 2.318a.5.5 0 0 0-.182.56l1.22 3.751a.5.5 0 0 1-.77.559l-3.192-2.319a.5.5 0 0 0-.587 0l-3.192 2.319a.5.5 0 0 1-.769-.559l1.219-3.752a.5.5 0 0 0-.182-.559l-3.191-2.318a.5.5 0 0 1 .294-.905h3.945a.5.5 0 0 0 .475-.345l1.219-3.752Z" fill="#000" stroke="#000" stroke-width=".5"/><path d="M121.819 29.137c-3.271 6.215 8.27 17.233 14.449 21.965 6.18-4.732 17.721-15.75 14.45-21.965-4.09-7.768-12.814-1.607-14.45 1.071-1.635-2.678-10.359-8.84-14.449-1.071Z" fill="#000" stroke="#EBF3FF" stroke-width="1.5"/></g><defs><clipPath id="asa"><path fill="#fff" transform="translate(.335)" d="M0 0h190v155H0z"/></clipPath></defs></svg><svg fill="none" viewBox="0 0 151 150" id="ic3_experience" xmlns="http://www.w3.org/2000/svg"><circle cx="75.333" cy="75" r="75" fill="#EBF3FF"/><path d="m58.515 102.122 40-84.849" stroke="#000" stroke-width="1.5"/><path fill-rule="evenodd" clip-rule="evenodd" d="M79.537 130.001c12.557 0 22.737-2.404 22.737-5.369 0-.106-.013-.212-.039-.316h.039l-.126-.252a1.724 1.724 0 0 0-.068-.136l-2.016-4.033h-9.823c-3.19-.403-6.834-.631-10.704-.631-3.87 0-7.483.228-10.632.631h-9.894l-1.895 4.421h.038c-.025.104-.038.21-.038.316 0 2.965 9.864 5.369 22.421 5.369Z" fill="#000"/><path d="M102.235 124.316v-.75a.75.75 0 0 0-.728.929l.728-.179Zm.039 0v.75a.75.75 0 0 0 .671-1.086l-.671.336Zm-.126-.252-.685.305.014.03.671-.335Zm-.068-.136-.67.336a.191.191 0 0 0 .015.028l.655-.364Zm-2.016-4.033.67-.336a.748.748 0 0 0-.67-.414v.75Zm-9.823 0-.094.744a.74.74 0 0 0 .094.006v-.75Zm-21.336 0v.75a.607.607 0 0 0 .095-.007l-.095-.743Zm-9.894 0v-.75a.75.75 0 0 0-.69.454l.69.296Zm-1.895 4.421-.69-.296a.749.749 0 0 0 .69 1.046v-.75Zm.038 0 .73.174a.75.75 0 0 0-.73-.924v.75Zm44.37.316c0 .291-.276.806-1.402 1.435-1.064.593-2.652 1.152-4.68 1.631-4.043.955-9.666 1.553-15.905 1.553v1.5c6.32 0 12.064-.605 16.25-1.593 2.087-.493 3.828-1.09 5.066-1.781 1.174-.656 2.171-1.554 2.171-2.745h-1.5Zm-.017-.137a.558.558 0 0 1 .017.137h1.5c0-.168-.021-.334-.06-.496l-1.457.359Zm.728.571h.039v-1.5h-.039v1.5Zm.71-1.086-.126-.251-1.342.67.126.252 1.342-.671Zm-1.52.312.038.077 1.37-.61a2.526 2.526 0 0 0-.097-.195l-1.311.728Zm1.326-.699-2.017-4.034-1.341.671 2.017 4.034 1.341-.671Zm-2.687-4.448h-9.823v1.5h9.823v-1.5Zm-20.527.869c3.842 0 7.454.226 10.61.625l.188-1.489c-3.224-.406-6.9-.636-10.798-.636v1.5ZM69 120.638c3.114-.398 6.696-.624 10.537-.624v-1.5c-3.898 0-7.544.23-10.727.637l.19 1.487Zm-.095-1.493h-9.894v1.5h9.894v-1.5Zm-10.583.454-1.895 4.421 1.379.591 1.894-4.421-1.378-.591Zm-1.206 5.467h.038v-1.5h-.038v1.5Zm.75-.434c0-.046.006-.093.017-.142l-1.459-.349a2.117 2.117 0 0 0-.058.491h1.5Zm21.671 4.619c-6.238 0-11.781-.598-15.744-1.552-1.987-.478-3.534-1.036-4.566-1.628-1.089-.624-1.36-1.137-1.36-1.439h-1.5c0 1.181.96 2.079 2.114 2.74 1.21.693 2.913 1.292 4.961 1.785 4.11.989 9.776 1.594 16.095 1.594v-1.5Z" fill="#000"/><ellipse cx="79.121" cy="119.698" rx="20.606" ry="4.242" fill="#fff" stroke="#000" stroke-width="1.5"/><path d="M79.12 109.395v9.697" stroke="#000" stroke-width="1.5"/><ellipse cx="76.696" cy="60.302" rx="40" ry="39.394" fill="#EBF3FF" stroke="#000" stroke-width="1.5"/><path fill-rule="evenodd" clip-rule="evenodd" d="M101.832 90.948c9.067-7.221 14.864-18.267 14.864-30.646 0-9.233-3.225-17.723-8.626-24.44-6.505 1.47-12.618 6.527-15.307 9.012-2.433 2.249 1.426 4.748 4.841 6.959 1.987 1.286 3.824 2.475 4.182 3.46 1.629 4.478 4.196 7.114 6.232 9.205 3.27 3.359 5.168 5.309-.393 11.216-3.471 3.687-5.473 5.855-5.793 15.097a1.583 1.583 0 0 0 0 .137Z" fill="#fff"/><path d="m101.832 90.948-.75.026.05 1.49 1.167-.929-.467-.587Zm6.238-55.085.585-.47-.294-.365-.456.103.165.732Zm-15.307 9.011.509.551-.51-.55Zm4.841 6.959-.407.63.407-.63Zm4.182 3.46.705-.256-.705.256Zm6.232 9.205-.537.523.537-.523Zm-.393 11.216.546.514-.546-.514Zm-5.793 15.097-.75-.026.75.026Zm14.114-30.509c0 12.139-5.684 22.973-14.582 30.06l.935 1.173c9.236-7.356 15.147-18.613 15.147-31.233h-1.5Zm-8.46-23.97c5.298 6.59 8.46 14.916 8.46 23.97h1.5c0-9.41-3.288-18.066-8.791-24.91l-1.169.94Zm-14.214 9.093c2.68-2.476 8.667-7.408 14.964-8.83l-.331-1.464c-6.714 1.517-12.952 6.698-15.651 9.193l1.018 1.101Zm4.74 5.778c-1.737-1.125-3.46-2.247-4.47-3.343-.503-.548-.74-.998-.785-1.354-.037-.295.044-.646.515-1.081l-1.018-1.101c-.746.689-1.095 1.494-.986 2.368.102.815.587 1.549 1.17 2.184 1.167 1.267 3.081 2.5 4.759 3.586l.815-1.259Zm4.479 3.834c-.139-.383-.398-.729-.683-1.033a8.95 8.95 0 0 0-1.044-.922c-.782-.604-1.767-1.241-2.752-1.879l-.815 1.26c1.001.648 1.928 1.248 2.65 1.806.36.278.651.532.867.762.222.236.327.409.367.519l1.41-.513Zm6.064 8.938c-2.027-2.083-4.493-4.622-6.064-8.938l-1.41.513c1.688 4.638 4.356 7.372 6.4 9.471l1.074-1.046Zm-.384 12.253c2.793-2.966 3.937-5.155 3.707-7.163-.114-1-.562-1.867-1.156-2.673-.588-.797-1.36-1.588-2.167-2.417l-1.074 1.046c.827.85 1.519 1.563 2.033 2.26.508.69.8 1.31.874 1.954.147 1.284-.541 3.025-3.309 5.965l1.092 1.028Zm-5.59 14.609c.159-4.578.733-7.319 1.65-9.35.915-2.027 2.196-3.406 3.94-5.259l-1.092-1.028c-1.727 1.835-3.182 3.382-4.215 5.67-1.033 2.286-1.62 5.25-1.782 9.915l1.499.052Zm0 .086a1.247 1.247 0 0 1 0-.086l-1.499-.052a2.98 2.98 0 0 0 0 .189l1.499-.05Z" fill="#000"/><path fill-rule="evenodd" clip-rule="evenodd" d="M73.985 67.86c.002-.481-.048-.94-.147-1.361-1.009-4.283-3.019-7.23-4.702-9.698-1.655-2.427-2.995-4.39-2.759-6.709.261-2.555-2.589-3.063-5.12-3.515-2.098-.374-3.977-.709-3.68-2.139.653-3.155 8.281-7.631 16.261-9.068 7.98-1.437 10.2-4.26 9.404-6.735-.176-.547-.437-1.184-.718-1.87-.716-1.75-1.561-3.814-1.447-5.487a39.96 39.96 0 0 0-3.624-.253c-21.789-.527-39.88 16.708-40.407 38.497-.383 15.844 8.626 29.732 21.948 36.334 1.082-.854 2.003-2.294 1.966-4.586-.004-.217-1.6-2.894-3.203-5.585-1.625-2.726-3.259-5.468-3.259-5.686.002-1.436.687-2.123 1.741-2.445 1.416-.433 3.027-.804 4.687-1.186 6.177-1.422 13.035-3 13.059-8.508Z" fill="#fff"/><path d="m73.838 66.499-.73.172.73-.172Zm.147 1.36.75.004-.75-.003Zm-4.85-11.058-.619.423.62-.423Zm-2.758-6.709.747.077-.747-.076Zm-5.12-3.515.132-.738-.132.738Zm-3.68-2.139-.735-.152.734.152Zm16.261-9.068-.133-.738.133.738Zm9.404-6.735-.714.23.714-.23Zm-.718-1.87-.694.284.695-.284Zm-1.447-5.487.749.05a.75.75 0 0 0-.662-.795l-.087.745ZM58.995 95.856l-.333.672a.75.75 0 0 0 .797-.083l-.464-.589Zm1.966-4.586.75-.012-.75.012Zm-3.203-5.585.644-.384-.645.384Zm-3.259-5.686.75.001-.75-.001Zm1.741-2.445.22.717-.22-.717Zm4.687-1.186-.168-.73.168.73Zm12.182-9.697a5.1 5.1 0 0 1 .127 1.185l1.5.007a6.596 6.596 0 0 0-.167-1.536l-1.46.344Zm-4.592-9.447c1.682 2.465 3.618 5.311 4.592 9.447l1.46-.344c-1.044-4.43-3.127-7.478-4.813-9.949l-1.239.846Zm-2.885-7.208c-.27 2.643 1.276 4.848 2.885 7.208l1.24-.846c-1.702-2.493-2.836-4.217-2.632-6.21l-1.493-.152Zm-4.505-2.7c1.299.231 2.523.456 3.4.9.425.214.714.454.89.722.165.255.265.59.215 1.078l1.493.153c.08-.79-.078-1.476-.453-2.05-.365-.56-.898-.955-1.469-1.243-1.115-.563-2.581-.817-3.813-1.037l-.263 1.477Zm-4.284-3.03c-.111.537-.023 1.042.276 1.468.278.396.69.654 1.096.835.797.355 1.898.546 2.912.727l.263-1.477c-1.084-.193-1.973-.357-2.565-.62-.288-.129-.422-.246-.478-.327-.036-.05-.072-.124-.035-.302l-1.469-.304Zm16.863-9.654c-4.074.734-8.056 2.241-11.115 3.975-1.53.867-2.848 1.802-3.836 2.742-.97.922-1.702 1.924-1.912 2.937l1.469.304c.117-.565.584-1.305 1.476-2.154.875-.832 2.085-1.698 3.543-2.524 2.913-1.652 6.736-3.1 10.641-3.804l-.266-1.476Zm8.823-5.767a2.18 2.18 0 0 1-.006 1.418c-.166.477-.522.999-1.167 1.53-1.308 1.075-3.709 2.11-7.65 2.819l.266 1.476c4.04-.727 6.738-1.822 8.337-3.137.807-.664 1.355-1.402 1.63-2.195.28-.8.263-1.608.018-2.37l-1.428.459Zm-.698-1.816c.285.695.533 1.303.698 1.816l1.428-.46c-.187-.58-.46-1.247-.737-1.924l-1.389.568Zm-1.5-5.822c-.067.97.145 2.006.442 2.984.298.983.703 1.97 1.058 2.838l1.389-.568c-.361-.88-.737-1.802-1.012-2.706-.276-.91-.43-1.743-.381-2.446l-1.497-.102Zm-2.896.548c1.201.03 2.388.113 3.557.248l.173-1.49a40.698 40.698 0 0 0-3.693-.258l-.037 1.5ZM37.796 59.54c.517-21.374 18.264-38.282 39.638-37.765l.037-1.5c-22.203-.537-40.637 17.026-41.175 39.229l1.5.036Zm21.53 35.644c-13.07-6.477-21.906-20.102-21.53-35.644l-1.5-.036c-.39 16.146 8.791 30.298 22.365 37.024l.666-1.344Zm.884-3.902c.033 2.054-.779 3.273-1.68 3.985l.928 1.178c1.264-.997 2.293-2.658 2.252-5.187l-1.5.024Zm-3.098-5.213c.803 1.347 1.6 2.685 2.198 3.713.299.515.544.946.714 1.26a8.161 8.161 0 0 1 .216.426c.016.042-.028-.05-.03-.186l1.5-.024c-.003-.163-.06-.302-.068-.324a2.549 2.549 0 0 0-.078-.178 9.623 9.623 0 0 0-.221-.429c-.18-.334-.435-.78-.736-1.298a426.373 426.373 0 0 0-2.206-3.728l-1.289.768Zm-3.364-6.071c0 .17.06.314.067.336.023.06.05.122.079.18.056.12.134.27.225.439.184.34.444.797.75 1.325.615 1.058 1.432 2.429 2.243 3.79l1.289-.767c-.813-1.365-1.625-2.727-2.234-3.776a52.243 52.243 0 0 1-.728-1.285 8.354 8.354 0 0 1-.22-.436c-.017-.044.03.054.03.196l-1.5-.002Zm2.272-3.161c-.623.19-1.212.512-1.639 1.063-.429.554-.632 1.26-.633 2.098l1.5.002c.001-.597.142-.953.32-1.182.18-.232.46-.415.89-.547l-.438-1.434Zm4.738-1.2c-1.654.381-3.292.758-4.738 1.2l.439 1.434c1.385-.423 2.969-.788 4.635-1.172l-.336-1.462Zm12.477-7.78c-.01 2.352-1.444 3.92-3.811 5.12-2.392 1.211-5.552 1.943-8.666 2.66l.336 1.462c3.063-.705 6.42-1.473 9.008-2.784 2.611-1.323 4.619-3.297 4.633-6.452l-1.5-.007Z" fill="#000"/><path d="M95.885 13.854a49.702 49.702 0 0 1 30.484 47.4 49.717 49.717 0 0 1-4.567 19.306 49.688 49.688 0 0 1-28.825 26.09 49.702 49.702 0 0 1-38.79-2.646l2.308-4.543a44.594 44.594 0 0 0 34.812 2.376 44.602 44.602 0 0 0 2.61-83.282l1.968-4.7Z" fill="#000" stroke="#000" stroke-width="1.5"/><path d="M90.937 72.926c-.816-3.14 5.437-3.14 8.666-2.748 4.078 1.57 2.549 4.318 0 6.673-2.55 2.355-6.117 9.028-8.666 7.458-2.55-1.57 1.02-7.458 0-11.383Z" fill="#fff" stroke="#000" stroke-width="1.5"/><circle cx="56.562" cy="35.707" r="11.1" transform="rotate(-5.55 56.562 35.707)" fill="#EBF3FF"/><path fill-rule="evenodd" clip-rule="evenodd" d="M65.479 66.72c2.928-.823 12.815-25.617 9.938-35.86a19.176 19.176 0 0 0-6.281-9.65 19.375 19.375 0 0 0-4.948-2.963 19.181 19.181 0 0 0-12.527-.726c-10.243 2.877-16.215 13.513-13.338 23.756C41.2 51.52 62.55 67.542 65.48 66.72Zm-6.14-21.867a9.125 9.125 0 1 0-4.935-17.57 9.125 9.125 0 0 0 4.934 17.57Z" fill="#000"/><mask id="ata" fill="#fff"><path fill-rule="evenodd" clip-rule="evenodd" d="M64.02 64.395c2.928-.822 12.815-25.617 9.938-35.86a19.176 19.176 0 0 0-6.281-9.648 19.373 19.373 0 0 0-4.948-2.964 19.18 19.18 0 0 0-12.527-.726C39.96 18.074 33.987 28.71 36.864 38.953c2.877 10.243 24.227 26.265 27.156 25.442ZM57.877 42.53a9.125 9.125 0 1 0-4.934-17.57 9.125 9.125 0 0 0 4.934 17.57Z"/></mask><path fill-rule="evenodd" clip-rule="evenodd" d="M64.02 64.395c2.928-.822 12.815-25.617 9.938-35.86a19.176 19.176 0 0 0-6.281-9.648 19.373 19.373 0 0 0-4.948-2.964 19.18 19.18 0 0 0-12.527-.726C39.96 18.074 33.987 28.71 36.864 38.953c2.877 10.243 24.227 26.265 27.156 25.442ZM57.877 42.53a9.125 9.125 0 1 0-4.934-17.57 9.125 9.125 0 0 0 4.934 17.57Z" fill="#fff"/><path d="m67.677 18.887-.954 1.157.954-1.157Zm-4.948-2.964.571-1.387-.57 1.387Zm9.785 13.018c.632 2.25.592 5.467.033 9.18-.552 3.674-1.586 7.675-2.807 11.41-1.221 3.736-2.615 7.163-3.87 9.686-.63 1.266-1.208 2.269-1.692 2.96-.244.347-.44.581-.586.724-.174.172-.163.102.022.05l.811 2.888c.552-.155.983-.515 1.273-.801a8.32 8.32 0 0 0 .935-1.138c.606-.862 1.259-2.012 1.922-3.346 1.333-2.678 2.78-6.244 4.037-10.09 1.257-3.846 2.338-8.015 2.922-11.897.578-3.843.694-7.567-.112-10.438l-2.888.812Zm-5.791-8.897a17.676 17.676 0 0 1 5.79 8.897l2.89-.811a20.675 20.675 0 0 0-6.773-10.4l-1.907 2.314Zm-4.565-2.734c1.648.678 3.188 1.6 4.565 2.734l1.907-2.315a20.875 20.875 0 0 0-5.33-3.193l-1.142 2.774Zm-11.55-.669a17.682 17.682 0 0 1 11.55.669l1.142-2.774a20.682 20.682 0 0 0-13.503-.783l.81 2.888Zm-12.3 21.907c-2.652-9.446 2.854-19.254 12.3-21.907l-.811-2.888C38.755 16.854 32.319 28.318 35.42 39.36l2.888-.812ZM63.614 62.95c.186-.052.231.002-.007-.054a5.437 5.437 0 0 1-.877-.314c-.774-.337-1.789-.892-2.986-1.645-2.385-1.5-5.36-3.7-8.347-6.254-2.987-2.554-5.953-5.432-8.338-8.281-2.41-2.88-4.118-5.605-4.75-7.855l-2.889.81c.806 2.871 2.845 5.99 5.339 8.97 2.52 3.01 5.613 6.007 8.689 8.636 3.076 2.63 6.168 4.92 8.699 6.513 1.261.794 2.418 1.435 3.383 1.856.481.21.953.382 1.39.485.398.093.954.176 1.505.021l-.81-2.888Zm-.863-31.27a7.625 7.625 0 0 1-5.28 9.404l.812 2.888c5.65-1.587 8.943-7.453 7.356-13.102l-2.888.81Zm-9.403-5.279a7.625 7.625 0 0 1 9.403 5.28l2.889-.811c-1.587-5.65-7.453-8.944-13.103-7.357l.811 2.889Zm-5.28 9.404a7.625 7.625 0 0 1 5.28-9.403l-.811-2.889c-5.65 1.587-8.943 7.453-7.356 13.103l2.888-.811Zm9.404 5.279a7.625 7.625 0 0 1-9.403-5.28l-2.889.812c1.587 5.65 7.453 8.943 13.103 7.356l-.811-2.888Z" fill="#000" mask="url(#ata)"/></svg><svg fill="none" viewBox="0 0 193 291" id="line_mission" xmlns="http://www.w3.org/2000/svg"><path d="M192.676 10.34c-163.733-44.763-196.66 90.443-217 173.001-20.338 82.558-105.893-40.174-138.5-60-20.138-9.923-164.5 179.499-416 165.999" stroke="#000" stroke-width="1.5"/></svg><svg fill="none" viewBox="0 0 36 36" id="phone" xmlns="http://www.w3.org/2000/svg"><path d="M20.385 1.666c6.398.876 11.832 5.681 13.543 11.984.729 2.687.763 5.69.095 8.35-1.372 5.445-5.46 9.866-10.773 11.643-4.54 1.523-9.576.998-13.612-1.427-.374-.219-.712-.403-.747-.403-.026 0-1.45.447-3.16.998-1.702.543-3.099.963-3.099.92 0-.035.452-1.41 1.007-3.047l1.007-2.976-.452-.683c-.564-.857-1.476-2.722-1.814-3.711-2.647-7.738.851-16.3 8.195-20.046 3.03-1.54 6.32-2.074 9.81-1.602Z" stroke="#000" stroke-width="1.5"/><path d="M11.004 9.182c-.633.338-1.506 1.654-1.826 2.754-.064.216-.144.788-.168 1.264-.056 1.108.144 2.07.696 3.317.409.917 1.354 2.459 2.291 3.723 1.642 2.225 3.669 4.044 5.591 5.04 1.498.77 3.804 1.592 4.782 1.705 1.337.147 3.372-.814 4.085-1.94.464-.727.72-2.51.408-2.822-.16-.156-3.196-1.758-3.796-2.009-.209-.086-.465-.13-.57-.095-.12.026-.432.373-.785.849-.864 1.176-1.289 1.626-1.521 1.626-.313 0-1.867-.813-2.74-1.437-1.113-.797-2.546-2.355-3.323-3.61-.32-.512-.577-1.03-.577-1.143 0-.122.208-.46.56-.9.513-.65.961-1.42.961-1.663 0-.052-.368-1.057-.817-2.234-.528-1.369-.897-2.217-1.033-2.373-.208-.225-.248-.234-1.049-.234-.68 0-.889.035-1.169.182Z" stroke="#000" stroke-width="1.5"/></svg><svg fill="none" viewBox="0 0 22 12" id="select-arrow" xmlns="http://www.w3.org/2000/svg"><path d="m1 1 10 10L21 1" stroke="#000" stroke-width="2" stroke-linecap="round" stroke-linejoin="round"/></svg><svg fill="none" viewBox="0 0 1920 353" id="shape-achievements" xmlns="http://www.w3.org/2000/svg"><path d="M2109.7 5.356c-251.5-13.5-395.86 175.922-416 166-32.6-19.826-118.16-142.558-138.5-60-74.31 301.634-372.98 124.736-582.2 60M-291.797 337.356c163.733 44.764 196.66-90.443 217-173.001 20.339-82.558 105.894 40.174 138.5 60.001C83.84 234.278 261 11 641.5 88.5M752.62 149.825c4.125-2.108 6.562-6.003 8.895-11.773 1.844 4.6 4.217 9.171 9.129 11.721-4.603 3.074-6.614 5.066-9.399 12.271-.18-3.281-3.713-9.669-8.625-12.219ZM782.911 119.615c11.112-6.498 17.52-18.414 23.537-36.042 5.29 13.985 12.018 27.872 25.544 35.556-12.354 9.453-17.715 15.558-24.877 37.569-.684-9.996-10.678-29.399-24.204-37.083Z" stroke="#000" stroke-width="1.5"/></svg><svg fill="none" viewBox="0 0 1920 350" id="shape-contacts" xmlns="http://www.w3.org/2000/svg"><path d="M2019.88 4.546c-251.52-11.458-395.9 149.311-416.03 140.889-32.61-16.827-118.17-120.994-138.51-50.924-24.54 84.534-115.71 144.822-230.72 153.835M-196.864 181.52c18.9-59.047 95.494 28.125 124.851 42.108 18.147 6.978 184.427-153.747 527.97-100.418 134.286 21.359 245.098 46.376 508.008 114.839M1055.72 275.206c4.13-2.111 6.57-6.011 8.9-11.79 1.84 4.607 4.22 9.184 9.13 11.738-4.6 3.079-6.62 5.073-9.4 12.288-.18-3.285-3.71-9.682-8.63-12.236ZM1086.02 244.956c11.11-6.508 17.52-18.44 23.53-36.093 5.29 14.005 12.02 27.912 25.55 35.606-12.36 9.466-17.72 15.58-24.88 37.621-.68-10.01-10.68-29.44-24.2-37.134Z" stroke="#000" stroke-width="1.5"/></svg><svg fill="none" viewBox="0 0 120 111" id="star-princ" xmlns="http://www.w3.org/2000/svg"><path d="m60 55.524 58-15.143M60 55.524 2 40.38m58 15.143L23.09 106M60 55.524 96.91 106M60 55.524V0" stroke="#000" stroke-width="14"/></svg><svg fill="none" viewBox="0 0 85 82" id="stars1" xmlns="http://www.w3.org/2000/svg"><path d="M2.62 69.239c4.125-2.108 6.562-6.004 8.895-11.774 1.844 4.6 4.216 9.171 9.129 11.722-4.603 3.074-6.614 5.065-9.399 12.27-.18-3.28-3.713-9.668-8.626-12.218ZM32.91 39.029C44.024 32.53 50.43 20.614 56.449 2.986c5.29 13.986 12.018 27.873 25.544 35.556-12.355 9.453-17.715 15.559-24.878 37.57-.683-9.997-10.677-29.4-24.203-37.083Z" stroke="#000" stroke-width="1.5"/></svg><svg fill="none" viewBox="0 0 160 130" id="trust" xmlns="http://www.w3.org/2000/svg"><path d="M74.367 99.193a32.69 32.69 0 0 0 26.497 16.916 32.682 32.682 0 0 0 23.221-57.618 32.689 32.689 0 0 0-14.619-7.041l-6.43 32.046-28.67 15.697Z" fill="#000"/><path d="M72.668 95.122A31.937 31.937 0 0 0 83.13 106.01a32.067 32.067 0 0 0 15.065 4.94 32.026 32.026 0 0 0 15.582-2.882 31.836 31.836 0 0 0 12.257-9.992 31.683 31.683 0 0 0 4.025-30.318 31.886 31.886 0 0 0-9.224-12.856 32.039 32.039 0 0 0-13.554-6.707l-6.254 31.17-.069.343-.308.168-27.983 15.246Z" fill="#fff" stroke="#000" stroke-width="1.5"/><path d="M99.04 104.074a24.652 24.652 0 0 0 11.998-2.22 24.513 24.513 0 0 0 9.439-7.695 24.403 24.403 0 0 0 3.1-23.351 24.55 24.55 0 0 0-7.103-9.9" stroke="#000" stroke-width="1.5"/><mask id="bba" fill="#fff"/><path d="m90.03 102.937.772 1.285.727-.437v-.848h-1.5Zm-80.03 0H8.5v.848l.727.437.773-1.285ZM50.015 127l-.773 1.285.773.465.773-.465-.773-1.285Zm38.514-92.895v68.832h3V34.105h-3ZM11.5 102.937V34.105h-3v68.832h3Zm77.756-1.286-40.014 24.064 1.546 2.57 40.014-24.063-1.546-2.571Zm-38.468 24.064-40.015-24.064-1.546 2.571 40.015 24.063 1.546-2.57ZM10.725 35.418a81.254 81.254 0 0 1 78.579 0l1.45-2.626a84.254 84.254 0 0 0-81.48 0l1.451 2.626Z" fill="#000" mask="url(#bba)"/><mask id="bbb" fill="#fff"/><path d="m85 98.866.775 1.284.725-.437v-.847H85Zm-70 0h-1.5v.847l.725.437.775-1.284ZM50 120l-.775 1.284.775.468.775-.468L50 120Zm33.5-81.586v60.452h3V38.414h-3Zm-67 60.452V38.414h-3v60.452h3Zm67.725-1.284-35 21.134 1.55 2.568 35-21.134-1.55-2.568Zm-33.45 21.134-35-21.134-1.55 2.568 35 21.134 1.55-2.568Zm-35.047-78.99a70.657 70.657 0 0 1 68.544 0l1.456-2.624a73.657 73.657 0 0 0-71.456 0l1.456 2.623Z" fill="#000" mask="url(#bbb)"/><path fill-rule="evenodd" clip-rule="evenodd" d="M47.044 55.16a6.786 6.786 0 0 1 1.043-.292h-.007c.407-.072.914-.093 1.842-.079.993.022 1.407.065 1.822.172.292.078.714.214.928.3.214.085.507.22.643.3.135.085.421.285.635.442.215.164.522.485.693.72.164.236.379.608.464.822.143.335.165.514.165 1.25 0 .663-.036.948-.143 1.248a5.52 5.52 0 0 1-.386.814 5.226 5.226 0 0 1-.664.835 5.492 5.492 0 0 1-.893.736 7.697 7.697 0 0 1-.836.47c-.2.094-.614.25-.928.358a7.225 7.225 0 0 1-.878.242c-.165.022-.3.058-.3.079 0 .02.05.109.109.213l.012.023a76.828 76.828 0 0 0 2.314 3.227 58.014 58.014 0 0 0 1.585 1.998c.415.493.929 1.07 1.543 1.678l.243-.393c.136-.214.329-.564.436-.764.1-.207.271-.678.371-1.035.157-.55.186-.771.164-1.27-.028-.465-.078-.7-.221-1a2.376 2.376 0 0 0-.536-.7c-.185-.164-.485-.35-.664-.407-.178-.064-.443-.107-.857-.107v-.714h3.502V54.93h7.983c5.49 0 9.942 4.451 9.942 9.942 0 5.491-4.451 9.942-9.942 9.942H57.15l.007-.004a6.151 6.151 0 0 1-.843-.047 7.634 7.634 0 0 1-1.392-.307c-.357-.121-.85-.328-1.572-.728l-.607.257c-.335.136-.757.3-.95.364-.185.064-.55.164-.82.221-.265.058-.772.136-1.122.179-.357.036-.936.071-1.286.071-.357 0-.95-.035-1.32-.071a18.044 18.044 0 0 1-1.25-.186 13.56 13.56 0 0 1-1.215-.328 11.154 11.154 0 0 1-1.142-.464 8.408 8.408 0 0 1-.929-.557 7.243 7.243 0 0 1-1.044-.962 10.092 10.092 0 0 1-6.723 2.563c-5.49 0-9.942-4.451-9.942-9.942 0-5.491 4.451-9.942 9.942-9.942h.242c2.221 0 4.392.657 6.24 1.889l-1.933 2.898a7.765 7.765 0 0 0-4.306-1.304h-.243a6.459 6.459 0 1 0 0 12.918 6.617 6.617 0 0 0 5.284-2.633h-2.744v-3.484h5.876c.128-.067.25-.128.35-.175.272-.121.765-.3 1.086-.4.329-.092.593-.185.593-.206 0-.022-.136-.3-.307-.621a20.206 20.206 0 0 1-.564-1.2c-.143-.335-.35-.913-.45-1.285-.121-.435-.2-.95-.229-1.427-.028-.622-.007-.864.115-1.393.085-.356.278-.87.421-1.142.164-.307.457-.7.764-1.006.279-.286.707-.621.964-.764a8.6 8.6 0 0 1 .943-.435Zm14.467 16.218v-.047h4.717a6.459 6.459 0 0 0 0-12.918h-4.5v5.913h.01v.816a3.803 3.803 0 0 0-.532.213c-.278.135-.735.456-1.014.7-.285.249-.714.677-.957.948a18.25 18.25 0 0 0-.735.893c-.172.214-.707.985-1.193 1.706a74.539 74.539 0 0 1-.979 1.428c-.078.1-.02.171.465.55.307.242.735.535.95.649.214.121.571.278.785.35.229.071.6.128.893.128.393 0 .593-.043.907-.192.228-.108.564-.343.743-.529.14-.144.291-.352.44-.609ZM47.958 55.873c.1-.114.307-.27.465-.342.22-.1.407-.129.82-.107.415.014.608.064.858.207.178.1.45.32.6.492.157.172.371.507.485.743.108.235.25.67.315.963.085.407.107.771.078 1.5-.028.67-.086 1.113-.185 1.463a7.41 7.41 0 0 1-.379.956c-.143.279-.393.6-.643.836-.228.214-.443.385-.485.385-.043 0-.293-.378-.565-.835a23.616 23.616 0 0 1-.885-1.663 15.75 15.75 0 0 1-.622-1.5c-.192-.55-.235-.82-.264-1.463-.028-.65-.014-.842.093-1.106.072-.179.214-.414.314-.529Zm-2.592 10.237c.093-.214.243-.5.328-.628.086-.121.172-.229.186-.229.021 0 .343.472.707 1.05.371.585.914 1.392 1.214 1.806.3.414.85 1.135 1.221 1.606.379.464 1.036 1.22 1.472 1.663.435.45 1.042 1.028 1.357 1.285l.215.176c.228.187.42.343.463.381.093.079.064.107-.179.207a8.328 8.328 0 0 1-.857.257c-.385.093-.828.136-1.357.136-.564 0-.95-.043-1.356-.143a6.661 6.661 0 0 1-1.072-.414 5.216 5.216 0 0 1-.985-.728 5.843 5.843 0 0 1-.807-.964 6.88 6.88 0 0 1-.5-1.035c-.1-.293-.229-.77-.286-1.056-.057-.279-.1-.878-.1-1.321 0-.435.036-.992.079-1.228.042-.236.157-.607.257-.82Z" fill="#000"/><path d="M30.804 87.99c-.482 0-.895-.097-1.24-.29a1.994 1.994 0 0 1-.788-.826c-.184-.359-.276-.781-.276-1.267 0-.485.092-.905.276-1.26.183-.354.446-.628.787-.82.346-.197.76-.296 1.24-.296.324 0 .615.046.873.138.263.092.488.228.677.407l-.276.67a2.12 2.12 0 0 0-.597-.355 1.757 1.757 0 0 0-.65-.111c-.468 0-.827.142-1.076.426-.245.28-.368.68-.368 1.201s.123.924.367 1.208c.25.284.609.427 1.077.427.245 0 .462-.035.65-.106.192-.074.391-.196.597-.367l.276.67a1.98 1.98 0 0 1-.677.406c-.258.097-.549.145-.872.145ZM33.042 85.607c0-.485.088-.905.263-1.26.18-.354.435-.628.768-.82.332-.197.728-.296 1.188-.296.455 0 .848.099 1.181.296.333.192.589.466.768.82.184.355.276.772.276 1.254 0 .485-.092.908-.276 1.266-.18.355-.435.63-.768.827-.333.197-.726.296-1.181.296-.46 0-.856-.099-1.188-.296a1.988 1.988 0 0 1-.761-.827c-.18-.358-.27-.778-.27-1.26Zm.886 0c0 .521.112.928.335 1.221.223.293.556.44.998.44.428 0 .759-.147.99-.44.233-.293.349-.7.349-1.22 0-.526-.116-.933-.348-1.222-.228-.288-.558-.433-.991-.433-.442 0-.775.145-.998.433-.223.29-.335.696-.335 1.221ZM38.556 87.924v-4.627h.637l2.684 3.472h-.17v-3.472h.787v4.627h-.637l-2.677-3.472h.164v3.472h-.788ZM45.322 87.99c-.372 0-.716-.046-1.03-.138a2.635 2.635 0 0 1-.801-.394l.262-.663c.149.105.304.195.466.27.162.07.335.124.519.163.184.035.378.053.584.053.345 0 .595-.057.748-.17a.53.53 0 0 0 .23-.447c0-.162-.053-.285-.158-.368-.105-.087-.293-.16-.564-.216l-.742-.151c-.424-.088-.742-.234-.951-.44-.21-.206-.316-.481-.316-.827 0-.289.077-.54.23-.755.153-.214.368-.38.643-.498.276-.119.598-.178.965-.178.328 0 .632.049.912.145.28.092.514.225.703.4l-.263.63a1.883 1.883 0 0 0-.617-.348 2.236 2.236 0 0 0-.748-.118c-.31 0-.553.061-.728.184a.566.566 0 0 0-.256.492.5.5 0 0 0 .157.388c.11.096.293.17.551.223l.735.144c.438.088.762.232.972.433.21.197.315.464.315.8 0 .276-.075.52-.223.73a1.489 1.489 0 0 1-.63.485c-.272.114-.593.17-.965.17ZM50.064 87.99c-.66 0-1.153-.164-1.477-.493-.32-.332-.479-.822-.479-1.47v-2.73h.847v2.724c0 .411.087.722.262.932.18.21.462.315.847.315.367 0 .643-.105.827-.315.188-.21.282-.521.282-.932v-2.724h.834v2.73c0 .648-.164 1.138-.493 1.47-.324.329-.807.493-1.45.493ZM53.19 87.924v-4.627h.846v3.912h2.179v.715h-3.026ZM57.296 87.924v-3.931h-1.53v-.696h3.906v.696h-1.53v3.931h-.846ZM60.467 87.924v-4.627h.846v4.627h-.846ZM62.529 87.924v-4.627h.636l2.685 3.472h-.171v-3.472h.788v4.627h-.637l-2.678-3.472h.164v3.472h-.787ZM69.912 87.99c-.521 0-.959-.097-1.313-.29a1.883 1.883 0 0 1-.8-.82c-.18-.354-.27-.774-.27-1.26 0-.49.096-.912.289-1.266.192-.359.468-.635.827-.827.363-.197.798-.296 1.306-.296.337 0 .632.046.886.138.254.088.477.217.67.388l-.283.656a2.593 2.593 0 0 0-.4-.263 1.451 1.451 0 0 0-.394-.138 2.156 2.156 0 0 0-.473-.046c-.507 0-.892.145-1.155.434-.258.284-.387.693-.387 1.227 0 .534.123.94.368 1.22.249.28.638.42 1.168.42.18 0 .359-.017.538-.052.184-.035.363-.085.538-.15l-.157.354v-1.385h-1.083v-.617h1.785v2.225c-.215.11-.47.195-.768.256a4.412 4.412 0 0 1-.892.092ZM65.524 4.464a.5.5 0 0 1 .95 0l.76 2.336a.5.5 0 0 0 .476.346h2.457a.5.5 0 0 1 .294.904l-1.988 1.445a.5.5 0 0 0-.182.559l.76 2.336a.5.5 0 0 1-.77.56l-1.988-1.445a.5.5 0 0 0-.588 0l-1.987 1.444a.5.5 0 0 1-.77-.559l.76-2.336a.5.5 0 0 0-.182-.56L61.538 8.05a.5.5 0 0 1 .294-.904h2.457a.5.5 0 0 0 .476-.346l.759-2.336ZM77.524 4.464a.5.5 0 0 1 .95 0l.76 2.336a.5.5 0 0 0 .476.346h2.457a.5.5 0 0 1 .294.904l-1.988 1.445a.5.5 0 0 0-.182.559l.76 2.336a.5.5 0 0 1-.77.56l-1.988-1.445a.5.5 0 0 0-.588 0l-1.987 1.444a.5.5 0 0 1-.77-.559l.76-2.336a.5.5 0 0 0-.182-.56L73.538 8.05a.5.5 0 0 1 .294-.904h2.457a.5.5 0 0 0 .476-.346l.759-2.336ZM89.927 4.363a.5.5 0 0 1 .944 0l.848 2.447a.5.5 0 0 0 .473.336h2.671a.5.5 0 0 1 .282.913L93.04 9.493a.5.5 0 0 0-.19.577l.816 2.356a.5.5 0 0 1-.754.577l-2.232-1.52a.5.5 0 0 0-.563 0l-2.231 1.52a.5.5 0 0 1-.754-.577l.817-2.356a.5.5 0 0 0-.191-.577l-2.105-1.434a.5.5 0 0 1 .281-.913h2.672a.5.5 0 0 0 .473-.336l.848-2.447ZM102.324 4.464a.5.5 0 0 1 .951 0l.759 2.336a.5.5 0 0 0 .476.346h2.457a.5.5 0 0 1 .294.904l-1.988 1.445a.499.499 0 0 0-.182.559l.759 2.336a.5.5 0 0 1-.769.56l-1.988-1.445a.5.5 0 0 0-.588 0l-1.987 1.444a.5.5 0 0 1-.77-.559l.759-2.336a.5.5 0 0 0-.181-.56L98.338 8.05a.5.5 0 0 1 .294-.904h2.457a.5.5 0 0 0 .475-.346l.76-2.336ZM114.324 4.464a.5.5 0 0 1 .951 0l.759 2.336a.5.5 0 0 0 .476.346h2.457a.5.5 0 0 1 .294.904l-1.988 1.445a.499.499 0 0 0-.182.559l.759 2.336a.5.5 0 0 1-.769.56l-1.988-1.445a.5.5 0 0 0-.588 0l-1.987 1.444a.5.5 0 0 1-.77-.559l.759-2.336a.5.5 0 0 0-.181-.56l-1.988-1.444a.5.5 0 0 1 .294-.904h2.457a.5.5 0 0 0 .475-.346l.76-2.336ZM100 25h48v2h-48v-2ZM100 31h23v2h-23v-2Z" fill="#000"/></svg></svg>