<?xml version="1.0" encoding="utf-8"?><svg viewBox="0 0 654 574" xmlns="http://www.w3.org/2000/svg" xmlns:xlink="http://www.w3.org/1999/xlink"><style>:root>svg{display:none}:root>svg:target{display:block}</style><svg fill="none" viewBox="0 0 654 450" id="doc_line_mission" xmlns="http://www.w3.org/2000/svg"><path d="M924.861 60.857c-163.733-44.764-196.661 90.442-217 173s-105.894-40.174-138.5-60C549.223 163.935 435 363.001 32.5 334.501" stroke="#000" stroke-width="1.5"/><circle cx="26" cy="334" r="7" stroke="#000" stroke-width="1.5"/><rect x="210.64" y="254.661" width="152.646" height="152.646" rx="10" transform="rotate(-12.262 210.64 254.661)" fill="#F6F6F6" stroke="#000" stroke-width="1.5"/><rect x="512.147" y="90.856" width="152.646" height="152.646" rx="10" transform="rotate(22.042 512.147 90.856)" fill="#EBF3FF" stroke="#000" stroke-width="1.5"/><path d="m386.769 268.991-99.725-23.033c-8.184 59.542-40.721 117.09-55.966 138.421 25.071 7.747 80.756 24.817 102.921 31.121 33.485-58.269 49.132-121.952 52.77-146.509Z" fill="#fff" stroke="#000" stroke-width="1.5"/><path d="m335.672 353.612-19.839 36.238-10.655-3.05-7.104-2.033-9.945-2.846-7.104-2.034-9.59-2.745 10.649-18.3 9.236 2.627-10.295 18.418 7.104 2.034 16.527-27.708 9.235 2.627-15.817 27.927 7.104 2.033 19.82-35.887 10.674 2.699Z" fill="#000"/><path d="M278.567 342.812c-3.396 10.206-12.563 25.309-16.722 31.586l9.59 2.744m51.502 14.742-7.104-2.034m0 0 19.839-36.238-10.674-2.699-19.82 35.887m10.655 3.05-10.655-3.05m0 0-7.104-2.033m0 0 15.817-27.927-9.235-2.627-16.527 27.708m9.945 2.846-9.945-2.846m0 0-7.104-2.034m0 0 10.295-18.418-9.236-2.627-10.649 18.3m9.59 2.745-9.59-2.745M293.649 272.233l71.191 17.274M288.252 293.578l69.789 16.483M282.924 313.487l69.034 17.165" stroke="#000" stroke-width="1.5"/><path d="m533.518 238.31-25.82-48.572s15.731-26.351 50.177-40.169c33.553-13.458 31.394 7.412 92.834-25.68l21.473 53.475c-56.008 25.648-53.667 13.131-85.753 24.963-25.669 9.466-45.969 27.933-52.911 35.983Z" fill="#fff" stroke="#000" stroke-width="1.5"/><path d="m541.105 215.266-25.82-48.572s15.731-26.351 50.177-40.169c33.553-13.458 31.394 7.412 92.834-25.68l21.473 53.475c-56.008 25.649-53.667 13.131-85.753 24.963-25.669 9.466-45.97 27.933-52.911 35.983Z" fill="#fff" stroke="#000" stroke-width="1.5"/><ellipse cx="594.329" cy="148.614" rx="20.511" ry="12.697" transform="rotate(-21.879 594.329 148.614)" fill="#000" stroke="#000" stroke-width="1.5"/><path d="M639.075 110.647c3.216 8.009 13.128 11.569 22.138 7.951a19.838 19.838 0 0 0 3.481-1.815M527.287 152.025c1.958 1.527 3.521 3.526 4.483 5.923 3.168 7.887-1.34 17.149-10.085 20.884M532.491 199.058c1.996-3.002 5.002-5.518 8.756-7.026 7.794-3.13 16.262-.889 20.488 4.957M673.72 139.253a19.696 19.696 0 0 0-3.77 1.097c-9.01 3.618-13.707 13.043-10.491 21.052.187.466.397.917.628 1.353" stroke="#000" stroke-width="1.5"/></svg><svg fill="none" viewBox="0 0 382 574" id="document_mission" xmlns="http://www.w3.org/2000/svg"><path d="M25.585 233.277-72.67 271.87l26.043 70.702L54.599 305.09l-29.013-71.813Z" fill="#F6F6F6" stroke="#000" stroke-width="1.5"/><path d="m-43.67 330.131 9.073-28.778 27.667 12.044 12.77-47.715 14.299 7.042 19.386-138.291m0 0 8.549 13.358m-8.55-13.358-13.357 8.549m46.299-12.391 11.306-21.17m-79.785 41.27-21.17-11.306" stroke="#000" stroke-width="1.5"/><path d="M67.404 149.237 194.49 100.89l8.231 22.129M13.84 169.615l-131.287 49.945 8.333 22.083m0 0 69.046 182.968 311.381-117.185-68.592-184.407m-311.835 118.624L9.99 196.335m192.731-73.316L56.204 178.755M123.644 61.686c6.305-7.801 7.689-18.29 7.213-32.86 7.71 8.81 16.441 17.156 28.415 19.096-6.396 10.307-8.618 16.249-7.769 34.346-3.254-7.144-15.885-18.642-27.859-20.582ZM59.372 525.305c6.305-7.801 7.69-18.29 7.214-32.861 7.71 8.811 16.44 17.158 28.415 19.097-6.396 10.307-8.619 16.249-7.77 34.346-3.253-7.144-15.885-18.642-27.859-20.582ZM52.958 225.737l74.784-27.902M60.68 248.099l75.804-28.367M70.35 272.036l74.783-27.902M78.071 294.398l75.804-28.366" stroke="#000" stroke-width="1.5"/><path d="m-26.357 392.487-9.671-23.937 199.018-77.096 9.115 25.423-198.462 75.61Z" stroke="#000" stroke-width="1.5"/><circle cx="292.567" cy="232.504" r="2.243" transform="rotate(-24.489 292.567 232.504)" stroke="#000" stroke-width="1.5"/><circle cx="78.903" cy="409.853" r="4.486" transform="rotate(-24.489 78.903 409.853)" stroke="#000" stroke-width="1.5"/><mask id="aa" fill="#fff"><path d="M176.211 241.008c-22.688-17.537-26.864-50.146-9.327-72.835 17.537-22.688 50.147-26.864 72.835-9.327 22.688 17.538 26.864 50.147 9.327 72.836-17.537 22.688-50.147 26.864-72.835 9.326Zm44.198-57.18c-8.891-6.872-21.67-5.236-28.543 3.655-6.873 8.892-5.236 21.671 3.655 28.544 8.891 6.872 21.67 5.236 28.543-3.655 6.873-8.892 5.236-21.671-3.655-28.544Z"/></mask><path d="M176.211 241.008c-22.688-17.537-26.864-50.146-9.327-72.835 17.537-22.688 50.147-26.864 72.835-9.327 22.688 17.538 26.864 50.147 9.327 72.836-17.537 22.688-50.147 26.864-72.835 9.326Zm44.198-57.18c-8.891-6.872-21.67-5.236-28.543 3.655-6.873 8.892-5.236 21.671 3.655 28.544 8.891 6.872 21.67 5.236 28.543-3.655 6.873-8.892 5.236-21.671-3.655-28.544Z" fill="#fff" stroke="#000" stroke-width="3" mask="url(#aa)"/><mask id="ab" fill="#fff"><path d="M175.72 159.231a51.918 51.918 0 0 0-18.095 53.417l30.623-7.738a20.34 20.34 0 0 1 7.087-20.922l-19.615-24.757Z"/></mask><path d="M175.72 159.231a51.918 51.918 0 0 0-18.095 53.417l30.623-7.738a20.34 20.34 0 0 1 7.087-20.922l-19.615-24.757Z" fill="#EBF3FF" stroke="#000" stroke-width="3" mask="url(#ab)"/><path d="M156.463 206.523a51.917 51.917 0 0 0 37.886 43.51 51.92 51.92 0 0 0 54.697-18.351l-24.397-18.859a21.092 21.092 0 0 1-22.214 7.453 21.089 21.089 0 0 1-15.386-17.67l-30.586 3.917Z" fill="#000"/></svg><svg viewBox="0 0 412 177" id="hero_body" xmlns="http://www.w3.org/2000/svg"><path d="M.5.5H320c50.534 0 91.5 40.966 91.5 91.5v84.5H.5V.5Z" stroke="#000"/></svg><svg fill="none" viewBox="0 0 190 155" id="ic1_benefits" xmlns="http://www.w3.org/2000/svg"><g clip-path="url(#da)"><path d="M70.622 97.168c20-4 16.5-13 16.5-28.5s-10-59.5 35.5-41.5" stroke="#000" stroke-width="1.5"/><rect x="9.146" y="89.392" width="66.668" height="66.668" rx="10" transform="rotate(-15.14 9.146 89.392)" fill="#000"/><rect x="2.462" y="85.555" width="66.668" height="66.668" rx="10" transform="rotate(-15.14 2.462 85.555)" fill="#fff" stroke="#000" stroke-width="1.5"/><path d="M21.96 122.908c-4.35 8.411 1.136 15.292 4.423 17.681l43.349-25.551c-5.002-9.14-10.484-7.054-14.2-10.503-3.714-3.449-2.381-11.03-3.44-12.964-1.058-1.933-4.411-10.148-14.719-5.192-10.307 4.955-8.267 11.605-8.127 20.208.14 8.603-1.847 5.807-7.285 16.321Z" fill="#000" stroke="#000" stroke-width="1.5"/><path fill-rule="evenodd" clip-rule="evenodd" d="M81.521 128.399a9.991 9.991 0 0 1-6.946 6.709l-45.048 12.189a9.983 9.983 0 0 1-3.054.34l-.183-6.699c-.177-6.501 1.297-13.048 5.89-17.343a43.46 43.46 0 0 1 13.047-8.389c6.481-2.69 13.484-3.491 18.435-3.671 4.19-.153 8.032 2.21 10.46 5.83l7.4 11.034Z" fill="#EBF3FF"/><path d="m81.521 128.399.717.221.106-.342-.2-.297-.623.418Zm-55.048 19.238-.75.02.02.699.697.03.033-.749Zm-.183-6.699-.75.02.75-.02Zm5.89-17.343-.512-.548.512.548Zm13.047-8.389-.288-.693.288.693Zm18.435-3.671-.027-.75.027.75Zm10.46 5.83-.623.417.623-.417Zm6.683 10.812a9.241 9.241 0 0 1-6.426 6.207l.392 1.448a10.74 10.74 0 0 0 7.467-7.212l-1.433-.443Zm-6.426 6.207L29.33 146.573l.392 1.448 45.048-12.189-.392-1.448ZM29.33 146.573a9.243 9.243 0 0 1-2.825.315l-.066 1.498c1.08.048 2.185-.068 3.283-.365l-.392-1.448Zm-3.79-5.615.182 6.699 1.5-.04-.183-6.7-1.5.041Zm6.127-17.911c-4.82 4.507-6.307 11.313-6.127 17.911l1.5-.041c-.175-6.403 1.284-12.69 5.652-16.775l-1.025-1.095Zm13.271-8.534a44.204 44.204 0 0 0-13.27 8.534l1.024 1.095a42.717 42.717 0 0 1 12.821-8.243l-.575-1.386Zm18.696-3.728c-4.994.182-12.097.989-18.696 3.728l.575 1.386c6.365-2.642 13.268-3.436 18.175-3.615l-.054-1.499Zm11.11 6.162c-2.54-3.788-6.608-6.326-11.11-6.162l.054 1.499c3.878-.141 7.494 2.046 9.81 5.498l1.245-.835Zm7.4 11.034-7.4-11.034-1.246.835 7.4 11.035 1.245-.836Z" fill="#000"/><path d="M52.093 91.571c-.58-2.059-1.887-3.308-2.468-3.675-.08.272-.285 1.984-2.378 3.586-.968.74-3.323 2.275-3.127 5.137.16 2.34-2.444 1.872-4.765 2.2-.925.13-1.704.715-1.977 2.175-.437 2.331 2.141 3.804 3.543 4.471.43.204.78.542.982.972l1.05 2.242c1.526 4.875-1.923 8.59-3.647 10.447 1.339.638 5.043 1.535 9.147.019 4.104-1.515 4.542-3.247 4.248-3.924l-3.367-6.152c6.298-1.847 5.099-5.987 4.948-6.819-.225-1.247-.61-1.95.348-2.703.959-.753 1.645-1.585 1.26-2.288-.384-.704-3.074-3.114-3.797-5.688Z" fill="#fff" stroke="#000" stroke-width="1.5"/><rect x="125.968" y="6.244" width="66.668" height="66.668" rx="10" transform="rotate(19.16 125.968 6.244)" fill="#000"/><rect x="122.944" width="66.668" height="66.668" rx="10" transform="rotate(19.16 122.944 0)" fill="#EBF3FF" stroke="#000" stroke-width="1.5"/><path fill-rule="evenodd" clip-rule="evenodd" d="M160.678 81.727a9.956 9.956 0 0 1-6.086-.153L111.785 66.7l12.577-11.393a40.107 40.107 0 0 1 12.289-7.617l6.937-2.72 7.471 2.162 6.407 8.472a25.811 25.811 0 0 1 4.179 22.816l-.967 3.307Z" fill="#F6F6F6"/><path d="m160.678 81.727.211.72a.751.751 0 0 0 .509-.509l-.72-.21Zm-6.086-.153.247-.709-.247.709ZM111.785 66.7l-.504-.556a.75.75 0 0 0 .257 1.264l.247-.708Zm12.577-11.393-.504-.556.504.556Zm12.289-7.617-.274-.699.274.699Zm6.937-2.72.209-.72a.753.753 0 0 0-.483.022l.274.698Zm7.471 2.162.598-.452a.747.747 0 0 0-.389-.268l-.209.72Zm6.407 8.472-.598.453.598-.453Zm4.179 22.816.72.21-.72-.21Zm-1.178 2.588a9.203 9.203 0 0 1-5.628-.143l-.493 1.417c2.195.763 4.47.772 6.543.165l-.422-1.44Zm-5.628-.143-42.808-14.874-.493 1.417 42.808 14.874.493-1.417Zm-30.981-26.113-12.577 11.392 1.007 1.112 12.577-11.393-1.007-1.111Zm12.519-7.76a40.874 40.874 0 0 0-12.519 7.76l1.007 1.111a39.38 39.38 0 0 1 12.06-7.475l-.548-1.397Zm6.937-2.72-6.937 2.72.548 1.396 6.937-2.72-.548-1.396Zm7.954 2.14-7.471-2.163-.417 1.441 7.471 2.162.417-1.44Zm6.797 8.74-6.408-8.472-1.196.904 6.407 8.473 1.197-.905Zm4.3 23.478a26.56 26.56 0 0 0-4.3-23.478l-1.197.905a25.062 25.062 0 0 1 4.058 22.152l1.439.421Zm-.967 3.308.967-3.308-1.439-.421-.968 3.308 1.44.421Z" fill="#000"/><path d="M155.785 40.497c-1.103.654-2.324 2.82-2.61 3.224-4.424-1.883-3.282-8.942-2.345-11.64-2.4-4.432-6.491-13.166-4.603-14.065 2.36-1.123 5.908-1.029 10.589 1.246 4.682 2.274 8.632 6.022 6.947 12.13-1.684 6.11-6.6 8.288-7.978 9.105Z" fill="#000" stroke="#000" stroke-width="1.5" stroke-linejoin="round"/><path d="m138.205 46.78 2.489-7.164c-1.353-.47-4.126-1.216-4.873-3.429-.748-2.212 1.72-5.578 1.662-6.032-.015-.122-2.176-1.841-1.453-2.675.348-.402 1.659-1.353 3.022-2.31 1.623-1.14 2.751-2.838 3.954-4.415 1.176-1.54 2.574-2.486 3.214-2.653.293 2.272 3.553 5.358 8.57 7.752l-2.774 4.243c2.597-.616 4.462.249 3.781 2.833-.577 2.189-4.47 1.701-4.967 3.699-.664 2.667 1.59 5.398 2.57 6.317l-1.816 5.227c-.911.335-2.859 2.262-6.785 2.695-4.625.51-9.068-.912-10.348-2.008l3.754-2.08Z" fill="#fff" stroke="#000" stroke-width="1.5" stroke-linejoin="round"/><circle cx="108" cy="107" r="4" fill="#000"/><circle cx="123" cy="107" r="4" fill="#000"/><circle cx="139" cy="107" r="4" fill="#000"/><path d="M20 44h46M20 52h46M20 59h23" stroke="#000" stroke-width="1.5"/></g><defs><clipPath id="da"><path fill="#fff" d="M0 0h190v155H0z"/></clipPath></defs></svg><svg fill="none" viewBox="0 0 191 155" id="ic2_benefits" xmlns="http://www.w3.org/2000/svg"><g clip-path="url(#ea)"><path d="M47.404 35.297C42.174 17.105 34.69 17.762 26.96 19.359c15.408-13.211 49.62-32.02 95.985-2.604 43.913 27.86 46.757 71.091 39.259 94.888-.295.934-1.688.844-2.031-.073-4.706-12.564-20.336-15.581-27.239-13.295-.591.196-1.262-.127-1.437-.725-5.253-17.9-23.347-18.425-31.457-17.046a1.024 1.024 0 0 1-1.154-.742c-5.16-19.027-18.5-23.593-26.11-22.02C67.8 37.948 55.133 33.7 47.404 35.297Z" fill="#000"/><path d="m43.532 112.622-1.904 3.169a6.338 6.338 0 1 0 10.865 6.528l38.355-63.834" stroke="#000" stroke-width="1.5"/><path d="M45.075 38.908C39.284 22.27 24.641 18.635 17.54 20.515c13.643-13.066 52.328-33.754 96.922-8.79 44.2 24.743 49.13 71.058 44.328 93.661-3.787-14.823-22.67-18.775-28.661-15.373-5.637-18.14-23.463-15.232-30.564-13.351-5.637-18.141-21.25-18.916-28.352-17.035-5.637-18.141-19.036-22.599-26.138-20.719Z" fill="#EBF3FF" stroke="#000" stroke-width="1.5" stroke-linejoin="round"/><path d="m44.814 38.538.115.321c7.114-1.861 20.548 2.62 26.27 20.727l.087.07c.151-.04.305-.077.463-.114 12.884-23.671 36.375-40.18 46.105-45.767l-.012-.007c-24.549-9.246-59.089 12.385-73.028 24.77Z" fill="#fff" stroke="#000" stroke-width="1.5" stroke-linejoin="round"/><path d="M130.613 89.345c-.111.015-.223.03-.336.047-1.725-7.106-12.006-16.835-30.61-13.503l-.102-.045c-.037-.15-.077-.304-.12-.46 14.701-22.238 18.102-50.484 18.411-61.607l.013.007c19.715 17.29 17.035 57.605 12.744 75.56Z" fill="#fff" stroke="#000" stroke-width="1.5"/><path d="m117.778 13.665 4.896-8.15" stroke="#000" stroke-width="1.5"/><rect x="7.88" y="94.472" width="96.757" height="60.334" rx="8" transform="rotate(-4.899 7.88 94.472)" fill="#000"/><rect x="2.677" y="90.568" width="96.757" height="60.334" rx="8" transform="rotate(-4.899 2.677 90.568)" fill="#fff" stroke="#000" stroke-width="1.5"/><path d="m59.076 104.633 32.773-2.573m-32.102 10.402 32.773-2.573m-25.247 11.505c-.91 2.519-1.38 7.554 4.026 7.542 3.23-.008 5.984-2.547 7.67-5.231m0 0c1.845-2.934 2.412-6.043.927-6.21-2.33-.261-2.708 4.6-.926 6.21Zm0 0c.395.356.894.553 1.502.501 3.355-.287 4.825-9.427 11.408-4.921" stroke="#000" stroke-width="1.5"/><path d="M20.539 116.908c-2.08 5.638-3.603 7.182-3.21 11.727l37.183-3.222c-.015-3.433-1.404-6.461-4.471-9.344-3.066-2.883-1.528-7.882-4.783-16.186-3.255-8.305-18.072-7.02-21.444-.432-3.372 6.589-.766 10.657-3.275 17.457Z" fill="#000"/><path d="M30.38 101.031c-.949 2.443-3.836 4.858-5.017 5.748l.415 4.785a9.516 9.516 0 0 0 2.332 5.466l.837.95.355 4.102 10.949-.949-.356-4.101.666-.973a9.509 9.509 0 0 0 1.616-6.187l-.391-4.516c-7.457-.299-10.71-3.008-11.405-4.325Z" fill="#fff" stroke="#000" stroke-width="1.5"/><path fill-rule="evenodd" clip-rule="evenodd" d="M61.926 146.046 15.8 149.999a7.967 7.967 0 0 1-3.709-.563l-.741-8.557a12.641 12.641 0 0 1 8.686-13.114l9.78-3.179-.247-2.86 10.866-.942.247 2.86 9.62 1.434a12.727 12.727 0 0 1 10.803 11.489l.821 9.479Z" fill="#EBF3FF"/><path d="m61.926 146.046.064.747.748-.064-.064-.748-.748.065ZM15.8 149.999l-.064-.747.064.747Zm-3.709-.563-.747.065.04.455.423.174.284-.694Zm-.741-8.557-.748.065.748-.065Zm8.686-13.114-.232-.713.232.713Zm9.78-3.179.232.713.567-.184-.051-.594-.748.065Zm-.247-2.86-.065-.747-.747.065.064.747.747-.065Zm10.866-.942.747-.064-.065-.748-.747.065.065.747Zm.247 2.86-.747.065.051.589.586.088.11-.742Zm9.62 1.434-.111.741.11-.741Zm10.803 11.489-.747.065.747-.065Zm.757 8.732-46.126 3.953.129 1.494 46.126-3.953-.129-1.494Zm-46.126 3.953a7.21 7.21 0 0 1-3.36-.51l-.569 1.388a8.71 8.71 0 0 0 4.058.616l-.129-1.494Zm-5.134-8.308.742 8.557 1.494-.13-.741-8.557-1.495.13Zm9.202-13.892a13.391 13.391 0 0 0-9.201 13.892l1.494-.13a11.892 11.892 0 0 1 8.17-12.336l-.463-1.426Zm9.78-3.18-9.78 3.18.464 1.426 9.78-3.179-.463-1.427Zm-.763-2.081.248 2.859 1.495-.129-.248-2.86-1.495.13Zm11.549-1.754-10.866.942.13 1.494 10.865-.941-.13-1.495Zm1.06 3.542-.248-2.859-1.495.129.248 2.86 1.495-.13Zm8.982.757-9.619-1.434-.221 1.484 9.619 1.433.221-1.483Zm11.44 12.166a13.477 13.477 0 0 0-11.44-12.166l-.221 1.483a11.978 11.978 0 0 1 10.167 10.813l1.494-.13Zm.822 9.479-.822-9.479-1.494.13.821 9.479 1.495-.13Z" fill="#000"/></g><defs><clipPath id="ea"><path fill="#fff" transform="translate(.667)" d="M0 0h190v155H0z"/></clipPath></defs></svg><svg fill="none" viewBox="0 0 191 155" id="ic3_benefits" xmlns="http://www.w3.org/2000/svg"><g clip-path="url(#fa)"><path fill-rule="evenodd" clip-rule="evenodd" d="M28.802 49.37c-9.389 0-17 7.61-17 17v46.798c0 9.389 7.611 17 17 17h6.8l-7.332 17.504 28.857-17.504h46.618c9.388 0 17-7.611 17-17V66.369c0-9.389-7.612-17-17-17H28.802Z" fill="#000"/><path fill-rule="evenodd" clip-rule="evenodd" d="M25.842 45.737c-7.754 0-14.04 6.286-14.04 14.04v52.719c0 7.754 6.286 14.04 14.04 14.04h5.221l-7.332 17.504 28.857-17.504h49.577c7.754 0 14.04-6.286 14.04-14.04V59.777c0-7.754-6.286-14.04-14.04-14.04H25.842Z" fill="#fff"/><path d="m31.063 126.536.692.29.436-1.04h-1.128v.75Zm-7.332 17.504-.692-.29-.891 2.127 1.971-1.196-.389-.641Zm28.857-17.504v-.75h-.21l-.179.109.39.641ZM12.552 59.777c0-7.34 5.95-13.29 13.29-13.29v-1.5c-8.168 0-14.79 6.622-14.79 14.79h1.5Zm0 52.719V59.777h-1.5v52.719h1.5Zm13.29 13.29c-7.34 0-13.29-5.95-13.29-13.29h-1.5c0 8.169 6.622 14.79 14.79 14.79v-1.5Zm5.221 0h-5.221v1.5h5.221v-1.5Zm-6.64 18.544 7.332-17.504-1.383-.579-7.333 17.503 1.383.58Zm27.776-18.435-28.857 17.504.777 1.282 28.858-17.503-.778-1.283Zm49.966-.109H52.588v1.5h49.577v-1.5Zm13.29-13.29c0 7.34-5.95 13.29-13.29 13.29v1.5c8.169 0 14.79-6.621 14.79-14.79h-1.5Zm0-52.719v52.719h1.5V59.777h-1.5Zm-13.29-13.29c7.34 0 13.29 5.95 13.29 13.29h1.5c0-8.168-6.621-14.79-14.79-14.79v1.5Zm-76.323 0h76.323v-1.5H25.842v1.5ZM34.732 93.76c-9.322 6.879-7.02 17.395-4.705 21.793l61.384-4.606c-.548-12.735-7.692-13.409-9.905-19.201-2.212-5.794 3.349-13.394 3.233-16.087-.116-2.694.644-13.522-13.346-13.656-13.991-.133-15.347 8.267-19.844 17.784-4.497 9.517-5.166 5.375-16.817 13.973Z" fill="#000"/><path fill-rule="evenodd" clip-rule="evenodd" d="m96.864 126.393-3.115-11.48c-1.207-4.449-3.99-8.343-8.173-10.282-5.054-2.342-12.724-5.145-21.427-5.756-6.604-.463-12.36.283-16.998 1.412-8.668 2.109-14.552 9.375-18.108 17.556l-2.81 6.464-.87 2.086h5.76l-7.394 17.649 29.096-17.649h44.039Z" fill="#EBF3FF"/><path d="M96.864 126.393v.75h.98l-.256-.946-.724.196Zm-3.115-11.48-.724.197.724-.197Zm-8.173-10.282-.315.681.315-.681ZM64.15 98.875l-.053.748.053-.748Zm-16.998 1.412.177.729-.177-.729Zm-18.108 17.556-.688-.299.688.299Zm-2.81 6.464-.687-.299-.005.01.693.289Zm-.87 2.086-.691-.288-.434 1.038h1.126v-.75Zm5.76 0 .69.29.436-1.04h-1.127v.75Zm-7.394 17.649-.692-.29-.891 2.127 1.972-1.196-.39-.641Zm29.096-17.649v-.75h-.21l-.179.109.39.641Zm44.763-.196-3.115-11.48-1.448.393 3.115 11.48 1.448-.393Zm-3.115-11.48c-1.252-4.615-4.157-8.716-8.582-10.766l-.63 1.361c3.94 1.826 6.602 5.515 7.764 9.798l1.448-.393Zm-8.582-10.766c-5.102-2.365-12.864-5.205-21.69-5.824l-.105 1.496c8.581.602 16.16 3.369 21.165 5.689l.63-1.361Zm-21.69-5.824c-6.69-.47-12.524.287-17.227 1.431l.354 1.458c4.574-1.114 10.252-1.85 16.768-1.393l.105-1.496Zm-17.227 1.431c-8.996 2.189-15.02 9.705-18.618 17.986l1.375.598c3.513-8.082 9.257-15.097 17.597-17.126l-.354-1.458Zm-18.618 17.986-2.81 6.464 1.376.598 2.81-6.464-1.377-.598Zm-2.815 6.474-.87 2.087 1.385.577.87-2.086-1.384-.578Zm-.177 3.125h5.758v-1.5h-5.758v1.5Zm5.066-1.04-7.393 17.649 1.384.58 7.393-17.649-1.384-.58Zm-6.312 18.58 29.096-17.649-.778-1.282-29.096 17.649.778 1.282Zm28.707-17.54h44.039v-1.5H52.825v1.5Z" fill="#000"/><path d="M84.738 75.659c.478-2.572-.282-4.65-.722-5.367-.234.256-1.385 2.023-4.547 2.65-1.463.29-4.877.7-6.21 3.947-.284.696-.596 1.22-.91 1.61-1.037 1.289-2.63.201-3.912-.844-1.447-1.182-3.288-1.817-4.941.39-1.909 2.55.728 5.928 1.788 7.214.164.198.25.446.245.703l-.068 3.53c-.96 6.176-6.754 8.388-9.65 9.494 1.124 1.424 4.704 4.41 10.027 4.966 5.324.556 6.74-1.108 6.784-2.01l-.37-8.571c7.91 1.377 8.832-3.815 9.116-4.809.427-1.49.385-2.47 1.844-2.778 1.458-.308 2.662-.85 2.62-1.83-.043-.98-1.691-5.08-1.094-8.295Z" fill="#fff" stroke="#000" stroke-width="1.5"/><path fill-rule="evenodd" clip-rule="evenodd" d="M105.502 10.329a7.862 7.862 0 0 0-7.861 7.861v37.3a7.862 7.862 0 0 0 7.861 7.86h36.503L159.7 74.197l-2.283-10.845h10.69a7.862 7.862 0 0 0 7.862-7.862V18.19a7.862 7.862 0 0 0-7.862-7.861h-62.605Z" fill="#000"/><path d="m142.005 63.35.392-.639-.18-.11h-.212v.75ZM159.7 74.197l-.392.64 1.484.91-.358-1.705-.734.155Zm-2.283-10.845v-.75h-.925l.191.904.734-.154ZM98.391 18.19a7.112 7.112 0 0 1 7.111-7.112v-1.5a8.611 8.611 0 0 0-8.611 8.611h1.5Zm0 37.298V18.19h-1.5v37.3h1.5Zm7.111 7.112a7.112 7.112 0 0 1-7.111-7.112h-1.5a8.611 8.611 0 0 0 8.611 8.612v-1.5Zm36.503 0h-36.503v1.5h36.503v-1.5Zm18.087 10.956L142.397 62.71l-.784 1.28 17.695 10.844.784-1.278Zm-3.409-10.052 2.283 10.845 1.468-.309-2.284-10.845-1.467.31Zm11.424-.904h-10.69v1.5h10.69v-1.5Zm7.112-7.112a7.112 7.112 0 0 1-7.112 7.112v1.5a8.612 8.612 0 0 0 8.612-8.612h-1.5Zm0-37.299v37.3h1.5v-37.3h-1.5Zm-7.112-7.111a7.112 7.112 0 0 1 7.112 7.111h1.5a8.612 8.612 0 0 0-8.612-8.611v1.5Zm-62.605 0h62.605v-1.5h-62.605v1.5Z" fill="#000"/><path fill-rule="evenodd" clip-rule="evenodd" d="M105.502 10.329a7.862 7.862 0 0 0-7.861 7.861v34.89a7.862 7.862 0 0 0 7.861 7.86h32.89l17.695 10.846-2.283-10.845h11.893a7.862 7.862 0 0 0 7.862-7.862V18.19a7.862 7.862 0 0 0-7.862-7.861h-60.195Z" fill="#EBF3FF"/><path d="m138.392 60.94.392-.639-.181-.11h-.211v.75Zm17.695 10.846-.392.64 1.484.91-.358-1.705-.734.155Zm-2.283-10.845v-.75h-.925l.191.904.734-.154ZM98.391 18.19a7.112 7.112 0 0 1 7.111-7.112v-1.5a8.611 8.611 0 0 0-8.611 8.611h1.5Zm0 34.888V18.19h-1.5v34.89h1.5Zm7.111 7.112a7.112 7.112 0 0 1-7.111-7.112h-1.5a8.611 8.611 0 0 0 8.611 8.612v-1.5Zm32.89 0h-32.89v1.5h32.89v-1.5Zm18.087 10.956L138.784 60.3l-.784 1.28 17.695 10.844.784-1.278Zm-3.409-10.052 2.283 10.845 1.468-.309-2.283-10.845-1.468.31Zm12.627-.904h-11.893v1.5h11.893v-1.5Zm7.112-7.112a7.112 7.112 0 0 1-7.112 7.112v1.5a8.612 8.612 0 0 0 8.612-8.612h-1.5Zm0-34.889v34.89h1.5V18.19h-1.5Zm-7.112-7.111a7.112 7.112 0 0 1 7.112 7.111h1.5a8.612 8.612 0 0 0-8.612-8.611v1.5Zm-60.195 0h60.195v-1.5h-60.195v1.5Z" fill="#000"/><path d="M135.196 92.949H184M135.196 106.808H184" stroke="#000" stroke-width="1.5"/><path d="M7.57 18.23a.5.5 0 0 1 .952 0l1.219 3.752a.5.5 0 0 0 .476.345h3.944a.5.5 0 0 1 .294.905l-3.191 2.318a.5.5 0 0 0-.182.56l1.22 3.751a.5.5 0 0 1-.77.559L8.34 28.101a.5.5 0 0 0-.587 0L4.56 30.42a.5.5 0 0 1-.77-.559l1.22-3.752a.5.5 0 0 0-.182-.559l-3.191-2.318a.5.5 0 0 1 .294-.905h3.944a.5.5 0 0 0 .476-.345L7.57 18.23ZM25.812 18.23a.5.5 0 0 1 .95 0l1.22 3.752a.5.5 0 0 0 .475.345h3.945a.5.5 0 0 1 .294.905l-3.192 2.318a.5.5 0 0 0-.181.56l1.219 3.751a.5.5 0 0 1-.77.559l-3.19-2.319a.5.5 0 0 0-.589 0l-3.191 2.319a.5.5 0 0 1-.77-.559l1.22-3.752a.5.5 0 0 0-.182-.559l-3.191-2.318a.5.5 0 0 1 .293-.905h3.945a.5.5 0 0 0 .476-.345l1.219-3.752ZM43.52 18.13a.5.5 0 0 1 .944 0l1.338 3.861a.5.5 0 0 0 .473.336h4.258a.5.5 0 0 1 .282.913l-3.389 2.309a.5.5 0 0 0-.19.576l1.306 3.772a.5.5 0 0 1-.754.577l-3.515-2.394a.5.5 0 0 0-.563 0l-3.515 2.394a.5.5 0 0 1-.754-.577l1.307-3.772a.5.5 0 0 0-.19-.576l-3.39-2.308a.5.5 0 0 1 .282-.914h4.258a.5.5 0 0 0 .473-.336l1.338-3.861ZM61.22 18.23a.5.5 0 0 1 .951 0l1.22 3.752a.5.5 0 0 0 .475.345h3.945a.5.5 0 0 1 .293.905l-3.19 2.318a.5.5 0 0 0-.183.56l1.22 3.751a.5.5 0 0 1-.77.559l-3.191-2.319a.5.5 0 0 0-.588 0l-3.191 2.319a.5.5 0 0 1-.77-.559l1.22-3.752a.5.5 0 0 0-.182-.559l-3.192-2.318a.5.5 0 0 1 .294-.905h3.945a.5.5 0 0 0 .475-.345l1.22-3.752ZM78.388 18.23a.5.5 0 0 1 .951 0l1.22 3.752a.5.5 0 0 0 .475.345h3.944a.5.5 0 0 1 .294.905l-3.191 2.318a.5.5 0 0 0-.182.56l1.22 3.751a.5.5 0 0 1-.77.559l-3.192-2.319a.5.5 0 0 0-.587 0l-3.192 2.319a.5.5 0 0 1-.769-.559l1.219-3.752a.5.5 0 0 0-.182-.559l-3.191-2.318a.5.5 0 0 1 .294-.905h3.945a.5.5 0 0 0 .475-.345l1.219-3.752Z" fill="#000" stroke="#000" stroke-width=".5"/><path d="M121.819 29.137c-3.271 6.215 8.27 17.233 14.449 21.965 6.18-4.732 17.721-15.75 14.45-21.965-4.09-7.768-12.814-1.607-14.45 1.071-1.635-2.678-10.359-8.84-14.449-1.071Z" fill="#000" stroke="#EBF3FF" stroke-width="1.5"/></g><defs><clipPath id="fa"><path fill="#fff" transform="translate(.335)" d="M0 0h190v155H0z"/></clipPath></defs></svg><svg fill="none" viewBox="0 0 193 291" id="line_mission" xmlns="http://www.w3.org/2000/svg"><path d="M192.676 10.34c-163.733-44.763-196.66 90.443-217 173.001-20.338 82.558-105.893-40.174-138.5-60-20.138-9.923-164.5 179.499-416 165.999" stroke="#000" stroke-width="1.5"/></svg><svg fill="none" viewBox="0 0 36 36" id="phone" xmlns="http://www.w3.org/2000/svg"><path d="M20.385 1.666c6.398.876 11.832 5.681 13.543 11.984.729 2.687.763 5.69.095 8.35-1.372 5.445-5.46 9.866-10.773 11.643-4.54 1.523-9.576.998-13.612-1.427-.374-.219-.712-.403-.747-.403-.026 0-1.45.447-3.16.998-1.702.543-3.099.963-3.099.92 0-.035.452-1.41 1.007-3.047l1.007-2.976-.452-.683c-.564-.857-1.476-2.722-1.814-3.711-2.647-7.738.851-16.3 8.195-20.046 3.03-1.54 6.32-2.074 9.81-1.602Z" stroke="#000" stroke-width="1.5"/><path d="M11.004 9.182c-.633.338-1.506 1.654-1.826 2.754-.064.216-.144.788-.168 1.264-.056 1.108.144 2.07.696 3.317.409.917 1.354 2.459 2.291 3.723 1.642 2.225 3.669 4.044 5.591 5.04 1.498.77 3.804 1.592 4.782 1.705 1.337.147 3.372-.814 4.085-1.94.464-.727.72-2.51.408-2.822-.16-.156-3.196-1.758-3.796-2.009-.209-.086-.465-.13-.57-.095-.12.026-.432.373-.785.849-.864 1.176-1.289 1.626-1.521 1.626-.313 0-1.867-.813-2.74-1.437-1.113-.797-2.546-2.355-3.323-3.61-.32-.512-.577-1.03-.577-1.143 0-.122.208-.46.56-.9.513-.65.961-1.42.961-1.663 0-.052-.368-1.057-.817-2.234-.528-1.369-.897-2.217-1.033-2.373-.208-.225-.248-.234-1.049-.234-.68 0-.889.035-1.169.182Z" stroke="#000" stroke-width="1.5"/></svg><svg fill="none" viewBox="0 0 85 82" id="stars_mission" xmlns="http://www.w3.org/2000/svg"><path d="M2.62 69.239c4.125-2.108 6.562-6.004 8.895-11.774 1.844 4.6 4.216 9.171 9.129 11.722-4.603 3.074-6.614 5.065-9.399 12.27-.18-3.28-3.713-9.668-8.626-12.218ZM32.91 39.029C44.024 32.53 50.43 20.614 56.449 2.986c5.29 13.986 12.018 27.873 25.544 35.556-12.355 9.453-17.715 15.559-24.878 37.57-.683-9.997-10.677-29.4-24.203-37.083Z" stroke="#000" stroke-width="1.5"/></svg><svg fill="none" viewBox="0 0 160 130" id="trust" xmlns="http://www.w3.org/2000/svg"><path d="M74.367 99.193a32.69 32.69 0 0 0 26.497 16.916 32.682 32.682 0 0 0 23.221-57.618 32.689 32.689 0 0 0-14.619-7.041l-6.43 32.046-28.67 15.697Z" fill="#000"/><path d="M72.668 95.122A31.937 31.937 0 0 0 83.13 106.01a32.067 32.067 0 0 0 15.065 4.94 32.026 32.026 0 0 0 15.582-2.882 31.836 31.836 0 0 0 12.257-9.992 31.683 31.683 0 0 0 4.025-30.318 31.886 31.886 0 0 0-9.224-12.856 32.039 32.039 0 0 0-13.554-6.707l-6.254 31.17-.069.343-.308.168-27.983 15.246Z" fill="#fff" stroke="#000" stroke-width="1.5"/><path d="M99.04 104.074a24.652 24.652 0 0 0 11.998-2.22 24.513 24.513 0 0 0 9.439-7.695 24.403 24.403 0 0 0 3.1-23.351 24.55 24.55 0 0 0-7.103-9.9" stroke="#000" stroke-width="1.5"/><mask id="ja" fill="#fff"/><path d="m90.03 102.937.772 1.285.727-.437v-.848h-1.5Zm-80.03 0H8.5v.848l.727.437.773-1.285ZM50.015 127l-.773 1.285.773.465.773-.465-.773-1.285Zm38.514-92.895v68.832h3V34.105h-3ZM11.5 102.937V34.105h-3v68.832h3Zm77.756-1.286-40.014 24.064 1.546 2.57 40.014-24.063-1.546-2.571Zm-38.468 24.064-40.015-24.064-1.546 2.571 40.015 24.063 1.546-2.57ZM10.725 35.418a81.254 81.254 0 0 1 78.579 0l1.45-2.626a84.254 84.254 0 0 0-81.48 0l1.451 2.626Z" fill="#000" mask="url(#ja)"/><mask id="jb" fill="#fff"/><path d="m85 98.866.775 1.284.725-.437v-.847H85Zm-70 0h-1.5v.847l.725.437.775-1.284ZM50 120l-.775 1.284.775.468.775-.468L50 120Zm33.5-81.586v60.452h3V38.414h-3Zm-67 60.452V38.414h-3v60.452h3Zm67.725-1.284-35 21.134 1.55 2.568 35-21.134-1.55-2.568Zm-33.45 21.134-35-21.134-1.55 2.568 35 21.134 1.55-2.568Zm-35.047-78.99a70.657 70.657 0 0 1 68.544 0l1.456-2.624a73.657 73.657 0 0 0-71.456 0l1.456 2.623Z" fill="#000" mask="url(#jb)"/><path fill-rule="evenodd" clip-rule="evenodd" d="M47.044 55.16a6.786 6.786 0 0 1 1.043-.292h-.007c.407-.072.914-.093 1.842-.079.993.022 1.407.065 1.822.172.292.078.714.214.928.3.214.085.507.22.643.3.135.085.421.285.635.442.215.164.522.485.693.72.164.236.379.608.464.822.143.335.165.514.165 1.25 0 .663-.036.948-.143 1.248a5.52 5.52 0 0 1-.386.814 5.226 5.226 0 0 1-.664.835 5.492 5.492 0 0 1-.893.736 7.697 7.697 0 0 1-.836.47c-.2.094-.614.25-.928.358a7.225 7.225 0 0 1-.878.242c-.165.022-.3.058-.3.079 0 .02.05.109.109.213l.012.023a76.828 76.828 0 0 0 2.314 3.227 58.014 58.014 0 0 0 1.585 1.998c.415.493.929 1.07 1.543 1.678l.243-.393c.136-.214.329-.564.436-.764.1-.207.271-.678.371-1.035.157-.55.186-.771.164-1.27-.028-.465-.078-.7-.221-1a2.376 2.376 0 0 0-.536-.7c-.185-.164-.485-.35-.664-.407-.178-.064-.443-.107-.857-.107v-.714h3.502V54.93h7.983c5.49 0 9.942 4.451 9.942 9.942 0 5.491-4.451 9.942-9.942 9.942H57.15l.007-.004a6.151 6.151 0 0 1-.843-.047 7.634 7.634 0 0 1-1.392-.307c-.357-.121-.85-.328-1.572-.728l-.607.257c-.335.136-.757.3-.95.364-.185.064-.55.164-.82.221-.265.058-.772.136-1.122.179-.357.036-.936.071-1.286.071-.357 0-.95-.035-1.32-.071a18.044 18.044 0 0 1-1.25-.186 13.56 13.56 0 0 1-1.215-.328 11.154 11.154 0 0 1-1.142-.464 8.408 8.408 0 0 1-.929-.557 7.243 7.243 0 0 1-1.044-.962 10.092 10.092 0 0 1-6.723 2.563c-5.49 0-9.942-4.451-9.942-9.942 0-5.491 4.451-9.942 9.942-9.942h.242c2.221 0 4.392.657 6.24 1.889l-1.933 2.898a7.765 7.765 0 0 0-4.306-1.304h-.243a6.459 6.459 0 1 0 0 12.918 6.617 6.617 0 0 0 5.284-2.633h-2.744v-3.484h5.876c.128-.067.25-.128.35-.175.272-.121.765-.3 1.086-.4.329-.092.593-.185.593-.206 0-.022-.136-.3-.307-.621a20.206 20.206 0 0 1-.564-1.2c-.143-.335-.35-.913-.45-1.285-.121-.435-.2-.95-.229-1.427-.028-.622-.007-.864.115-1.393.085-.356.278-.87.421-1.142.164-.307.457-.7.764-1.006.279-.286.707-.621.964-.764a8.6 8.6 0 0 1 .943-.435Zm14.467 16.218v-.047h4.717a6.459 6.459 0 0 0 0-12.918h-4.5v5.913h.01v.816a3.803 3.803 0 0 0-.532.213c-.278.135-.735.456-1.014.7-.285.249-.714.677-.957.948a18.25 18.25 0 0 0-.735.893c-.172.214-.707.985-1.193 1.706a74.539 74.539 0 0 1-.979 1.428c-.078.1-.02.171.465.55.307.242.735.535.95.649.214.121.571.278.785.35.229.071.6.128.893.128.393 0 .593-.043.907-.192.228-.108.564-.343.743-.529.14-.144.291-.352.44-.609ZM47.958 55.873c.1-.114.307-.27.465-.342.22-.1.407-.129.82-.107.415.014.608.064.858.207.178.1.45.32.6.492.157.172.371.507.485.743.108.235.25.67.315.963.085.407.107.771.078 1.5-.028.67-.086 1.113-.185 1.463a7.41 7.41 0 0 1-.379.956c-.143.279-.393.6-.643.836-.228.214-.443.385-.485.385-.043 0-.293-.378-.565-.835a23.616 23.616 0 0 1-.885-1.663 15.75 15.75 0 0 1-.622-1.5c-.192-.55-.235-.82-.264-1.463-.028-.65-.014-.842.093-1.106.072-.179.214-.414.314-.529Zm-2.592 10.237c.093-.214.243-.5.328-.628.086-.121.172-.229.186-.229.021 0 .343.472.707 1.05.371.585.914 1.392 1.214 1.806.3.414.85 1.135 1.221 1.606.379.464 1.036 1.22 1.472 1.663.435.45 1.042 1.028 1.357 1.285l.215.176c.228.187.42.343.463.381.093.079.064.107-.179.207a8.328 8.328 0 0 1-.857.257c-.385.093-.828.136-1.357.136-.564 0-.95-.043-1.356-.143a6.661 6.661 0 0 1-1.072-.414 5.216 5.216 0 0 1-.985-.728 5.843 5.843 0 0 1-.807-.964 6.88 6.88 0 0 1-.5-1.035c-.1-.293-.229-.77-.286-1.056-.057-.279-.1-.878-.1-1.321 0-.435.036-.992.079-1.228.042-.236.157-.607.257-.82Z" fill="#000"/><path d="M30.804 87.99c-.482 0-.895-.097-1.24-.29a1.994 1.994 0 0 1-.788-.826c-.184-.359-.276-.781-.276-1.267 0-.485.092-.905.276-1.26.183-.354.446-.628.787-.82.346-.197.76-.296 1.24-.296.324 0 .615.046.873.138.263.092.488.228.677.407l-.276.67a2.12 2.12 0 0 0-.597-.355 1.757 1.757 0 0 0-.65-.111c-.468 0-.827.142-1.076.426-.245.28-.368.68-.368 1.201s.123.924.367 1.208c.25.284.609.427 1.077.427.245 0 .462-.035.65-.106.192-.074.391-.196.597-.367l.276.67a1.98 1.98 0 0 1-.677.406c-.258.097-.549.145-.872.145ZM33.042 85.607c0-.485.088-.905.263-1.26.18-.354.435-.628.768-.82.332-.197.728-.296 1.188-.296.455 0 .848.099 1.181.296.333.192.589.466.768.82.184.355.276.772.276 1.254 0 .485-.092.908-.276 1.266-.18.355-.435.63-.768.827-.333.197-.726.296-1.181.296-.46 0-.856-.099-1.188-.296a1.988 1.988 0 0 1-.761-.827c-.18-.358-.27-.778-.27-1.26Zm.886 0c0 .521.112.928.335 1.221.223.293.556.44.998.44.428 0 .759-.147.99-.44.233-.293.349-.7.349-1.22 0-.526-.116-.933-.348-1.222-.228-.288-.558-.433-.991-.433-.442 0-.775.145-.998.433-.223.29-.335.696-.335 1.221ZM38.556 87.924v-4.627h.637l2.684 3.472h-.17v-3.472h.787v4.627h-.637l-2.677-3.472h.164v3.472h-.788ZM45.322 87.99c-.372 0-.716-.046-1.03-.138a2.635 2.635 0 0 1-.801-.394l.262-.663c.149.105.304.195.466.27.162.07.335.124.519.163.184.035.378.053.584.053.345 0 .595-.057.748-.17a.53.53 0 0 0 .23-.447c0-.162-.053-.285-.158-.368-.105-.087-.293-.16-.564-.216l-.742-.151c-.424-.088-.742-.234-.951-.44-.21-.206-.316-.481-.316-.827 0-.289.077-.54.23-.755.153-.214.368-.38.643-.498.276-.119.598-.178.965-.178.328 0 .632.049.912.145.28.092.514.225.703.4l-.263.63a1.883 1.883 0 0 0-.617-.348 2.236 2.236 0 0 0-.748-.118c-.31 0-.553.061-.728.184a.566.566 0 0 0-.256.492.5.5 0 0 0 .157.388c.11.096.293.17.551.223l.735.144c.438.088.762.232.972.433.21.197.315.464.315.8 0 .276-.075.52-.223.73a1.489 1.489 0 0 1-.63.485c-.272.114-.593.17-.965.17ZM50.064 87.99c-.66 0-1.153-.164-1.477-.493-.32-.332-.479-.822-.479-1.47v-2.73h.847v2.724c0 .411.087.722.262.932.18.21.462.315.847.315.367 0 .643-.105.827-.315.188-.21.282-.521.282-.932v-2.724h.834v2.73c0 .648-.164 1.138-.493 1.47-.324.329-.807.493-1.45.493ZM53.19 87.924v-4.627h.846v3.912h2.179v.715h-3.026ZM57.296 87.924v-3.931h-1.53v-.696h3.906v.696h-1.53v3.931h-.846ZM60.467 87.924v-4.627h.846v4.627h-.846ZM62.529 87.924v-4.627h.636l2.685 3.472h-.171v-3.472h.788v4.627h-.637l-2.678-3.472h.164v3.472h-.787ZM69.912 87.99c-.521 0-.959-.097-1.313-.29a1.883 1.883 0 0 1-.8-.82c-.18-.354-.27-.774-.27-1.26 0-.49.096-.912.289-1.266.192-.359.468-.635.827-.827.363-.197.798-.296 1.306-.296.337 0 .632.046.886.138.254.088.477.217.67.388l-.283.656a2.593 2.593 0 0 0-.4-.263 1.451 1.451 0 0 0-.394-.138 2.156 2.156 0 0 0-.473-.046c-.507 0-.892.145-1.155.434-.258.284-.387.693-.387 1.227 0 .534.123.94.368 1.22.249.28.638.42 1.168.42.18 0 .359-.017.538-.052.184-.035.363-.085.538-.15l-.157.354v-1.385h-1.083v-.617h1.785v2.225c-.215.11-.47.195-.768.256a4.412 4.412 0 0 1-.892.092ZM65.524 4.464a.5.5 0 0 1 .95 0l.76 2.336a.5.5 0 0 0 .476.346h2.457a.5.5 0 0 1 .294.904l-1.988 1.445a.5.5 0 0 0-.182.559l.76 2.336a.5.5 0 0 1-.77.56l-1.988-1.445a.5.5 0 0 0-.588 0l-1.987 1.444a.5.5 0 0 1-.77-.559l.76-2.336a.5.5 0 0 0-.182-.56L61.538 8.05a.5.5 0 0 1 .294-.904h2.457a.5.5 0 0 0 .476-.346l.759-2.336ZM77.524 4.464a.5.5 0 0 1 .95 0l.76 2.336a.5.5 0 0 0 .476.346h2.457a.5.5 0 0 1 .294.904l-1.988 1.445a.5.5 0 0 0-.182.559l.76 2.336a.5.5 0 0 1-.77.56l-1.988-1.445a.5.5 0 0 0-.588 0l-1.987 1.444a.5.5 0 0 1-.77-.559l.76-2.336a.5.5 0 0 0-.182-.56L73.538 8.05a.5.5 0 0 1 .294-.904h2.457a.5.5 0 0 0 .476-.346l.759-2.336ZM89.927 4.363a.5.5 0 0 1 .944 0l.848 2.447a.5.5 0 0 0 .473.336h2.671a.5.5 0 0 1 .282.913L93.04 9.493a.5.5 0 0 0-.19.577l.816 2.356a.5.5 0 0 1-.754.577l-2.232-1.52a.5.5 0 0 0-.563 0l-2.231 1.52a.5.5 0 0 1-.754-.577l.817-2.356a.5.5 0 0 0-.191-.577l-2.105-1.434a.5.5 0 0 1 .281-.913h2.672a.5.5 0 0 0 .473-.336l.848-2.447ZM102.324 4.464a.5.5 0 0 1 .951 0l.759 2.336a.5.5 0 0 0 .476.346h2.457a.5.5 0 0 1 .294.904l-1.988 1.445a.499.499 0 0 0-.182.559l.759 2.336a.5.5 0 0 1-.769.56l-1.988-1.445a.5.5 0 0 0-.588 0l-1.987 1.444a.5.5 0 0 1-.77-.559l.759-2.336a.5.5 0 0 0-.181-.56L98.338 8.05a.5.5 0 0 1 .294-.904h2.457a.5.5 0 0 0 .475-.346l.76-2.336ZM114.324 4.464a.5.5 0 0 1 .951 0l.759 2.336a.5.5 0 0 0 .476.346h2.457a.5.5 0 0 1 .294.904l-1.988 1.445a.499.499 0 0 0-.182.559l.759 2.336a.5.5 0 0 1-.769.56l-1.988-1.445a.5.5 0 0 0-.588 0l-1.987 1.444a.5.5 0 0 1-.77-.559l.759-2.336a.5.5 0 0 0-.181-.56l-1.988-1.444a.5.5 0 0 1 .294-.904h2.457a.5.5 0 0 0 .475-.346l.76-2.336ZM100 25h48v2h-48v-2ZM100 31h23v2h-23v-2Z" fill="#000"/></svg></svg>