<svg width="310" height="246" viewBox="0 0 310 246" fill="none" xmlns="http://www.w3.org/2000/svg">
<path d="M125.293 161.789C157.095 155.428 151.53 141.117 151.53 116.471C151.53 91.8238 135.629 21.859 207.979 50.481" stroke="black" stroke-width="1.5"/>
<rect x="14.5391" y="139.424" width="106.009" height="106.009" rx="10" transform="rotate(-15.14 14.5391 139.424)" fill="black"/>
<rect x="3.91016" y="133.32" width="106.009" height="106.009" rx="10" transform="rotate(-15.14 3.91016 133.32)" fill="white" stroke="black" stroke-width="1.5"/>
<path d="M34.9189 192.718C28.0008 206.092 36.7244 217.033 41.9509 220.831L110.88 180.203C102.926 165.669 94.2092 168.987 88.3023 163.502C82.3953 158.018 84.5144 145.962 82.8319 142.888C81.1493 139.814 75.8166 126.751 59.4266 134.631C43.0365 142.511 46.2807 153.085 46.5032 166.765C46.7257 180.445 43.5665 175.999 34.9189 192.718Z" fill="black" stroke="black" stroke-width="1.5"/>
<path fill-rule="evenodd" clip-rule="evenodd" d="M131.293 203.845C130.319 207.021 127.784 209.642 124.341 210.574L42.1722 232.806L41.861 221.385C41.5794 211.048 43.9226 200.638 51.2266 193.807C56.1115 189.239 62.9403 184.216 71.9715 180.468C82.2784 176.19 93.4135 174.917 101.286 174.63C107.949 174.388 114.057 178.145 117.918 183.901L131.293 203.845Z" fill="#EBF3FF"/>
<path d="M131.293 203.845L132.01 204.065L132.115 203.724L131.916 203.428L131.293 203.845ZM42.1722 232.806L41.4225 232.827L41.4485 233.779L42.3681 233.53L42.1722 232.806ZM41.861 221.385L41.1113 221.405L41.861 221.385ZM51.2266 193.807L51.7389 194.355L51.2266 193.807ZM71.9715 180.468L71.684 179.775L71.9715 180.468ZM101.286 174.63L101.258 173.881L101.258 173.881L101.286 174.63ZM117.918 183.901L118.541 183.483L117.918 183.901ZM130.576 203.625C129.674 206.565 127.329 208.988 124.145 209.85L124.536 211.298C128.239 210.296 130.963 207.477 132.01 204.065L130.576 203.625ZM124.145 209.85L41.9764 232.082L42.3681 233.53L124.536 211.298L124.145 209.85ZM41.1113 221.405L41.4225 232.827L42.922 232.786L42.6108 221.364L41.1113 221.405ZM50.7144 193.259C43.1843 200.301 40.827 210.971 41.1113 221.405L42.6108 221.364C42.3317 211.125 44.6608 200.974 51.7389 194.355L50.7144 193.259ZM71.684 179.775C62.5565 183.564 55.6534 188.641 50.7144 193.259L51.7389 194.355C56.5696 189.837 63.3242 184.869 72.259 181.161L71.684 179.775ZM101.258 173.881C93.343 174.169 82.1076 175.449 71.684 179.775L72.259 181.161C82.4493 176.931 93.4841 175.665 101.313 175.38L101.258 173.881ZM118.541 183.483C114.568 177.559 108.234 173.627 101.258 173.881L101.313 175.38C107.664 175.149 113.547 178.73 117.295 184.319L118.541 183.483ZM131.916 203.428L118.541 183.483L117.295 184.319L130.67 204.263L131.916 203.428Z" fill="black"/>
<path d="M82.8306 142.888C81.9106 139.614 79.8312 137.628 78.9065 137.045C78.78 137.477 78.4532 140.199 75.1257 142.746C73.5868 143.924 69.8417 146.364 70.1532 150.915C70.1782 151.28 70.1851 151.619 70.1766 151.933C70.0935 154.994 66.6487 154.535 63.5909 154.374C61.699 154.275 59.9639 155.031 59.4323 157.872C58.6956 161.809 63.3683 164.207 65.4608 165.164C65.8933 165.362 66.2414 165.702 66.4432 166.133L68.2984 170.091C70.7248 177.843 65.2407 183.75 62.4986 186.703C64.6275 187.717 70.5169 189.143 77.0434 186.734C83.57 184.324 84.2662 181.57 83.7985 180.494L78.445 170.712C88.4595 167.774 86.5517 161.191 86.3125 159.869C85.9538 157.886 85.3419 156.768 86.8659 155.571C88.3899 154.374 89.4815 153.05 88.8697 151.932C88.2578 150.814 83.9806 146.98 82.8306 142.888Z" fill="white" stroke="black" stroke-width="1.5"/>
<rect x="207.305" y="10.2109" width="106.009" height="106.009" rx="10" transform="rotate(19.16 207.305 10.2109)" fill="black"/>
<rect x="202.496" y="0.28125" width="106.009" height="106.009" rx="10" transform="rotate(19.16 202.496 0.28125)" fill="white" stroke="black" stroke-width="1.5"/>
<path fill-rule="evenodd" clip-rule="evenodd" d="M261.83 132.482C260.69 132.501 259.526 132.323 258.386 131.927L184.743 106.339L204.74 88.2256C210.469 83.0365 217.09 78.9322 224.282 76.1126L235.313 71.7877L247.192 75.2258L257.381 88.6976C265.208 99.0476 267.673 112.505 264.026 124.976L261.83 132.482Z" fill="#F6F6F6"/>
<path d="M261.83 132.482L261.843 133.232C262.171 133.227 262.458 133.008 262.55 132.693L261.83 132.482ZM184.743 106.339L184.24 105.783C184.043 105.961 183.955 106.229 184.008 106.489C184.061 106.748 184.247 106.961 184.497 107.048L184.743 106.339ZM204.74 88.2256L204.237 87.6698L204.74 88.2256ZM224.282 76.1126L224.008 75.4144L224.282 76.1126ZM235.313 71.7877L235.521 71.0672C235.362 71.0213 235.193 71.0291 235.039 71.0894L235.313 71.7877ZM247.192 75.2258L247.79 74.7734C247.693 74.6444 247.556 74.5504 247.401 74.5054L247.192 75.2258ZM257.381 88.6976L256.782 89.15L257.381 88.6976ZM264.026 124.976L263.306 124.766L264.026 124.976ZM261.818 131.732C260.764 131.75 259.688 131.585 258.632 131.218L258.14 132.635C259.364 133.061 260.615 133.252 261.843 133.232L261.818 131.732ZM258.632 131.218L184.989 105.631L184.497 107.048L258.14 132.635L258.632 131.218ZM204.237 87.6698L184.24 105.783L185.247 106.895L205.244 88.7815L204.237 87.6698ZM224.008 75.4144C216.732 78.2671 210.033 82.4197 204.237 87.6698L205.244 88.7815C210.905 83.6533 217.449 79.5973 224.555 76.8109L224.008 75.4144ZM235.039 71.0894L224.008 75.4144L224.555 76.8109L235.586 72.4859L235.039 71.0894ZM247.401 74.5054L235.521 71.0672L235.104 72.5081L246.984 75.9463L247.401 74.5054ZM257.979 88.2452L247.79 74.7734L246.594 75.6782L256.782 89.15L257.979 88.2452ZM264.746 125.187C268.46 112.488 265.95 98.7848 257.979 88.2452L256.782 89.15C264.467 99.3105 266.887 112.522 263.306 124.766L264.746 125.187ZM262.55 132.693L264.746 125.187L263.306 124.766L261.111 132.272L262.55 132.693Z" fill="black"/>
<path d="M254.711 64.6769C252.958 65.7159 251.016 69.1599 250.561 69.8029C243.527 66.8094 245.341 55.5843 246.832 51.295C243.016 44.2466 236.51 30.3592 239.512 28.9301C243.265 27.1438 248.906 27.2939 256.35 30.9104C263.794 34.527 270.076 40.4866 267.397 50.2C264.718 59.9134 256.902 63.3781 254.711 64.6769Z" fill="black" stroke="black" stroke-width="1.5" stroke-linejoin="round"/>
<path d="M226.758 74.665L230.715 63.2743C228.564 62.5268 224.155 61.3399 222.966 57.8217C221.777 54.3035 225.702 48.9524 225.61 48.2298C225.585 48.0359 222.149 45.3023 223.299 43.9766C223.979 43.1917 226.965 41.0911 229.581 39.2719C231.209 38.1391 232.359 36.4722 233.38 34.7715C235.378 31.4455 238.293 29.3792 239.502 29.0648C239.969 32.6773 245.153 37.5837 253.13 41.3904L248.718 48.1383C252.848 47.1579 255.814 48.5336 254.731 52.6425C253.813 56.1234 247.622 55.3479 246.832 58.5236C245.777 62.7647 249.361 67.1075 250.919 68.5692L248.031 76.8813C246.584 77.4133 243.485 80.4771 237.243 81.1656C229.888 81.9768 222.823 79.7155 220.788 77.9733L226.758 74.665Z" fill="white" stroke="black" stroke-width="1.5" stroke-linejoin="round"/>
<circle cx="174.732" cy="179.423" r="6.36044" fill="black"/>
<circle cx="198.583" cy="179.423" r="6.36044" fill="black"/>
<circle cx="224.025" cy="179.423" r="6.36044" fill="black"/>
</svg>
