<svg width="226" height="161" viewBox="0 0 226 161" fill="none" xmlns="http://www.w3.org/2000/svg">
<rect x="9.87891" y="61.0195" width="156.057" height="97.312" rx="8" transform="rotate(-20.1289 9.87891 61.0195)" fill="black"/>
<rect x="0.128906" y="57.1504" width="156.057" height="97.312" rx="8" transform="rotate(-20.1289 0.128906 57.1504)" fill="white" stroke="black" stroke-width="1.5"/>
<path d="M90.832 48.7494L140.744 30.8598M95.705 62.5281L120.661 53.5833" stroke="black" stroke-width="1.5"/>
<path d="M40.1485 93.0521C39.3127 102.565 37.6224 105.568 40.1241 112.374L95.7953 91.9094C94.3376 86.6514 90.9433 82.588 85.0376 79.4479C79.1319 76.3078 79.4039 67.9999 70.946 56.6243C62.4881 45.2488 40.3034 53.4038 37.8831 64.9156C35.4628 76.4274 41.1568 81.5766 40.1485 93.0521Z" fill="black"/>
<path d="M48.6063 64.6004C48.1708 68.744 44.752 73.6523 43.3127 75.5093L45.9465 82.6741C47.063 85.7114 49.1181 88.3106 51.8033 90.0816L53.4839 91.1901L55.7414 97.3314L72.1336 91.3056L69.8761 85.1643L70.4906 83.395C71.6305 80.1123 71.5938 76.5163 70.3866 73.2324L67.901 66.4707C56.3418 69.1264 50.2215 66.3304 48.6063 64.6004Z" fill="white" stroke="black" stroke-width="1.47801"/>
<path fill-rule="evenodd" clip-rule="evenodd" d="M115.108 118.658L41.1325 145.771C40.9487 145.839 40.7641 145.899 40.5789 145.952L36.0572 133.651C32.8322 124.878 36.0839 115.039 43.902 109.916L57.5721 100.957L55.9983 96.6759L72.2675 90.6954L73.8413 94.9768L89.1901 93.1595C98.4862 92.0589 107.323 97.4809 110.553 106.267L115.108 118.658Z" fill="#EBF3FF"/>
<path d="M115.108 118.658L115.366 119.362L116.071 119.104L115.812 118.399L115.108 118.658ZM40.5789 145.952L39.875 146.211L40.1156 146.865L40.7859 146.673L40.5789 145.952ZM36.0572 133.651L36.7612 133.393L36.0572 133.651ZM43.902 109.916L44.3131 110.543L43.902 109.916ZM57.5721 100.957L57.9832 101.585L58.4817 101.258L58.2761 100.698L57.5721 100.957ZM55.9983 96.6759L55.7396 95.9719L55.0356 96.2307L55.2944 96.9347L55.9983 96.6759ZM72.2675 90.6954L72.9714 90.4366L72.7126 89.7327L72.0087 89.9915L72.2675 90.6954ZM73.8413 94.9768L73.1373 95.2355L73.3416 95.7912L73.9295 95.7216L73.8413 94.9768ZM89.1901 93.1595L89.1019 92.4147L89.1901 93.1595ZM110.553 106.267L109.849 106.526L110.553 106.267ZM114.85 117.954L40.8744 145.067L41.3906 146.476L115.366 119.362L114.85 117.954ZM40.8744 145.067C40.7075 145.128 40.5399 145.183 40.372 145.231L40.7859 146.673C40.9883 146.615 41.19 146.549 41.3906 146.476L40.8744 145.067ZM35.3533 133.91L39.875 146.211L41.2829 145.693L36.7612 133.393L35.3533 133.91ZM43.4909 109.289C35.3809 114.603 32.0078 124.809 35.3533 133.91L36.7612 133.393C33.6565 124.947 36.7868 115.475 44.3131 110.543L43.4909 109.289ZM57.161 100.33L43.4909 109.289L44.3131 110.543L57.9832 101.585L57.161 100.33ZM55.2944 96.9347L56.8682 101.216L58.2761 100.698L56.7023 96.4171L55.2944 96.9347ZM72.0087 89.9915L55.7396 95.9719L56.2571 97.3798L72.5262 91.3994L72.0087 89.9915ZM74.5452 94.718L72.9714 90.4366L71.5635 90.9542L73.1373 95.2355L74.5452 94.718ZM89.1019 92.4147L73.7531 94.232L73.9295 95.7216L89.2783 93.9043L89.1019 92.4147ZM111.257 106.008C107.907 96.8963 98.7427 91.2733 89.1019 92.4147L89.2783 93.9043C98.2297 92.8445 106.739 98.0655 109.849 106.526L111.257 106.008ZM115.812 118.399L111.257 106.008L109.849 106.526L114.404 118.917L115.812 118.399Z" fill="black"/>
<path d="M140.971 52.9164C141.862 49.7142 144.467 47.2782 147.722 46.604C171.862 41.6036 196.937 48.4862 215.142 65.1101L215.513 65.4495C218.018 67.7367 219.024 71.2382 218.115 74.5061L201.722 133.422C201.227 135.201 199.838 136.591 198.06 137.087L158.916 148.02C157.029 148.547 155.005 147.983 153.661 146.557L125.788 116.979C124.522 115.635 124.051 113.727 124.546 111.949L140.971 52.9164Z" fill="white" stroke="black" stroke-width="1.45432"/>
<path d="M208.644 72.0671C202.107 63.3835 192.411 58.472 181.195 55.3516L157.424 140.789L191.424 131.913C192.802 131.553 193.885 130.487 194.267 129.115L209.225 75.3569C209.539 74.2257 209.351 73.0051 208.644 72.0671Z" fill="black"/>
<path d="M148.635 82.2041L160.59 106.92L197.446 85.5271" stroke="black" stroke-width="8.7259"/>
<path fill-rule="evenodd" clip-rule="evenodd" d="M166.326 108.972L199.809 89.5767L195.435 82.0261L169.671 96.9502L166.326 108.972Z" fill="white"/>
</svg>
