<svg width="196" height="202" viewBox="0 0 196 202" fill="none" xmlns="http://www.w3.org/2000/svg">
<rect width="134.383" height="155.894" rx="12.4813" transform="matrix(-0.868237 0.496149 0.49645 0.868065 118.605 0)" fill="black"/>
<rect x="-0.371787" y="1.36421" width="125.244" height="143.501" rx="11.4813" transform="matrix(-0.868237 0.496149 0.49645 0.868065 109.105 3.64179)" fill="white" stroke="black" stroke-width="2"/>
<rect width="96.7666" height="29.7097" transform="matrix(-0.868237 0.496149 0.49645 0.868065 107.273 25.291)" fill="black"/>
<rect x="-0.371787" y="1.36421" width="29.2396" height="27.7097" rx="3.88398" transform="matrix(-0.868237 0.496149 0.49645 0.868065 127.835 64.0109)" fill="#F6F6F6" stroke="black" stroke-width="2"/>
<rect x="-0.371787" y="1.36421" width="29.2396" height="27.7097" rx="3.88398" transform="matrix(-0.868237 0.496149 0.49645 0.868065 145.226 94.4309)" fill="#EBF3FF" stroke="black" stroke-width="2"/>
<rect x="-0.371787" y="1.36421" width="29.2396" height="27.7097" rx="3.88398" transform="matrix(-0.868237 0.496149 0.49645 0.868065 96.0813 82.1555)" fill="#EBF3FF" stroke="black" stroke-width="2"/>
<rect x="-0.371787" y="1.36421" width="29.2396" height="27.7097" rx="3.88398" transform="matrix(-0.868237 0.496149 0.49645 0.868065 113.476 112.573)" fill="#F6F6F6" stroke="black" stroke-width="2"/>
<rect x="-0.371787" y="1.36421" width="29.2396" height="62.7518" rx="3.88398" transform="matrix(-0.868237 0.496149 0.49645 0.868065 64.3274 100.302)" fill="#F6F6F6" stroke="black" stroke-width="2"/>
</svg>
