<svg width="236" height="161" viewBox="0 0 236 161" fill="none" xmlns="http://www.w3.org/2000/svg">
<path d="M234.001 152.234H184.176C196.009 136.078 205.196 50.7449 208.31 10.0977H214.538L234.001 152.234Z" fill="black" stroke="black" stroke-width="2"/>
<path d="M23.7987 92.4278C30.0269 68.8162 32.622 27.7028 33.141 10.0977H208.309C208.932 79.0686 190.922 138.771 181.839 160.001H2C6.67115 147.315 17.5705 116.039 23.7987 92.4278Z" fill="white" stroke="black" stroke-width="2"/>
<rect x="47.375" y="38.2812" width="139.692" height="15.0874" fill="#F6F6F6" stroke="black" stroke-width="2"/>
<path d="M100.096 132.038H136.687C140.796 124.154 144.009 111.003 146.347 97.8629H109.757C107.419 111.003 104.205 124.154 100.096 132.038Z" fill="#EBF3FF"/>
<path d="M150.7 64.4648C150.061 72.3704 148.617 85.1113 146.347 97.8629M114.11 64.4648C113.471 72.3704 112.026 85.1113 109.757 97.8629M79.8545 64.4648C78.557 80.5166 73.9377 116.504 65.8411 132.038M181.381 97.8629H146.347M41.2466 97.8629H109.757M146.347 97.8629C144.009 111.003 140.796 124.154 136.687 132.038H100.096C104.205 124.154 107.419 111.003 109.757 97.8629M146.347 97.8629H109.757M185.734 64.4648C184.436 80.5166 179.817 116.504 171.721 132.038H31.5859C39.6826 116.504 44.3019 80.5166 45.5994 64.4648H185.734Z" stroke="black" stroke-width="2"/>
<path d="M52.6055 0V18.6408" stroke="black" stroke-width="2"/>
<path d="M72.8438 0V18.6408" stroke="black" stroke-width="2"/>
<path d="M93.0859 0V18.6408" stroke="black" stroke-width="2"/>
<path d="M113.332 0V18.6408" stroke="black" stroke-width="2"/>
<path d="M133.57 0V18.6408" stroke="black" stroke-width="2"/>
<path d="M152.258 0V18.6408" stroke="black" stroke-width="2"/>
<path d="M172.492 0V18.6408" stroke="black" stroke-width="2"/>
<path d="M191.18 0V18.6408" stroke="black" stroke-width="2"/>
</svg>
