<svg width="210" height="270" viewBox="0 0 210 270" fill="none" xmlns="http://www.w3.org/2000/svg">
<rect x="34.125" y="45.4473" width="175.877" height="224.554" fill="black"/>
<rect x="25.2266" y="33.6758" width="173.877" height="222.554" fill="#CBFF96" stroke="black" stroke-width="2"/>
<path d="M75.328 75.6174L75.367 76.208L74.8637 76.523L36.051 100.811L40.1901 107.376C45.6698 112.901 52.4967 117.01 60.0471 119.323C67.6328 121.646 75.7022 122.081 83.5086 120.586C91.315 119.091 98.6042 115.715 104.703 110.773C110.801 105.83 115.511 99.4809 118.401 92.3139C121.29 85.147 122.266 77.3922 121.24 69.7657C120.214 62.1391 117.218 54.8843 112.528 48.6722C107.837 42.4598 101.603 37.4899 94.3987 34.2243C87.4973 31.0959 79.9206 29.6289 72.3141 29.9429L75.328 75.6174Z" fill="black" stroke="black" stroke-width="2"/>
<mask id="path-4-inside-1_280_5264" fill="white">
<path d="M34.5451 100.011C40.1546 105.671 47.1543 109.875 54.8971 112.235C62.6399 114.595 70.8758 115.035 78.8436 113.513C86.8113 111.991 94.2537 108.558 100.483 103.53C106.712 98.5014 111.527 92.0409 114.482 84.7454C117.437 77.4498 118.437 69.5546 117.39 61.7897C116.343 54.0248 113.283 46.6407 108.492 40.3202C103.701 33.9996 97.3335 28.9464 89.979 25.6279C82.6245 22.3094 74.52 20.8325 66.4147 21.3339L69.4818 67.8197L34.5451 100.011Z"/>
</mask>
<path d="M34.5451 100.011C40.1546 105.671 47.1543 109.875 54.8971 112.235C62.6399 114.595 70.8758 115.035 78.8436 113.513C86.8113 111.991 94.2537 108.558 100.483 103.53C106.712 98.5014 111.527 92.0409 114.482 84.7454C117.437 77.4498 118.437 69.5546 117.39 61.7897C116.343 54.0248 113.283 46.6407 108.492 40.3202C103.701 33.9996 97.3335 28.9464 89.979 25.6279C82.6245 22.3094 74.52 20.8325 66.4147 21.3339L69.4818 67.8197L34.5451 100.011Z" fill="white" stroke="black" stroke-width="4" mask="url(#path-4-inside-1_280_5264)"/>
<path d="M59.7088 59.481L57.5258 48.5285C43.7502 42.4746 15.532 34.0798 11.9352 48.3905C8.3384 62.7013 19.5467 78.9135 25.0532 86.4787L59.7088 59.481Z" fill="black" stroke="black" stroke-width="2"/>
<path d="M56.4547 48.0988L21.0123 75.6158C16.2714 69.6322 13.1772 62.5784 12.0248 55.115C10.8236 47.3354 11.7747 39.3853 14.7829 32.0748C17.7913 24.764 22.7504 18.3522 29.158 13.4961C35.3046 8.83779 42.5721 5.77169 50.2745 4.58155L56.4547 48.0988Z" fill="white" stroke="black" stroke-width="2"/>
<path d="M162.367 197.938C162.367 198.49 162.815 198.938 163.367 198.938C163.919 198.938 164.367 198.49 164.367 197.938H162.367ZM164.367 226.869C164.367 226.317 163.919 225.869 163.367 225.869C162.815 225.869 162.367 226.317 162.367 226.869H164.367ZM162.367 192.312V197.938H164.367V192.312H162.367ZM162.367 226.869V232.494H164.367V226.869H162.367Z" fill="black"/>
<path d="M173.051 197.938H158.525C156.727 197.938 155.003 198.7 153.732 200.056C152.46 201.412 151.746 203.252 151.746 205.17C151.746 207.088 152.46 208.928 153.732 210.285C155.003 211.641 156.727 212.403 158.525 212.403H168.209C170.007 212.403 171.731 213.165 173.002 214.521C174.274 215.878 174.988 217.717 174.988 219.636C174.988 221.554 174.274 223.394 173.002 224.75C171.731 226.106 170.007 226.868 168.209 226.868H153.406" stroke="black" stroke-width="2" stroke-linecap="square"/>
<path d="M52.8125 162.514H173.728" stroke="black" stroke-width="2"/>
<path d="M52.8125 185.928H173.728" stroke="black" stroke-width="2"/>
<path d="M52.8125 209.34H125.362" stroke="black" stroke-width="2"/>
<path d="M52.8125 232.754H125.362" stroke="black" stroke-width="2"/>
<rect x="158.234" y="60.2832" width="16.6869" height="16.092" rx="3" fill="white" stroke="black" stroke-width="2"/>
<rect x="158.234" y="89.0156" width="16.6869" height="16.092" rx="3" fill="white" stroke="black" stroke-width="2"/>
<rect x="158.234" y="117.752" width="16.6869" height="16.092" rx="3" fill="white" stroke="black" stroke-width="2"/>
</svg>
