<svg width="26" height="26" viewBox="0 0 26 26" fill="none" xmlns="http://www.w3.org/2000/svg">
<path d="M2.70835 2.6955L3.77068 1.77495C4.99489 0.550928 6.97791 0.550928 8.20211 1.77495C8.23247 1.8053 10.1042 4.24323 10.1042 4.24323C11.2576 5.45713 11.2576 7.36904 10.1042 8.57283L8.93057 10.0497C10.4077 13.3981 12.7044 15.7045 15.9419 17.0803L17.4191 15.8967C18.6231 14.7334 20.5454 14.7334 21.7493 15.8967C21.7493 15.8967 24.1876 17.7682 24.218 17.7985C25.4422 19.0225 25.4422 21.0053 24.2686 22.1787L23.2568 23.342C22.0933 24.5053 20.5251 25.1426 18.8254 25.1426C11.0957 25.1426 0.856861 14.8953 0.856861 7.17683C0.856861 5.48748 1.49426 3.9094 2.70835 2.70561V2.6955ZM18.8254 23.1094C19.9788 23.1094 21.0411 22.6845 21.7696 21.946L22.7813 20.7827C23.1961 20.368 23.2164 19.6902 22.8218 19.2552C22.8218 19.2552 20.4037 17.3939 20.3734 17.3635C19.9586 16.9488 19.2301 16.9488 18.8052 17.3635C18.7748 17.3939 16.7412 19.0225 16.7412 19.0225C16.4579 19.2451 16.0836 19.3058 15.7497 19.1743C11.5611 17.576 8.55622 14.5817 6.82614 10.2622C6.69462 9.92836 6.7452 9.54395 6.9779 9.25059C6.9779 9.25059 8.60681 7.20718 8.62704 7.18695C9.06209 6.75197 9.06209 6.05397 8.62704 5.61899C8.59669 5.58864 6.73509 3.17094 6.73509 3.17094C6.30004 2.77642 5.62217 2.78654 5.15677 3.25187L4.09444 4.17242C3.3154 4.95134 2.88035 6.01351 2.88035 7.16672C2.88035 14.2074 12.7651 23.1094 18.8254 23.1094Z" fill="#465976"/>
</svg>
