<svg width="211" height="272" viewBox="0 0 211 272" fill="none" xmlns="http://www.w3.org/2000/svg">
<rect x="17.6914" y="17.6328" width="193.307" height="254.096" rx="6" fill="black"/>
<path d="M197.243 24.625C199.464 24.625 201.257 26.4043 201.225 28.6252C201.043 41.1644 200.232 83.0223 196.906 151.934C196.835 153.406 196.655 154.906 196.655 155.577C190.761 234.142 119.505 251.721 110.768 252.727C106.736 253.063 98.7888 254.583 85.0121 254.583C68.3346 255.236 43.0645 255.572 3.93665 255.898C2.44427 255.911 1.42505 254.399 2.03832 253.039C26.4161 198.955 27.5573 54.4302 27.5634 28.6031C27.5639 26.3819 29.363 24.625 31.5841 24.625H197.243Z" fill="#FF9E8D" stroke="black" stroke-width="2" stroke-miterlimit="10" stroke-linejoin="round"/>
<path d="M49.3047 100.914H173.009" stroke="black" stroke-width="2"/>
<path d="M49.3047 124.621H173.009" stroke="black" stroke-width="2"/>
<path d="M49.3047 148.328H173.009" stroke="black" stroke-width="2"/>
<path d="M27.0252 79.8604L28.3925 25.3203H116.384V80.4548L27.0252 79.8604Z" fill="#EBF3FF" stroke="black" stroke-width="2"/>
<path d="M40.9064 68.802C40.6633 68.802 40.4444 68.7534 40.2499 68.6561C40.0797 68.5832 39.9946 68.4738 39.9946 68.3279C39.9946 68.1333 40.0797 67.9753 40.2499 67.8537C40.4201 67.7321 40.6633 67.647 40.9794 67.5984C41.9033 67.4039 42.5842 67.1364 43.0218 66.796C43.4595 66.4313 43.6784 65.8477 43.6784 65.0453V50.2737C43.6784 49.2768 43.654 48.523 43.6054 48.0124C43.5568 47.5017 43.4838 47.1613 43.3866 46.9911C43.3136 46.7966 43.1921 46.6872 43.0218 46.6628C42.7787 46.5656 42.4748 46.5048 42.11 46.4805C41.7453 46.4562 41.3927 46.444 41.0523 46.444H39.9216C39.2165 46.444 38.5357 46.6142 37.8791 46.9546C37.2226 47.2707 36.712 47.7084 36.3473 48.2677C36.25 48.4136 36.092 48.6202 35.8731 48.8877C35.6786 49.1552 35.4598 49.3983 35.2166 49.6172C34.9978 49.836 34.7668 49.9454 34.5236 49.9454C34.3534 49.9454 34.2318 49.8846 34.1589 49.7631C34.1103 49.6415 34.0859 49.5077 34.0859 49.3619C34.0859 49.0701 34.1589 48.7783 34.3048 48.4865C34.7181 47.6598 35.0221 46.9425 35.2166 46.3346C35.4354 45.7024 35.5813 44.9608 35.6543 44.1097C35.7029 43.745 35.8002 43.514 35.9461 43.4167C36.1163 43.2952 36.2865 43.2344 36.4567 43.2344C36.6026 43.2344 36.7728 43.3924 36.9673 43.7085C37.1862 44.0003 37.3807 44.2435 37.5509 44.438C37.7697 44.6568 38.1588 44.827 38.718 44.9486C39.2773 45.0459 39.7514 45.0945 40.1405 45.0945L53.599 45.058C54.2799 45.058 54.8513 45.0094 55.3133 44.9121C55.7753 44.7906 56.14 44.669 56.4075 44.5474C56.7722 44.3286 57.064 44.1097 57.2828 43.8909C57.5017 43.6477 57.757 43.5262 58.0488 43.5262C58.1703 43.5262 58.2554 43.5991 58.3041 43.745C58.377 43.8666 58.4135 44.0246 58.4135 44.2191C58.4135 44.3407 58.4013 44.4866 58.377 44.6568C58.3527 44.8027 58.3284 44.9365 58.3041 45.058C58.2068 45.52 58.1096 45.9334 58.0123 46.2981C57.915 46.6385 57.8299 46.9668 57.757 47.2829C57.7084 47.5747 57.684 47.9151 57.684 48.3041V48.9242C57.684 49.2646 57.6354 49.5564 57.5381 49.7995C57.4409 50.0427 57.2828 50.1643 57.064 50.1643C56.8695 50.1643 56.6993 50.0548 56.5534 49.836C56.4318 49.5929 56.2981 49.2281 56.1522 48.7418C55.9333 47.9637 55.5686 47.3923 55.058 47.0276C54.5473 46.6385 53.7449 46.444 52.6507 46.444H50.1706C49.7086 46.444 49.3439 46.5291 49.0764 46.6993C48.8332 46.8695 48.6509 47.2464 48.5293 47.83C48.432 48.3892 48.3834 49.2646 48.3834 50.456V65.0088C48.3834 65.7869 48.6022 66.3583 49.0399 66.7231C49.4776 67.0635 50.1706 67.3553 51.1189 67.5984C51.4107 67.6714 51.6417 67.7565 51.8119 67.8537C51.9821 67.951 52.0672 68.0969 52.0672 68.2914C52.0672 68.4616 51.9821 68.5832 51.8119 68.6561C51.666 68.7291 51.4714 68.7655 51.2283 68.7655C50.6447 68.7655 50.0612 68.7534 49.4776 68.7291C48.894 68.7048 48.3104 68.6804 47.7269 68.6561C47.1676 68.6318 46.6205 68.6197 46.0856 68.6197C45.5506 68.6197 44.9914 68.6318 44.4078 68.6561C43.8486 68.6804 43.265 68.7048 42.6571 68.7291C42.0735 68.7777 41.49 68.802 40.9064 68.802Z" fill="black"/>
<path d="M56.8292 68.8385C56.5374 68.8385 56.2943 68.7899 56.0997 68.6926C55.9052 68.6197 55.8079 68.4859 55.8079 68.2914C55.8079 68.0726 55.8931 67.9024 56.0633 67.7808C56.2578 67.6592 56.5009 67.5498 56.7927 67.4525C57.4979 67.258 58.1058 66.9662 58.6164 66.5772C59.1513 66.1638 59.5768 65.6045 59.8929 64.8994C60.5008 63.4648 61.0844 62.091 61.6436 60.7779C62.2029 59.4406 62.7378 58.1154 63.2485 56.8024C63.7591 55.4893 64.2697 54.152 64.7803 52.7903C65.3153 51.4287 65.8502 49.9941 66.3851 48.4865C66.6526 47.7327 66.835 47.1492 66.9322 46.7358C67.0295 46.3224 67.1146 46.0185 67.1876 45.824C67.5523 45.7267 67.8927 45.6294 68.2088 45.5322C68.5249 45.4349 68.8775 45.3133 69.2665 45.1674C69.6069 44.9972 69.8987 44.7784 70.1419 44.5109C70.385 44.2435 70.5674 44.0368 70.689 43.8909C70.7619 43.8423 70.8349 43.8179 70.9078 43.8179C70.9808 43.7936 71.0537 43.8423 71.1267 43.9638C71.1996 44.1097 71.2604 44.2556 71.309 44.4015C71.3576 44.5474 71.4063 44.7055 71.4549 44.8757C71.9898 46.6021 72.5369 48.3528 73.0962 50.1278C73.6798 51.8785 74.2512 53.6171 74.8104 55.3434C75.3697 57.0455 75.9046 58.6868 76.4152 60.2673C76.9502 61.8235 77.4365 63.2581 77.8742 64.5711C78.093 65.2277 78.3605 65.7504 78.6766 66.1395C79.017 66.5285 79.3817 66.8325 79.7708 67.0513C80.1841 67.2458 80.634 67.4039 81.1203 67.5255C81.4364 67.5984 81.6795 67.6957 81.8497 67.8172C82.02 67.9388 82.1051 68.109 82.1051 68.3279C82.1051 68.4738 82.02 68.5832 81.8497 68.6561C81.7039 68.7291 81.5093 68.7655 81.2662 68.7655C80.8285 68.7655 80.2692 68.7534 79.5884 68.7291C78.9319 68.7048 78.2511 68.6804 77.5459 68.6561C76.8408 68.6075 76.2086 68.5832 75.6493 68.5832C75.163 68.5832 74.6159 68.5953 74.008 68.6197C73.4245 68.644 72.8287 68.6683 72.2208 68.6926C71.6373 68.7169 71.1388 68.7291 70.7254 68.7291C70.4823 68.7291 70.2635 68.6926 70.0689 68.6197C69.8987 68.5224 69.8136 68.3887 69.8136 68.2184C69.8136 68.0239 69.9109 67.8659 70.1054 67.7443C70.2999 67.5984 70.5309 67.5011 70.7984 67.4525C71.6737 67.3066 72.306 67.0878 72.695 66.796C73.084 66.4799 73.2299 66.0301 73.1327 65.4465C73.0597 65.0331 72.9503 64.5468 72.8044 63.9876C72.6585 63.404 72.5005 62.8083 72.3303 62.2004C72.1844 61.5682 72.0263 60.9968 71.8561 60.4862C71.8075 60.2916 71.7345 60.1579 71.6373 60.0849C71.54 59.9877 71.3576 59.9391 71.0902 59.9391H64.525C64.3548 59.9391 64.2211 59.9998 64.1238 60.1214C64.0266 60.2187 63.9536 60.3767 63.905 60.5956C63.8077 60.9117 63.6861 61.2764 63.5402 61.6898C63.4187 62.0788 63.2849 62.4922 63.139 62.9298C63.0175 63.3432 62.8959 63.7323 62.7743 64.097C62.677 64.4617 62.6041 64.7778 62.5555 65.0453C62.4339 65.7018 62.5433 66.2246 62.8837 66.6136C63.2485 66.9784 63.8685 67.2701 64.7439 67.489C65.4004 67.6592 65.7286 67.9145 65.7286 68.2549C65.7286 68.4008 65.6435 68.5224 65.4733 68.6197C65.3274 68.6926 65.1086 68.7291 64.8168 68.7291C64.2576 68.7291 63.674 68.7048 63.0661 68.6561C62.4582 68.6318 61.7895 68.6197 61.0601 68.6197C60.3306 68.6197 59.6133 68.6561 58.9082 68.7291C58.2273 68.802 57.5343 68.8385 56.8292 68.8385ZM65.5098 58.2613H70.5796C70.92 58.2613 71.0902 58.1883 71.0902 58.0425C71.0902 57.9695 71.078 57.9087 71.0537 57.8601C71.0537 57.8115 71.0415 57.7385 71.0172 57.6412L68.4641 49.216C68.3669 48.8755 68.2817 48.7053 68.2088 48.7053C68.1602 48.7053 68.0751 48.8634 67.9535 49.1795L64.8898 57.6412C64.8411 57.7628 64.8168 57.8601 64.8168 57.933C64.8168 58.0546 64.8776 58.1397 64.9992 58.1883C65.1451 58.237 65.3153 58.2613 65.5098 58.2613Z" fill="black"/>
<path d="M83.5252 68.875C83.2334 68.875 82.9781 68.8385 82.7593 68.7655C82.5405 68.6926 82.431 68.5589 82.431 68.3643C82.431 68.1455 82.5283 67.9875 82.7228 67.8902C82.9417 67.7929 83.197 67.6957 83.4888 67.5984C83.9507 67.4525 84.4371 67.2458 84.9477 66.9784C85.4826 66.7109 86.0297 66.3462 86.589 65.8842C87.1482 65.3979 87.6953 64.8143 88.2303 64.1335L92.7164 58.4072C93.0082 58.0425 93.1663 57.6656 93.1906 57.2765C93.2392 56.8875 93.0933 56.462 92.7529 56L87.6832 48.8512C87.2941 48.292 86.9172 47.83 86.5525 47.4653C86.2121 47.0762 85.8595 46.7723 85.4948 46.5534C85.13 46.3346 84.7167 46.1644 84.2547 46.0428C83.9629 45.9455 83.7197 45.8483 83.5252 45.751C83.355 45.6294 83.2699 45.4714 83.2699 45.2769C83.2699 45.1067 83.355 44.9851 83.5252 44.9121C83.6954 44.8392 83.9021 44.8027 84.1453 44.8027C85.0693 44.8027 86.0905 44.8392 87.209 44.9121C88.3275 44.9851 89.4096 45.0094 90.4551 44.9851C91.2332 44.9851 91.987 44.9608 92.7164 44.9121C93.4459 44.8392 94.1389 44.8027 94.7954 44.8027C95.0386 44.8027 95.2574 44.8513 95.4519 44.9486C95.6708 45.0216 95.7802 45.1431 95.7802 45.3133C95.7802 45.5079 95.6708 45.6659 95.4519 45.7875C95.2574 45.8848 95.0021 45.982 94.686 46.0793C94.0052 46.2495 93.4945 46.4197 93.1541 46.5899C92.8137 46.7601 92.6435 47.0276 92.6435 47.3923C92.6435 47.7327 92.911 48.2677 93.4459 48.9971L96.8379 53.7386C97.0811 54.0547 97.2877 54.2249 97.458 54.2493C97.6282 54.2493 97.8227 54.1034 98.0415 53.8116L101.361 49.3254C101.677 48.912 101.908 48.5473 102.054 48.2312C102.199 47.8908 102.272 47.599 102.272 47.3558C102.272 47.0641 102.139 46.8209 101.871 46.6264C101.628 46.4075 101.215 46.2252 100.631 46.0793C100.388 46.0306 100.133 45.9455 99.8652 45.824C99.622 45.6781 99.5004 45.5079 99.5004 45.3133C99.5004 45.1431 99.5977 45.0216 99.7922 44.9486C100.011 44.8757 100.279 44.8392 100.595 44.8392C101.032 44.8392 101.409 44.8513 101.725 44.8757C102.041 44.8757 102.358 44.8878 102.674 44.9121C102.99 44.9365 103.367 44.9486 103.804 44.9486C104.509 44.9486 105.166 44.9121 105.774 44.8392C106.406 44.7419 107.038 44.6933 107.67 44.6933C107.962 44.6933 108.218 44.7419 108.436 44.8392C108.68 44.9121 108.801 45.0459 108.801 45.2404C108.801 45.4349 108.692 45.5808 108.473 45.6781C108.254 45.7753 107.987 45.8726 107.67 45.9699C107.087 46.1401 106.455 46.517 105.774 47.1005C105.093 47.6598 104.473 48.2798 103.914 48.9607L99.1722 54.7599C98.8804 55.1003 98.7102 55.3921 98.6616 55.6352C98.6372 55.8541 98.7345 56.1459 98.9533 56.5106L104.898 64.9723C105.336 65.6045 105.822 66.1516 106.357 66.6136C106.892 67.0513 107.427 67.3553 107.962 67.5255C108.278 67.5741 108.57 67.6714 108.838 67.8172C109.105 67.9631 109.239 68.1455 109.239 68.3643C109.239 68.5102 109.142 68.6197 108.947 68.6926C108.777 68.7899 108.546 68.8385 108.254 68.8385C107.549 68.8385 106.819 68.8142 106.066 68.7655C105.336 68.7412 104.607 68.7048 103.877 68.6561C103.172 68.6075 102.455 68.5953 101.725 68.6197C100.996 68.6197 100.279 68.6318 99.5734 68.6561C98.8926 68.6804 98.236 68.6926 97.6038 68.6926C97.3607 68.6926 97.1297 68.6561 96.9109 68.5832C96.692 68.4859 96.5826 68.3643 96.5826 68.2184C96.5826 68.0239 96.7042 67.8659 96.9473 67.7443C97.2148 67.5984 97.458 67.5011 97.6768 67.4525C98.1145 67.3309 98.54 67.1607 98.9533 66.9419C99.391 66.6987 99.6099 66.3583 99.6099 65.9206C99.6099 65.7504 99.5855 65.5924 99.5369 65.4465C99.4883 65.3006 99.391 65.1304 99.2451 64.9359L95.3425 59.392C95.0994 59.0029 94.8805 58.7841 94.686 58.7354C94.4915 58.6868 94.2605 58.857 93.993 59.2461L90.0539 64.6076C89.8108 64.9723 89.6527 65.2884 89.5798 65.5559C89.5311 65.8234 89.519 66.0301 89.5433 66.176C89.5676 66.4921 89.7257 66.7717 90.0174 67.0148C90.3092 67.258 90.7104 67.4282 91.2211 67.5255C91.5372 67.5741 91.8046 67.6714 92.0235 67.8172C92.2423 67.9388 92.3517 68.0969 92.3517 68.2914C92.3517 68.4616 92.2423 68.5832 92.0235 68.6561C91.8289 68.7291 91.5858 68.7655 91.294 68.7655C90.7104 68.7655 90.0904 68.7412 89.4339 68.6926C88.8017 68.6683 88.2303 68.6561 87.7196 68.6561C86.9659 68.6561 86.2486 68.6926 85.5677 68.7655C84.8869 68.8385 84.2061 68.875 83.5252 68.875Z" fill="black"/>
<path d="M195 153C190.195 234.8 118.349 251.482 109.426 252.488C105.308 252.823 97.4146 253.494 83.3438 253.494C120.408 236.732 140.313 206.56 139.97 183.092C157.816 184.433 186.077 183.507 195 153Z" fill="black" stroke="white" stroke-width="2" stroke-miterlimit="10" stroke-linejoin="round"/>
<path d="M153.25 16.2668V24.9972C153.25 25.6688 153.25 26.0046 153.25 26.6761C152.242 32.3845 147.538 37.0855 141.49 37.0855H85.3773C79.3293 37.0855 74.6252 32.3845 73.6172 26.6761C73.6172 26.0046 73.6172 25.6688 73.6172 24.9972V16.2668C73.6172 14.9237 74.6252 13.2448 76.3052 13.2448H103.858C103.858 12.5732 103.858 12.2374 103.858 11.9016C103.858 6.5291 108.562 1.82812 113.938 1.82812C119.314 1.82812 124.018 6.5291 124.018 11.9016C124.018 12.5732 124.018 12.909 124.018 13.2448H151.57C152.242 13.5806 153.25 14.5879 153.25 16.2668Z" fill="black" stroke="black" stroke-width="2" stroke-miterlimit="10" stroke-linejoin="round"/>
</svg>
