<svg width="238" height="254" viewBox="0 0 238 254" fill="none" xmlns="http://www.w3.org/2000/svg">
<path d="M231.941 65.8627L109.914 14.1055C86.1132 88.2126 31.6997 154.312 7.46801 178.098C37.7072 193.605 104.9 227.873 131.756 240.887C187.542 174.082 221.79 96.3687 231.941 65.8627Z" fill="white" stroke="black" stroke-width="2"/>
<path d="M92.8321 193.627L119.274 161.556L108.083 156.133L80.7862 187.764L92.8321 193.627Z" fill="#F6F6F6"/>
<path d="M114.343 204.096L147.778 162.327L134.771 156.489L101.436 197.814L114.343 204.096Z" fill="#F6F6F6"/>
<path d="M72.182 183.577L89.4458 162.395L78.2555 156.972L60.5663 177.924L72.182 183.577Z" fill="#F6F6F6"/>
<path d="M77.3671 135.737C70.7454 147.992 55.6637 165.199 48.9506 172.271L60.5663 177.924M122.947 208.283L114.343 204.096M114.343 204.096L147.778 162.327L134.771 156.489L101.436 197.814M114.343 204.096L101.436 197.814M101.436 197.814L92.8321 193.627M92.8321 193.627L119.274 161.556L108.083 156.133L80.7862 187.764M92.8321 193.627L80.7862 187.764M80.7862 187.764L72.182 183.577M72.182 183.577L89.4458 162.395L78.2555 156.972L60.5663 177.924M72.182 183.577L60.5663 177.924" stroke="black" stroke-width="2"/>
<path d="M112.441 49.0996L199.366 87.1075" stroke="black" stroke-width="2"/>
<path d="M100.766 75.1133L186.081 111.798" stroke="black" stroke-width="2"/>
<path d="M89.5078 99.3125L173.707 136.698" stroke="black" stroke-width="2"/>
</svg>
