<svg width="258" height="192" viewBox="0 0 258 192" fill="none" xmlns="http://www.w3.org/2000/svg">
<path d="M227.383 190.999H25.9102C22.0442 190.999 18.9102 187.865 18.9102 183.999V32.5625C18.9102 28.6965 22.0442 25.5625 25.9102 25.5625H246.673C250.539 25.5625 253.673 28.6965 253.673 32.5625V183.999C253.673 187.865 250.539 190.999 246.673 190.999H227.383Z" fill="white" stroke="black" stroke-width="2"/>
<path d="M18.6484 108.126V86.0948L21.9571 38.728L232.25 37.416L221.588 106.657L101.368 121.712L18.6484 108.126Z" fill="black"/>
<path d="M221.852 36.5625C221.852 30.4874 226.776 25.5625 232.852 25.5625H248C252.971 25.5625 257 29.5919 257 34.5625V190.999L221.852 190.999V36.5625Z" fill="#E4EEFC" stroke="black" stroke-width="2" stroke-linejoin="round"/>
<path d="M112.001 1C108.756 3.15441 106.617 6.84203 106.617 11.0293V12.4466V25.0325H90.2344V16C90.2344 7.71573 96.9501 1 105.234 1H112.001Z" fill="white" stroke="black" stroke-width="2" stroke-linejoin="round"/>
<path d="M152.455 1C156.157 3.32241 158.618 7.43994 158.618 12.1323V12.4467V25.0325H175V16C175 7.71573 168.284 1 160 1H152.455Z" fill="white" stroke="black" stroke-width="2" stroke-linejoin="round"/>
<path d="M247.5 25.6211L241.64 26.4442C232.148 27.7774 224.359 34.6304 221.829 43.8755L207.965 94.5332C207.091 97.7282 204.337 100.054 201.041 100.382L96.8641 110.752C96.1923 110.819 95.5147 110.801 94.8475 110.697L8.71778 97.3605C4.42566 96.6959 1.44786 92.728 2.00899 88.4211L9.28347 32.5875C9.80268 28.6025 13.1977 25.6211 17.2164 25.6211H247.5Z" fill="white" stroke="black" stroke-width="2" stroke-linejoin="round"/>
<path d="M111.854 79.8337L106.827 95.2959C106.426 96.5318 105.274 97.3684 103.974 97.3684H95.6799C93.6775 97.3684 92.2372 95.4441 92.8015 93.5229L97.3434 78.0607C97.7186 76.7835 98.8906 75.9062 100.222 75.9062H109.001C111.039 75.9062 112.484 77.8953 111.854 79.8337Z" fill="black" stroke="black" stroke-width="2"/>
<path d="M155 1H107" stroke="black" stroke-width="2" stroke-linejoin="round"/>
</svg>
