<svg width="1920" height="350" viewBox="0 0 1920 350" fill="none" xmlns="http://www.w3.org/2000/svg">
<path d="M2019.88 4.54573C1768.36 -6.91219 1623.98 153.857 1603.85 145.435C1571.24 128.608 1485.68 24.4412 1465.34 94.511C1440.8 179.045 1349.63 239.333 1234.62 248.346" stroke="black" stroke-width="1.5"/>
<path d="M-196.864 181.52C-177.964 122.473 -101.37 209.645 -72.0126 223.628C-53.8664 230.606 112.414 69.8809 455.957 123.21C590.243 144.569 701.055 169.586 963.965 238.049" stroke="black" stroke-width="1.5"/>
<path d="M1055.72 275.206C1059.85 273.095 1062.29 269.195 1064.62 263.416C1066.46 268.023 1068.84 272.6 1073.75 275.154C1069.15 278.233 1067.13 280.227 1064.35 287.442C1064.17 284.157 1060.64 277.76 1055.72 275.206Z" stroke="black" stroke-width="1.5"/>
<path d="M1086.02 244.956C1097.13 238.448 1103.54 226.516 1109.55 208.863C1114.84 222.868 1121.57 236.775 1135.1 244.469C1122.74 253.935 1117.38 260.049 1110.22 282.09C1109.54 272.08 1099.54 252.65 1086.02 244.956Z" stroke="black" stroke-width="1.5"/>
</svg>
