<svg width="320" height="84" viewBox="0 0 320 84" fill="none" xmlns="http://www.w3.org/2000/svg">
<path d="M-59.2868 1.2759C0.611759 -1.93933 34.9938 43.1744 39.7901 40.8112C47.5557 36.0893 67.932 6.85882 72.776 26.5213C90.4742 98.3601 161.607 56.2292 211.436 40.8112" stroke="black" stroke-width="1.5"/>
<path d="M512.667 80.3464C473.671 91.0076 465.829 58.8062 460.985 39.1437C456.141 19.4813 435.765 48.7118 427.999 53.4337C423.203 55.7969 381.01 2.61984 290.388 21.0776" stroke="black" stroke-width="1.5"/>
<path d="M282.74 67.1204C279.845 65.6415 278.136 62.9083 276.498 58.8595C275.205 62.0872 273.54 65.2944 270.093 67.084C273.323 69.2411 274.734 70.6383 276.688 75.6942C276.815 73.392 279.293 68.91 282.74 67.1204Z" stroke="black" stroke-width="1.5"/>
<path d="M261.485 45.9231C253.688 41.3632 249.191 33.0023 244.969 20.6333C241.258 30.4464 236.537 40.1905 227.046 45.5817C235.715 52.2146 239.476 56.4985 244.502 71.9425C244.981 64.9284 251.994 51.3143 261.485 45.9231Z" stroke="black" stroke-width="1.5"/>
</svg>
