<svg width="160" height="130" viewBox="0 0 160 130" fill="none" xmlns="http://www.w3.org/2000/svg">
<path d="M74.3668 99.1928C77.0055 104.012 80.8167 108.089 85.448 111.046C90.0794 114.003 95.3814 115.744 100.864 116.109C106.347 116.475 111.833 115.452 116.815 113.135C121.798 110.819 126.116 107.284 129.371 102.857C132.626 98.4297 134.712 93.2535 135.436 87.8068C136.161 82.36 135.501 76.8185 133.517 71.6945C131.533 66.5704 128.289 62.0293 124.085 58.4908C119.881 54.9523 114.853 52.5307 109.466 51.4498L103.036 83.4965L74.3668 99.1928Z" fill="black"/>
<path d="M72.6676 95.1219C75.2295 99.5284 78.8167 103.264 83.1313 106.01C87.6583 108.891 92.8397 110.59 98.1964 110.95C103.553 111.309 108.912 110.318 113.778 108.068C118.644 105.817 122.859 102.381 126.035 98.0757C129.21 93.7706 131.244 88.7359 131.947 83.437C132.651 78.1381 132.001 72.7458 130.06 67.7583C128.118 62.7709 124.945 58.3492 120.836 54.9024C116.918 51.6161 112.269 49.3171 107.282 48.1947L101.028 79.3645L100.959 79.7079L100.651 79.8755L72.6676 95.1219Z" fill="white" stroke="black" stroke-width="1.5"/>
<path d="M99.0392 104.074C103.164 104.351 107.291 103.587 111.038 101.854C114.785 100.121 118.031 97.4747 120.477 94.1589C122.923 90.8431 124.489 86.9652 125.031 82.8838C125.573 78.8024 125.073 74.6491 123.577 70.8079C122.082 66.9667 119.638 63.5615 116.474 60.9072" stroke="black" stroke-width="1.5"/>
<mask id="path-4-inside-1_101_402" fill="white">
<path d="M10 34.1046L-nan -nanL10 34.1046C34.9029 20.3479 65.1264 20.3479 90.0292 34.1046L-nan -nanL90.0292 34.1046V102.937L50.0146 127L10 102.937V34.1046Z"/>
</mask>
<path d="M10 34.1046L-nan -nanL10 34.1046C34.9029 20.3479 65.1264 20.3479 90.0292 34.1046L-nan -nanL90.0292 34.1046V102.937L50.0146 127L10 102.937V34.1046Z" fill="white"/>
<path d="M90.0292 102.937L90.8023 104.222L91.5292 103.785V102.937H90.0292ZM10 102.937H8.5V103.785L9.22697 104.222L10 102.937ZM50.0146 127L49.2416 128.285L50.0146 128.75L50.7877 128.285L50.0146 127ZM88.5292 34.1046V102.937H91.5292V34.1046H88.5292ZM11.5 102.937V34.1046H8.5V102.937H11.5ZM89.2562 101.651L49.2416 125.715L50.7877 128.285L90.8023 104.222L89.2562 101.651ZM50.7877 125.715L10.773 101.651L9.22697 104.222L49.2416 128.285L50.7877 125.715ZM10.7253 35.4176C35.1768 21.9103 64.8525 21.9103 89.3039 35.4176L90.7546 32.7916C65.4003 18.7856 34.629 18.7856 9.27469 32.7916L10.7253 35.4176Z" fill="black" mask="url(#path-4-inside-1_101_402)"/>
<mask id="path-6-inside-2_101_402" fill="white">
<path d="M15 38.4138L-nan -nanL15 38.4138C36.7709 26.338 63.2291 26.338 85 38.4138L-nan -nanL85 38.4138V98.8663L50 120L15 98.8663V38.4138Z"/>
</mask>
<path d="M15 38.4138L-nan -nanL15 38.4138C36.7709 26.338 63.2291 26.338 85 38.4138L-nan -nanL85 38.4138V98.8663L50 120L15 98.8663V38.4138Z" fill="white"/>
<path d="M85 98.8663L85.7754 100.15L86.5 99.7128V98.8663H85ZM15 98.8663H13.5V99.7128L14.2246 100.15L15 98.8663ZM50 120L49.2247 121.284L50 121.752L50.7753 121.284L50 120ZM83.5 38.4138V98.8663H86.5V38.4138H83.5ZM16.5 98.8663V38.4138H13.5V98.8663H16.5ZM84.2246 97.5823L49.2247 118.716L50.7753 121.284L85.7754 100.15L84.2246 97.5823ZM50.7753 118.716L15.7754 97.5823L14.2246 100.15L49.2247 121.284L50.7753 118.716ZM15.7276 39.7255C37.0459 27.9007 62.9541 27.9007 84.2724 39.7255L85.7276 37.102C63.5041 24.7752 36.4959 24.7752 14.2724 37.102L15.7276 39.7255Z" fill="black" mask="url(#path-6-inside-2_101_402)"/>
<path fill-rule="evenodd" clip-rule="evenodd" d="M47.0441 55.1605C47.3155 55.0535 47.7797 54.925 48.0868 54.8679H48.0797C48.4868 54.7965 48.9939 54.7751 49.9223 54.7893C50.915 54.8107 51.3292 54.8536 51.7435 54.9607C52.0363 55.0392 52.4576 55.1748 52.6719 55.2605C52.8862 55.3461 53.179 55.4818 53.3147 55.5603C53.4504 55.646 53.736 55.8458 53.9503 56.0029C54.1646 56.1671 54.4716 56.4883 54.6431 56.7239C54.8073 56.9595 55.0216 57.3307 55.1073 57.5448C55.2501 57.8803 55.2715 58.0588 55.2715 58.7941C55.2715 59.458 55.2358 59.7435 55.1287 60.0433C55.0573 60.2575 54.8787 60.6216 54.743 60.8571C54.6073 61.0856 54.3074 61.4639 54.0788 61.6924C53.8575 61.9279 53.4575 62.2563 53.1861 62.4276C52.9219 62.599 52.5434 62.8131 52.3505 62.8988C52.1505 62.9916 51.7363 63.1486 51.4221 63.2557C51.1078 63.3628 50.715 63.4699 50.5436 63.4984C50.3794 63.5198 50.2437 63.5555 50.2437 63.577C50.2437 63.597 50.2936 63.6856 50.3526 63.7904L50.3651 63.8125C50.4365 63.9196 50.7936 64.4407 51.165 64.969C51.5364 65.4972 52.2148 66.4324 52.679 67.0392C53.1361 67.646 53.8503 68.5454 54.2645 69.038C54.6788 69.5306 55.193 70.1088 55.8072 70.7156L56.05 70.3229C56.1857 70.1088 56.3785 69.759 56.4857 69.5591C56.5856 69.3521 56.757 68.8809 56.857 68.524C57.0142 67.9743 57.0427 67.753 57.0213 67.2533C56.9927 66.7893 56.9427 66.5538 56.7999 66.2539C56.6928 66.0255 56.4714 65.7328 56.2643 65.5544C56.0786 65.3902 55.7786 65.2046 55.6001 65.1474C55.4215 65.0832 55.1573 65.0404 54.743 65.0404V64.3265H58.245V54.9302L66.2278 54.9302C71.7187 54.9302 76.1699 59.3814 76.1699 64.8723C76.1699 70.3632 71.7187 74.8144 66.2278 74.8144L57.1499 74.8139L57.1568 74.8101C56.9022 74.8161 56.6539 74.8004 56.3142 74.7632C55.8857 74.7132 55.293 74.5847 54.9216 74.4562C54.5645 74.3348 54.0717 74.1278 53.3504 73.7281L52.7433 73.985C52.4077 74.1207 51.9863 74.2849 51.7935 74.3491C51.6078 74.4134 51.2435 74.5133 50.9721 74.5704C50.7079 74.6275 50.2008 74.706 49.8509 74.7489C49.4938 74.7846 48.9153 74.8203 48.5653 74.8203C48.2082 74.8203 47.6155 74.7846 47.2441 74.7489C46.8727 74.706 46.3085 74.6275 45.9943 74.5633C45.68 74.499 45.1301 74.3491 44.7802 74.2349C44.4231 74.1135 43.9089 73.9065 43.6375 73.7709C43.3589 73.6281 42.9447 73.3854 42.709 73.2141C42.4733 73.0499 42.052 72.6715 41.7806 72.3789C41.7414 72.3371 41.703 72.2948 41.6654 72.2521C39.8582 73.8635 37.4854 74.815 34.9421 74.815C29.4513 74.815 25 70.3637 25 64.8728C25 59.3819 29.4513 54.9307 34.9421 54.9307H35.1845C37.4051 54.9307 39.576 55.588 41.4236 56.8197L39.4914 59.7181C38.2159 58.8678 36.7173 58.4141 35.1845 58.4141H34.9421C31.3751 58.4141 28.4834 61.3057 28.4834 64.8728C28.4834 68.4399 31.3751 71.3316 34.9421 71.3316C37.0617 71.3316 39.0005 70.3228 40.2257 68.6987H37.4821V65.2153H43.3576C43.4861 65.1477 43.6086 65.0866 43.7089 65.0404C43.9803 64.919 44.4731 64.7405 44.7944 64.6406C45.123 64.5478 45.3872 64.455 45.3872 64.4336C45.3872 64.4122 45.2515 64.1338 45.0801 63.8125C44.9087 63.4842 44.6587 62.9488 44.5159 62.6132C44.3731 62.2777 44.166 61.6995 44.066 61.3283C43.9446 60.8928 43.866 60.3789 43.8374 59.9006C43.8089 59.2795 43.8303 59.0368 43.9517 58.5085C44.0374 58.1516 44.2302 57.6376 44.3731 57.3664C44.5373 57.0594 44.8302 56.6668 45.1373 56.3598C45.4158 56.0743 45.8443 55.7388 46.1014 55.596C46.3585 55.4532 46.7799 55.2605 47.0441 55.1605ZM61.5107 71.3775V71.3311H66.2278C69.7949 71.3311 72.6865 68.4394 72.6865 64.8723C72.6865 61.3052 69.7949 58.4135 66.2278 58.4135H61.7284V64.3265H61.7388V65.1416C61.5612 65.1977 61.3678 65.2738 61.2064 65.3545C60.9279 65.4901 60.4708 65.8113 60.1923 66.0541C59.9066 66.3039 59.4781 66.7322 59.2353 67.0035C58.9924 67.2748 58.6639 67.6817 58.4997 67.8958C58.3282 68.11 57.7926 68.8809 57.307 69.6019C56.8213 70.3229 56.3785 70.9654 56.3285 71.0297C56.25 71.1296 56.3071 71.201 56.7928 71.5793C57.0999 71.822 57.5284 72.1147 57.7426 72.2289C57.9569 72.3503 58.314 72.5074 58.5282 72.5787C58.7568 72.6501 59.1281 72.7072 59.421 72.7072C59.8138 72.7072 60.0137 72.6644 60.328 72.5145C60.5565 72.4074 60.8922 72.1718 61.0707 71.9862C61.2105 71.8419 61.3625 71.6337 61.5107 71.3775ZM47.9583 55.8744C48.0583 55.7602 48.2654 55.6031 48.4225 55.5317C48.6439 55.4318 48.8296 55.4033 49.2438 55.4247C49.658 55.4389 49.8509 55.4889 50.1008 55.6317C50.2794 55.7316 50.5508 55.9529 50.7008 56.1243C50.8579 56.2956 51.0721 56.6311 51.1864 56.8667C51.2935 57.1022 51.4364 57.5377 51.5006 57.8304C51.5863 58.2373 51.6078 58.6013 51.5792 59.3295C51.5506 60.0005 51.4935 60.4431 51.3935 60.7929C51.3078 61.0642 51.1435 61.4996 51.015 61.7495C50.8722 62.0279 50.6222 62.3491 50.3722 62.5847C50.1437 62.7989 49.9294 62.9702 49.8866 62.9702C49.8437 62.9702 49.5938 62.5918 49.3224 62.135C49.0438 61.671 48.651 60.9214 48.4368 60.4717C48.2225 60.0219 47.9369 59.3438 47.8154 58.9726C47.6226 58.4229 47.5798 58.1516 47.5512 57.5091C47.5226 56.8595 47.5369 56.6668 47.644 56.4027C47.7155 56.2242 47.8583 55.9886 47.9583 55.8744ZM45.3658 66.1112C45.4586 65.897 45.6086 65.6115 45.6943 65.483C45.78 65.3616 45.8657 65.2545 45.88 65.2545C45.9014 65.2545 46.2228 65.7257 46.587 66.3039C46.9584 66.8893 47.5012 67.6959 47.8012 68.11C48.1011 68.524 48.651 69.245 49.0224 69.7162C49.4009 70.1802 50.058 70.9369 50.4936 71.3795C50.9293 71.8292 51.5364 72.4074 51.8506 72.6644L52.0655 72.8401C52.294 73.0267 52.4852 73.1829 52.5291 73.2212C52.6219 73.2997 52.5933 73.3283 52.3505 73.4282C52.1934 73.4925 51.8077 73.6067 51.4935 73.6852C51.1078 73.778 50.665 73.8209 50.1365 73.8209C49.5723 73.8209 49.1867 73.778 48.7796 73.6781C48.4654 73.5924 47.9868 73.4068 47.7083 73.264C47.4369 73.1213 46.987 72.7929 46.7227 72.5359C46.4514 72.2789 46.0871 71.8506 45.9157 71.5722C45.7443 71.2938 45.5229 70.8298 45.4158 70.5371C45.3158 70.2444 45.1872 69.7661 45.1301 69.4806C45.073 69.2022 45.0301 68.6025 45.0301 68.1599C45.0301 67.7245 45.0658 67.1677 45.1087 66.9321C45.1515 66.6965 45.2658 66.3253 45.3658 66.1112Z" fill="black"/>
<path d="M30.8036 87.9897C30.3223 87.9897 29.9089 87.8934 29.5632 87.7009C29.2219 87.504 28.9594 87.2284 28.7756 86.874C28.5919 86.5152 28.5 86.0929 28.5 85.6073C28.5 85.1216 28.5919 84.7016 28.7756 84.3472C28.9594 83.9928 29.2219 83.7193 29.5632 83.5268C29.9089 83.3299 30.3223 83.2314 30.8036 83.2314C31.1274 83.2314 31.4184 83.2774 31.6765 83.3693C31.9391 83.4612 32.1644 83.5968 32.3525 83.7762L32.0769 84.4456C31.8712 84.2794 31.6722 84.1612 31.4796 84.0912C31.2915 84.0168 31.0749 83.9796 30.8299 83.9796C30.3617 83.9796 30.0029 84.1218 29.7535 84.4062C29.5085 84.6863 29.386 85.0866 29.386 85.6073C29.386 86.128 29.5085 86.5305 29.7535 86.8149C30.0029 87.0993 30.3617 87.2415 30.8299 87.2415C31.0749 87.2415 31.2915 87.2065 31.4796 87.1365C31.6722 87.0621 31.8712 86.9396 32.0769 86.7689L32.3525 87.4384C32.1644 87.6134 31.9391 87.749 31.6765 87.8453C31.4184 87.9416 31.1274 87.9897 30.8036 87.9897Z" fill="black"/>
<path d="M33.0424 85.6073C33.0424 85.1216 33.1299 84.7016 33.3049 84.3472C33.4843 83.9928 33.7402 83.7193 34.0728 83.5268C34.4053 83.3299 34.8013 83.2314 35.2607 83.2314C35.7157 83.2314 36.1095 83.3299 36.442 83.5268C36.7746 83.7193 37.0305 83.9928 37.2099 84.3472C37.3937 84.7016 37.4856 85.1194 37.4856 85.6007C37.4856 86.0864 37.3937 86.5086 37.2099 86.8674C37.0305 87.2218 36.7746 87.4974 36.442 87.6943C36.1095 87.8912 35.7157 87.9897 35.2607 87.9897C34.8013 87.9897 34.4053 87.8912 34.0728 87.6943C33.7446 87.4974 33.4908 87.2218 33.3115 86.8674C33.1321 86.5086 33.0424 86.0886 33.0424 85.6073ZM33.9284 85.6073C33.9284 86.128 34.04 86.5349 34.2631 86.828C34.4862 87.1212 34.8188 87.2677 35.2607 87.2677C35.6895 87.2677 36.0198 87.1212 36.2517 86.828C36.4836 86.5349 36.5996 86.128 36.5996 85.6073C36.5996 85.0822 36.4836 84.6753 36.2517 84.3865C36.0242 84.0978 35.6939 83.9534 35.2607 83.9534C34.8188 83.9534 34.4862 84.0978 34.2631 84.3865C34.04 84.6753 33.9284 85.0822 33.9284 85.6073Z" fill="black"/>
<path d="M38.5561 87.924V83.2971H39.1927L41.877 86.7689H41.7064V83.2971H42.4939V87.924H41.8573L39.1796 84.4522H39.3436V87.924H38.5561Z" fill="black"/>
<path d="M45.3218 87.9897C44.9499 87.9897 44.6065 87.9437 44.2914 87.8519C43.9808 87.7556 43.7139 87.6243 43.4907 87.4581L43.7533 86.7952C43.902 86.9002 44.0574 86.9899 44.2192 87.0643C44.3811 87.1343 44.554 87.189 44.7377 87.2284C44.9215 87.2634 45.1162 87.2809 45.3218 87.2809C45.6675 87.2809 45.9169 87.224 46.07 87.1102C46.2232 86.9965 46.2997 86.8477 46.2997 86.6639C46.2997 86.502 46.2472 86.3795 46.1422 86.2964C46.0372 86.2089 45.8491 86.1367 45.5778 86.0798L44.8362 85.9289C44.4118 85.8414 44.0945 85.6948 43.8845 85.4891C43.6745 85.2835 43.5695 85.0079 43.5695 84.6622C43.5695 84.3734 43.6461 84.1218 43.7992 83.9074C43.9523 83.693 44.1667 83.5268 44.4424 83.4086C44.718 83.2905 45.0396 83.2314 45.4072 83.2314C45.7353 83.2314 46.0394 83.2796 46.3194 83.3758C46.5995 83.4677 46.8335 83.6012 47.0217 83.7762L46.7592 84.4062C46.571 84.2487 46.3654 84.1328 46.1422 84.0584C45.9191 83.9796 45.6697 83.9403 45.394 83.9403C45.0834 83.9403 44.8406 84.0015 44.6655 84.124C44.4949 84.2422 44.4096 84.4062 44.4096 84.6163C44.4096 84.7781 44.4621 84.9072 44.5671 85.0035C44.6765 85.0997 44.8602 85.1741 45.1184 85.2266L45.8535 85.371C46.291 85.4585 46.6148 85.6029 46.8248 85.8042C47.0348 86.0011 47.1398 86.268 47.1398 86.6049C47.1398 86.8805 47.0654 87.1234 46.9167 87.3334C46.7679 87.539 46.5579 87.7009 46.2866 87.819C46.0153 87.9328 45.6938 87.9897 45.3218 87.9897Z" fill="black"/>
<path d="M50.0639 87.9897C49.4032 87.9897 48.911 87.8256 48.5872 87.4974C48.2678 87.1649 48.1081 86.6749 48.1081 86.0273V83.2971H48.9547V86.0208C48.9547 86.432 49.0422 86.7427 49.2172 86.9527C49.3966 87.1627 49.6788 87.2677 50.0639 87.2677C50.4314 87.2677 50.7071 87.1627 50.8908 86.9527C51.079 86.7427 51.173 86.432 51.173 86.0208V83.2971H52.0065V86.0273C52.0065 86.6749 51.8425 87.1649 51.5143 87.4974C51.1905 87.8256 50.7071 87.9897 50.0639 87.9897Z" fill="black"/>
<path d="M53.1894 87.924V83.2971H54.0361V87.2087H56.215V87.924H53.1894Z" fill="black"/>
<path d="M57.2959 87.924V83.9928H55.7667V83.2971H59.6717V83.9928H58.1425V87.924H57.2959Z" fill="black"/>
<path d="M60.4668 87.924V83.2971H61.3134V87.924H60.4668Z" fill="black"/>
<path d="M62.5288 87.924V83.2971H63.1654L65.8497 86.7689H65.679V83.2971H66.4666V87.924H65.83L63.1523 84.4522H63.3163V87.924H62.5288Z" fill="black"/>
<path d="M69.9115 87.9897C69.3908 87.9897 68.9532 87.8934 68.5988 87.7009C68.2444 87.5084 67.9775 87.2349 67.7981 86.8805C67.6188 86.5261 67.5291 86.1061 67.5291 85.6204C67.5291 85.1304 67.6253 84.7081 67.8178 84.3537C68.0103 83.995 68.286 83.7193 68.6448 83.5268C69.0079 83.3299 69.4433 83.2314 69.9508 83.2314C70.2877 83.2314 70.5831 83.2774 70.8368 83.3693C71.0906 83.4568 71.3138 83.5859 71.5063 83.7565L71.2241 84.4128C71.0841 84.3034 70.9506 84.2159 70.8237 84.1503C70.6968 84.0846 70.5656 84.0387 70.4299 84.0125C70.2943 83.9818 70.1368 83.9665 69.9574 83.9665C69.4499 83.9665 69.0648 84.1109 68.8023 84.3997C68.5441 84.6841 68.4151 85.0932 68.4151 85.627C68.4151 86.1608 68.5376 86.5677 68.7826 86.8477C69.032 87.1277 69.4214 87.2677 69.9508 87.2677C70.1302 87.2677 70.3096 87.2502 70.489 87.2152C70.6728 87.1802 70.8522 87.1299 71.0272 87.0643L70.8697 87.4187V86.0339H69.7868V85.417H71.5719V87.6418C71.3575 87.7512 71.1016 87.8365 70.804 87.8978C70.5065 87.9591 70.209 87.9897 69.9115 87.9897Z" fill="black"/>
<path d="M65.5239 4.46366C65.6736 4.003 66.3253 4.003 66.4749 4.46366L67.2342 6.80047C67.3012 7.00648 67.4931 7.14596 67.7097 7.14596H70.1668C70.6512 7.14596 70.8526 7.76577 70.4607 8.05047L68.4729 9.49469C68.2977 9.62202 68.2243 9.8477 68.2913 10.0537L69.0505 12.3905C69.2002 12.8512 68.673 13.2342 68.2811 12.9495L66.2933 11.5053C66.1181 11.378 65.8808 11.378 65.7055 11.5053L63.7177 12.9495C63.3259 13.2342 62.7986 12.8512 62.9483 12.3905L63.7076 10.0537C63.7745 9.8477 63.7012 9.62202 63.5259 9.4947L61.5381 8.05047C61.1463 7.76577 61.3477 7.14596 61.832 7.14596H64.2891C64.5057 7.14596 64.6977 7.00648 64.7646 6.80047L65.5239 4.46366Z" fill="black"/>
<path d="M77.5239 4.46366C77.6736 4.003 78.3253 4.003 78.4749 4.46366L79.2342 6.80047C79.3012 7.00648 79.4931 7.14596 79.7097 7.14596H82.1668C82.6512 7.14596 82.8526 7.76577 82.4607 8.05047L80.4729 9.49469C80.2977 9.62202 80.2243 9.8477 80.2913 10.0537L81.0505 12.3905C81.2002 12.8512 80.673 13.2342 80.2811 12.9495L78.2933 11.5053C78.1181 11.378 77.8808 11.378 77.7055 11.5053L75.7177 12.9495C75.3259 13.2342 74.7986 12.8512 74.9483 12.3905L75.7076 10.0537C75.7745 9.8477 75.7012 9.62202 75.5259 9.4947L73.5381 8.05047C73.1463 7.76577 73.3477 7.14596 73.832 7.14596H76.2891C76.5057 7.14596 76.6977 7.00648 76.7646 6.80047L77.5239 4.46366Z" fill="black"/>
<path d="M89.9265 4.36312C90.0819 3.91477 90.716 3.91477 90.8714 4.36312L91.7193 6.80956C91.789 7.01085 91.9787 7.14583 92.1917 7.14583H94.8633C95.3555 7.14583 95.5516 7.78203 95.1448 8.05908L93.0401 9.49267C92.8535 9.61981 92.7752 9.85627 92.8491 10.0697L93.666 12.4264C93.8237 12.8815 93.3101 13.2745 92.9121 13.0034L90.6804 11.4834C90.5106 11.3677 90.2873 11.3677 90.1175 11.4834L87.8858 13.0034C87.4878 13.2745 86.9742 12.8815 87.1319 12.4264L87.9487 10.0697C88.0227 9.85627 87.9444 9.61981 87.7578 9.49267L85.653 8.05908C85.2463 7.78203 85.4424 7.14583 85.9345 7.14583H88.6062C88.8192 7.14583 89.0089 7.01085 89.0786 6.80957L89.9265 4.36312Z" fill="black"/>
<path d="M102.324 4.46366C102.473 4.003 103.125 4.003 103.275 4.46366L104.034 6.80047C104.101 7.00648 104.293 7.14596 104.51 7.14596H106.967C107.451 7.14596 107.652 7.76577 107.261 8.05047L105.273 9.49469C105.097 9.62202 105.024 9.8477 105.091 10.0537L105.85 12.3905C106 12.8512 105.473 13.2342 105.081 12.9495L103.093 11.5053C102.918 11.378 102.681 11.378 102.505 11.5053L100.518 12.9495C100.126 13.2342 99.5984 12.8512 99.7481 12.3905L100.507 10.0537C100.574 9.8477 100.501 9.62202 100.326 9.4947L98.3379 8.05047C97.9461 7.76577 98.1475 7.14596 98.6318 7.14596H101.089C101.305 7.14596 101.497 7.00648 101.564 6.80047L102.324 4.46366Z" fill="black"/>
<path d="M114.324 4.46366C114.473 4.003 115.125 4.003 115.275 4.46366L116.034 6.80047C116.101 7.00648 116.293 7.14596 116.51 7.14596H118.967C119.451 7.14596 119.652 7.76577 119.261 8.05047L117.273 9.49469C117.097 9.62202 117.024 9.8477 117.091 10.0537L117.85 12.3905C118 12.8512 117.473 13.2342 117.081 12.9495L115.093 11.5053C114.918 11.378 114.681 11.378 114.505 11.5053L112.518 12.9495C112.126 13.2342 111.598 12.8512 111.748 12.3905L112.507 10.0537C112.574 9.8477 112.501 9.62202 112.326 9.4947L110.338 8.05047C109.946 7.76577 110.147 7.14596 110.632 7.14596H113.089C113.305 7.14596 113.497 7.00648 113.564 6.80047L114.324 4.46366Z" fill="black"/>
<path d="M100 25H148V27H100V25Z" fill="black"/>
<path d="M100 31H123V33H100V31Z" fill="black"/>
</svg>
